<?xml version="1.0" standalone="no"?>
<!DOCTYPE svg PUBLIC "-//W3C//DTD SVG 1.1//EN" "http://www.w3.org/Graphics/SVG/1.1/DTD/svg11.dtd" >
<svg xmlns="http://www.w3.org/2000/svg">
<metadata></metadata>
<defs>
<font id="lakki_reddyregular" horiz-adv-x="1338" >
<font-face units-per-em="2048" ascent="1638" descent="-410" />
<missing-glyph horiz-adv-x="496" />
<glyph horiz-adv-x="0" />
<glyph horiz-adv-x="0" />
<glyph horiz-adv-x="0" />
<glyph unicode=" "  horiz-adv-x="496" />
<glyph unicode="&#x09;" horiz-adv-x="496" />
<glyph unicode="&#xa0;" horiz-adv-x="496" />
<glyph unicode="!" horiz-adv-x="600" d="M103 181q-1 25 9 50t32 47t56 36q66 28 109 20t61 -42q14 -22 17 -49t-4 -54t-26 -51t-51 -38q-64 -30 -114 -15t-74 51q-14 20 -15 45zM150 1442q38 -10 72 -15t60 -9q30 -4 56 -6q28 -2 66 -4q34 -2 82 -2h114q-58 -138 -94 -233t-56 -157q-22 -72 -32 -118 q-8 -46 -20 -112q-10 -58 -28 -142t-40 -200l-176 8q16 106 22 181l10 125q4 58 4 96q0 40 -6 120q-4 66 -12 179t-22 289z" />
<glyph unicode="&#x22;" horiz-adv-x="778" d="M82 1524l214 -16l-46 -532l-140 -8zM412 1500l242 -16l-46 -486l-144 -6z" />
<glyph unicode="#" horiz-adv-x="1348" d="M20 284l26 198l220 20q8 36 15 65t11 51q6 24 8 46q4 24 10 52q4 24 9 55t11 69q-22 -2 -39 -4t-33 -4q-18 -4 -32 -6q-10 -2 -26 -8q-14 -4 -37 -12t-55 -20l64 196l188 36q8 20 12 46t8 50q4 28 4 56q0 22 4 52q4 24 8 59t12 75l172 -10q-10 -40 -16 -71t-10 -53 q-6 -24 -8 -42q-2 -22 -6 -46q-4 -22 -9 -52t-9 -70q52 8 92 12t68 8q32 4 56 4q24 2 52 4q24 2 56 3t70 3l62 300l218 -4q-14 -36 -23 -65t-15 -51q-8 -24 -12 -46q-4 -20 -10 -42q-4 -18 -10 -41t-14 -45h206l-44 -206q-14 4 -32 9t-34 9q-20 4 -42 6l-36 4q-34 4 -52 0 q-8 -34 -15 -62t-11 -50q-6 -24 -10 -44t-10 -44q-4 -22 -10 -49t-14 -61h41t35 2q18 2 32 4q14 0 34 2q16 2 39 3t51 5l-74 -178q-16 -2 -31 -1t-27 3q-14 2 -26 4q-14 2 -32 6q-16 2 -37 4t-49 4q-4 -6 -8 -21t-8 -31l-8 -40l-10 -50q-4 -22 -10 -49t-10 -55 q-56 -10 -88 -15t-48 -7q-20 -4 -26 -2q-4 4 0 34q4 26 13 80t31 156q-24 -2 -54 -5t-56 -7q-32 -4 -62 -8t-66 -10q-30 -4 -67 -10t-73 -14l-64 -260l-158 -14q10 42 19 71t13 47q6 22 8 34q2 10 6 28q4 16 7 38t7 52q-28 -10 -52 -18t-40 -12q-20 -6 -36 -10t-34 -10 q-16 -4 -34 -12t-36 -18zM448 506q50 4 87 9t61 9l48 6l48 6q24 4 59 7t81 7l64 340q-48 -4 -86 -5t-66 -3q-32 -2 -56 -2q-24 -2 -52 -4q-24 -2 -56 -3t-68 -3z" />
<glyph unicode="$" horiz-adv-x="1140" d="M35 975q-15 49 9 99q24 48 42 83t39 59t46 40t63 30q18 6 46 12q24 4 62 7t92 3q-4 16 -6 31t-4 27l-4 28q0 14 -4 30q-4 14 -8 29t-10 31l260 -4q-16 -20 -25 -36t-15 -28q-8 -14 -10 -26q0 -10 -2 -22t-3 -29t-1 -45q64 -20 113 -30t85 -14q40 -6 74 -4q30 2 60 10 q26 8 56 22t56 40q-16 -68 -26 -112t-14 -70q-6 -30 -8 -46t-8 -50q-4 -28 -11 -79t-19 -131q-46 90 -91 145t-83 89q-44 38 -84 58q-20 8 -40 14q-16 4 -35 7t-29 -1l-2 -282q116 -12 192 -34t122 -44q52 -26 82 -56q64 -78 98 -132t28 -126q-2 -36 -20 -81t-47 -87 t-67 -73t-82 -39q-36 -4 -76 -6q-34 -2 -80 1t-96 13q2 -54 6 -82q2 -16 4 -26t6 -20t8 -23t10 -29l-230 -2q12 12 20 23t12 19q6 8 6 16t2 26q0 16 1 41t1 67q-52 12 -89 16t-65 4q-32 0 -54 -6l-40 -16q-16 -8 -35 -21t-31 -29q-8 38 -11 74t-7 66q-4 34 -6 66q0 34 -2 74 q-2 34 -3 82t1 106q32 -38 57 -71t45 -57q22 -30 40 -54q22 -30 50 -52q22 -18 54 -31t68 -3l-10 344q-64 4 -111 12t-75 18q-36 10 -56 26q-26 18 -65 52t-70 77t-46 92zM292 980q2 -26 20 -48q16 -22 49 -44t97 -38l-14 272q-54 0 -84 -22t-46 -50q-18 -32 -22 -70z M608 678q2 -82 6 -130q2 -26 2 -46t2 -44q2 -22 3 -53t5 -71q74 10 114 34t62 52q22 32 30 68q0 60 -22 106q-20 40 -66 67t-136 17z" />
<glyph unicode="%" horiz-adv-x="1452" d="M32 1150q4 70 31 120t71 83t100 49t116 16q62 0 125 -15t114 -44t83 -72t30 -97q-6 -138 -93 -212t-215 -78q-64 -2 -130 12t-119 45t-85 79t-28 114zM230 48q140 228 232 385t148 257q66 116 100 188q26 56 58 134q28 66 65 164t83 228h304q-76 -108 -149 -225 t-131 -217q-68 -116 -130 -228q-52 -104 -104 -214q-44 -96 -90 -215t-80 -243zM260 1146q0 -28 9 -55t23 -47t33 -32t39 -10t42 14t39 33t27 50t8 63q0 34 -6 65t-20 54t-36 35t-54 8q-44 -4 -76 -56t-28 -122zM764 264q0 68 22 122t61 93t93 62t118 27t131 -7t121 -39 t88 -75t34 -113q0 -70 -26 -121t-68 -86t-97 -54t-115 -21q-62 -4 -126 9t-117 40t-86 68t-33 95zM984 304q2 -34 10 -65t22 -53t36 -34t54 -6q44 8 74 61t24 121q-4 58 -38 101t-74 39q-20 -2 -41 -15t-37 -35t-25 -51t-5 -63z" />
<glyph unicode="&#x26;" horiz-adv-x="1174" d="M84 318q8 62 38 136q26 64 77 146t145 178q-100 116 -149 209t-69 159q-22 78 -18 136q14 90 53 134t90 60t109 16t108 4t115 -1t125 -20t106 -42t60 -67t20 -77t-3 -77t-39 -85t-86 -99q-42 -46 -84 -88q-36 -36 -80 -76t-84 -70q20 -38 42 -73t40 -63q22 -34 42 -64 q24 -40 51 -78t50 -66t39 -44t20 -12l19 38t38 77t38 85t21 62q-2 16 -12 36q-10 16 -31 35t-63 41q40 -2 78 -1t68 3q34 2 64 6l78 6q40 2 98 4t140 4q-44 -16 -75 -36t-51 -36q-22 -20 -38 -38q-18 -24 -37 -61t-41 -77t-47 -81t-55 -73q-18 -20 -38 -42q-16 -20 -38 -44 t-44 -46q50 -56 91 -94t69 -60q34 -28 58 -44t56 -32q26 -14 62 -30t80 -32q-222 -16 -344 -23t-178 -11q-66 -6 -80 -6q-4 -2 8 7t28 24t30 34t14 39q0 16 -2 34q-2 16 -6 36t-14 42q-40 -64 -100 -96t-116 -46q-66 -16 -134 -14q-184 12 -253 94t-59 240zM330 1196 q4 -40 23 -102t71 -156q100 114 146 184t62 110q20 46 10 68q-18 22 -56 40t-82 19t-89 -18t-77 -73q-12 -26 -8 -72zM343 499q-17 -85 41 -187q26 -38 64 -52q34 -14 87 -6t129 60q-30 40 -52 73t-38 55q-18 26 -30 44t-30 44q-16 22 -38 54t-52 76q-64 -76 -81 -161z" />
<glyph unicode="'" horiz-adv-x="418" d="M82 1524l214 -16l-46 -532l-140 -8z" />
<glyph unicode="(" horiz-adv-x="594" d="M82 748q-4 122 25 244t74 233t99 207t101 167t78 113t33 46q2 0 2 -22q0 -20 -1 -63l-3 -129q-76 -190 -118 -340t-62 -258q-22 -124 -28 -222q4 -96 30 -212q22 -100 71 -235t145 -295l4 -254q-164 200 -254 383t-134 325q-52 166 -62 312z" />
<glyph unicode=")" horiz-adv-x="580" d="M62 1512v254q160 -202 248 -386t130 -328q50 -168 58 -312q2 -122 -28 -243t-77 -232t-102 -206t-102 -166t-80 -112t-33 -45q-2 0 -2 22q0 18 1 62t5 130q78 188 121 338t65 258q24 124 32 222q-2 96 -26 212q-22 100 -70 235t-140 297z" />
<glyph unicode="*" horiz-adv-x="888" d="M30 1206l102 120l246 -210l90 394l210 -106l-210 -282l358 42l30 -222l-364 60l156 -342q-62 -14 -97 -22t-53 -12q-22 -6 -30 -8q-4 2 -12 38q-6 30 -16 95t-20 191l-246 -210l-102 156l246 126q-112 72 -169 111t-85 57q-32 22 -34 24z" />
<glyph unicode="+" horiz-adv-x="1060" d="M30 720q54 -4 95 -6t69 -2h54h60h158q0 52 -1 91t-3 65q-2 30 -4 48q-2 20 -8 48q-4 24 -11 61t-17 87l232 10q-16 -48 -25 -87t-13 -67q-6 -34 -6 -60v-58q0 -28 -2 -62t-4 -74q72 2 123 4t85 2h64q24 0 48 2q22 2 47 5t49 11l8 -170q-44 4 -79 4t-61 2q-30 0 -54 2h-60 q-30 0 -73 -2t-101 -4q-4 -34 -5 -64t1 -54q0 -28 4 -52q2 -26 8 -60q4 -30 11 -72t17 -100h-218q8 54 13 97t9 71q4 34 6 60l4 64q2 28 2 59t-2 59q-50 2 -89 1t-67 -3q-32 -2 -56 -4q-24 -4 -54 -6q-26 -4 -62 -5t-78 -5z" />
<glyph unicode="," horiz-adv-x="416" d="M81 94q-1 30 16 59t53 49q58 32 102 16t62 -48q10 -16 15 -44t4 -59t-7 -61t-18 -50q-10 -14 -24 -30q-12 -14 -29 -29t-39 -25l-70 6q14 16 25 28t19 22t16 18q12 14 20 28q8 12 14 26t2 28q-14 -16 -30 -22t-30 -6q-18 0 -34 4q-30 10 -48 35t-19 55z" />
<glyph unicode="-" horiz-adv-x="938" d="M30 734q78 -2 143 -2h113q56 0 102 2q48 0 122 4q64 2 161 6t237 10l-10 -204q-112 8 -187 11t-121 5q-54 2 -88 0t-96 -6q-52 -4 -141 -9t-225 -15z" />
<glyph unicode="." horiz-adv-x="452" d="M82 118q0 24 13 41t34 30t44 20t45 11q72 10 113 -24t39 -94q-2 -30 -12 -48t-27 -27t-40 -14t-53 -9q-30 -6 -58 3t-50 27t-35 40t-13 44z" />
<glyph unicode="/" horiz-adv-x="960" d="M-10 -24q108 206 178 340t110 218q48 96 74 152q42 90 96 214q46 106 112 259t150 353h150q16 0 34 -2q16 -2 35 -3t41 -5q-96 -166 -162 -290t-110 -208q-52 -98 -86 -166q-36 -72 -88 -188q-46 -100 -117 -258t-173 -386q-16 0 -34 -1t-34 -3q-20 -2 -38 -2 q-20 0 -42 -4q-20 -4 -44 -8t-52 -12z" />
<glyph unicode="0" horiz-adv-x="1170" d="M40 718q0 174 41 312t114 234t176 147t227 53q92 2 186 -42t170 -133t124 -223t50 -314q2 -120 -18 -218t-54 -175t-77 -136t-87 -100t-84 -65t-68 -32q-36 -12 -86 -21t-104 -12t-107 6t-93 33t-93 69t-101 124t-82 199t-34 294zM316 720q-2 -118 14 -206t38 -148 t45 -95t35 -49q12 -18 44 -24t68 -5t70 10t52 25q10 10 29 50t38 104t35 149t22 183q6 110 0 203t-18 163t-28 116t-34 62q-26 24 -63 34t-74 8t-70 -14t-51 -32q-36 -40 -64 -84t-46 -106t-29 -145t-13 -199z" />
<glyph unicode="1" horiz-adv-x="664" d="M0 54q52 32 83 62t47 52q18 26 22 50q2 16 7 87t10 168t10 208t7 207t2 164t-6 82q-8 14 -24 32q-14 16 -37 34t-63 40q70 22 114 37t72 25q32 12 48 22l48 24q28 14 72 37t114 59q-16 -76 -23 -143t-11 -119q-6 -60 -6 -110q-2 -42 -5 -112t-7 -152t-8 -168t-5 -161 t2 -129t13 -74q10 -24 26 -46q14 -20 33 -45t47 -49q-46 -10 -86 -17t-70 -11q-36 -6 -64 -10q-30 -2 -82 -10q-44 -6 -112 -15t-168 -19z" />
<glyph unicode="2" horiz-adv-x="1180" d="M82 1410q38 -28 77 -41t71 -17q36 -6 72 -2q34 4 70 24t84 42t113 39t157 17q40 0 85 -16t87 -41t77 -55t53 -60q20 -30 28 -97t6 -145t-13 -154t-31 -124q-24 -42 -92 -108q-58 -56 -174 -144t-312 -210q116 2 195 7t129 11q58 8 92 16q30 12 64 34q28 20 61 52t65 84 q6 -108 12 -170q4 -36 6 -62q2 -24 4 -56q2 -28 3 -64t5 -76q-100 26 -182 41t-140 21q-68 8 -122 8q-56 -2 -124 -10q-60 -8 -143 -23t-187 -43q-8 22 -14 45t-10 45q-6 24 -10 48t-8 46q-4 20 -6 42t-4 42q160 102 260 185t158 141q66 68 100 124q34 68 56 150t15 152 t-49 115t-134 39q-60 -4 -113 -42t-97 -92t-78 -115t-57 -115t-36 -90t-13 -38q-2 -4 -5 30t-6 85t-7 107t-8 94q-2 30 -6 78q-6 78 -24 246z" />
<glyph unicode="3" horiz-adv-x="1096" d="M62 1462q34 -24 70 -36t64 -18q34 -8 66 -8q40 0 73 10t73 20t92 17t130 1t140 -35t105 -72t67 -95t24 -106q-4 -82 -26 -154q-20 -62 -62 -121t-124 -83q100 -14 157 -52t89 -78q36 -48 50 -104q12 -74 -2 -151t-51 -144t-100 -118t-151 -75q-60 -16 -137 -7t-149 27 t-130 36t-80 16q-18 -2 -42 -14q-22 -10 -51 -31t-69 -59q10 90 15 144t9 86q4 36 4 54v44q0 24 -2 62t-4 96q102 -124 192 -186t158 -90q80 -32 146 -30q56 4 90 37t48 79t10 99t-25 100t-57 82t-84 43q-58 10 -110 2q-46 -6 -96 -27t-84 -71q-4 34 -5 58t-3 40 q-2 18 -2 26q0 10 -2 30q-2 16 -3 43t-5 69q36 -10 68 -15t56 -7q28 -2 52 0q30 2 73 23t81 57t61 86t15 110q-18 122 -81 175t-129 49q-44 -6 -104 -42q-52 -30 -123 -91t-161 -171q4 54 4 97v71q0 34 -2 60l-6 60q-4 30 -8 76t-12 106z" />
<glyph unicode="4" horiz-adv-x="1110" d="M0 570l10 134q98 140 157 233t91 151q36 66 52 104q10 36 18 76q8 34 14 81t6 99q66 -4 109 -6t69 -2q30 -2 46 0h52q30 0 85 -1t145 -3q-10 -14 -16 -34t-10 -40q-6 -22 -8 -48q-2 -32 -8 -100q-4 -58 -11 -161t-17 -267q58 0 100 11t70 27q32 16 52 38q10 12 22 26 q10 12 26 26t34 30q-4 -54 -6 -93t-4 -65q-2 -30 -4 -48q0 -22 -4 -58q-4 -32 -8 -85t-8 -133q-20 40 -37 63t-29 35q-16 14 -28 20q-14 4 -38 8q-22 4 -55 5t-85 3q0 -118 5 -190t11 -112q8 -48 18 -68q12 -18 34 -42q20 -22 54 -52t88 -68q-46 -10 -87 -13t-75 -7 q-38 -4 -72 -4q-36 0 -88 -4q-46 -4 -114 -8t-164 -10q34 34 55 63t33 51q14 24 20 42q4 22 12 74q6 44 14 122t18 206zM292 762l276 4q4 54 7 99t5 79q2 38 2 72v74q0 36 1 85t3 111z" />
<glyph unicode="5" horiz-adv-x="1068" d="M40 364q0 28 3 58t13 52l518 -36q-76 -24 -114 -51t-54 -51q-20 -28 -16 -56q14 -72 50 -117t82 -37q24 4 55 33t60 73t52 99t29 111t9 118t-5 114t-28 87t-58 35q-32 -4 -72 -26q-34 -20 -81 -60t-105 -116q-40 10 -67 21t-45 19q-22 8 -34 18q-12 8 -32 20l-40 25 t-58 37q8 78 10 132t4 88v66q-2 28 -2 82v127t4 207q96 -18 168 -26t122 -12q58 -4 100 -2q42 0 106 6q54 4 137 11t197 17q-6 -54 -11 -97t-9 -73q-4 -36 -6 -64q-2 -30 -6 -68q-4 -34 -7 -84t-5 -116q-76 126 -138 195t-108 103q-52 38 -94 46h-82q-36 0 -78 -2t-76 -8 l8 -472q40 50 88 74t94 34q52 10 106 8q140 -12 217 -48t111 -106q16 -36 27 -109t7 -157t-26 -165t-70 -131q-48 -48 -94 -79t-92 -50t-96 -27t-106 -12q-90 -6 -172 20t-144 70t-100 95t-42 93q-4 32 -4 64z" />
<glyph unicode="6" horiz-adv-x="1074" d="M42 475q-10 179 62 381q32 90 72 175t116 163t203 151t335 141l38 -504q-16 70 -49 104t-67 46q-40 14 -88 8q-112 -28 -198 -108q-36 -34 -72 -82t-63 -115t-43 -153t-16 -196q32 86 72 145t85 96t91 57t90 26q102 16 210 -24q86 -38 138 -113t68 -168t-1 -192t-66 -183 t-131 -143t-194 -71q-168 -18 -299 51t-207 199t-86 309zM402 328q6 -62 26 -114t47 -90t58 -59t59 -19q58 4 99 77t49 195q4 60 -15 121t-47 109t-61 77t-59 27q-40 -6 -71 -34t-52 -72t-30 -101t-3 -117z" />
<glyph unicode="7" horiz-adv-x="1092" d="M62 1392q204 -2 327 -2t191 2q80 2 112 4l88 8q50 4 135 12t217 24q-162 -302 -260 -524t-152 -372q-64 -174 -88 -298q-4 -32 2 -66q4 -28 18 -62t46 -62q-68 -2 -119 -1t-85 3q-40 2 -72 2q-30 2 -80 -2q-42 -4 -111 -12t-167 -24q64 36 106 67t68 53q30 26 48 48 q34 48 63 112t56 138t57 155t68 163q28 66 64 144q30 66 69 152t83 184q-24 30 -81 36t-115 0q-68 -8 -148 -26q-32 -12 -74 -48q-36 -32 -88 -93t-116 -165q-6 128 -12 188l-6 60q-4 22 -10 52q-4 26 -13 64t-21 86z" />
<glyph unicode="8" horiz-adv-x="1160" d="M42 290q0 100 32 188q14 36 35 74t54 71t79 60t106 41q-58 14 -97 35t-66 48t-42 56t-21 59q-16 66 2 146q30 102 73 173t110 117t163 70t228 34q96 6 177 -27t137 -86t84 -117t22 -118q-12 -70 -48 -136q-32 -56 -91 -116t-163 -100q92 -56 140 -121t70 -121 q24 -66 24 -130q-6 -100 -41 -183t-99 -143t-156 -92t-210 -30q-238 6 -366 96t-136 252zM292 323q2 -57 26 -104t66 -78t98 -33q62 -2 109 17t80 54t56 84t41 107q16 58 6 111t-37 94t-65 66t-76 25q-86 0 -157 -59t-123 -171q-26 -56 -24 -113zM374 994q4 -48 24 -89 t56 -69t90 -26q66 2 115 26t83 62t57 87t37 105t6 103t-29 81t-50 55t-57 25q-66 10 -121 -18t-96 -73t-68 -96t-39 -89q-12 -36 -8 -84z" />
<glyph unicode="9" horiz-adv-x="1012" d="M27 1031q11 75 57 145q68 102 128 154t116 71t110 17t110 -8q68 -6 140 -36t134 -87t107 -143t57 -202q20 -200 -25 -346t-130 -256t-198 -195t-233 -161q-60 58 -94 94l-36 36q-14 18 -36 40q-18 20 -44 48t-58 64q62 -34 113 -44t87 -8q42 2 76 14q90 44 162 110 q62 58 113 145t55 207q-64 -92 -139 -132t-139 -54q-76 -16 -152 -6q-38 6 -82 40t-84 87t-71 119t-43 139t-1 148zM320 894q0 -56 15 -102t43 -79t70 -41q42 -10 83 13t76 65t60 99t33 117q6 42 1 91t-20 92t-38 73t-53 36q-40 6 -79 -11t-73 -52t-61 -84t-41 -105 q-16 -56 -16 -112z" />
<glyph unicode=":" horiz-adv-x="456" d="M81 571q-1 25 10 50t33 47t56 36q66 28 109 19t61 -41q14 -24 17 -51t-5 -53t-27 -50t-49 -38q-64 -30 -114 -16t-76 52q-14 20 -15 45zM86 118q0 24 13 41t34 30t44 20t45 11q72 10 113 -24t39 -94q-2 -30 -12 -48t-27 -27t-40 -14t-53 -9q-30 -6 -58 3t-50 27t-35 40 t-13 44z" />
<glyph unicode=";" horiz-adv-x="450" d="M81 571q-1 25 10 50t33 47t56 36q66 28 109 19t61 -41q14 -24 17 -51t-5 -53t-27 -50t-49 -38q-64 -30 -114 -16t-76 52q-14 20 -15 45zM85 94q-1 30 16 59t53 49q58 32 102 16t62 -48q10 -16 15 -44t4 -59t-7 -61t-18 -50q-10 -14 -24 -30q-12 -14 -29 -29t-39 -25 l-70 6q14 16 25 28t19 22t16 18q12 14 20 28q8 12 14 26t2 28q-14 -16 -30 -22t-30 -6q-18 0 -34 4q-30 10 -48 35t-19 55z" />
<glyph unicode="&#x3c;" horiz-adv-x="786" d="M0 612q94 68 156 112t98 70q42 30 66 44q26 18 76 54q42 30 111 83t177 137v-274q-48 -16 -92 -35t-78 -35q-40 -20 -74 -40l-70 -42q-30 -18 -66 -40t-66 -42q34 -24 65 -44t55 -36q28 -18 54 -34q32 -20 75 -42t82 -40t67 -31t30 -17q2 -6 2 -38v-84t-2 -158 q-58 54 -107 98t-87 76q-44 36 -82 64q-40 28 -96 70q-48 36 -121 92t-173 132z" />
<glyph unicode="=" horiz-adv-x="1050" d="M30 916q152 -4 251 -8t157 -6q68 -4 104 -4q34 -2 98 2q54 2 146 8t230 20q-6 -52 -6 -76v-28v-24q0 -10 1 -22t1 -24q-178 0 -285 -1t-165 -1h-98q-26 -2 -82 -4q-48 -2 -132 -6t-216 -8zM34 360q4 26 4 45v33v28q-2 10 -2 22v48q176 2 284 4t166 4q68 2 98 2q26 0 82 4 q48 2 131 6t217 12l6 -180q-152 2 -251 3t-157 3q-68 2 -104 2q-36 2 -100 -2q-54 -4 -145 -11t-229 -23z" />
<glyph unicode="&#x3e;" horiz-adv-x="786" d="M102 838v274q106 -84 176 -137t112 -83q50 -36 76 -54q24 -14 66 -44q36 -26 97 -70t157 -112q-102 -76 -174 -132t-120 -92q-56 -42 -96 -70q-38 -28 -82 -64q-38 -32 -88 -76t-108 -98q-2 102 -2 158v84q0 32 2 38q2 4 31 17t68 31t82 40t75 42q26 16 54 34l54 36 t64 44q-30 20 -65 42t-65 40l-70 42q-34 20 -74 40q-34 16 -79 35t-91 35z" />
<glyph unicode="?" horiz-adv-x="1040" d="M20 980q4 16 9 40t9 46q6 26 10 54q6 36 9 60t6 42t9 32t22 28q24 22 61 49t90 48t124 33t165 6t156 -20t104 -35t69 -48t51 -63t47 -87t39 -107t19 -112t-11 -100q-18 -36 -70 -72q-46 -32 -131 -72t-235 -80q4 -38 12 -68t16 -52q8 -26 20 -46q12 -18 22 -40 q10 -18 21 -39t21 -39l-392 -48q18 22 29 47t17 47q8 26 8 52q0 28 -4 68q-4 34 -11 87t-23 125q94 4 155 21t99 35q44 22 68 46q18 22 31 69t18 105t-1 119t-28 109t-61 77t-99 25q-90 -8 -136 -33t-64 -55t-17 -60t5 -44q2 -14 22 -28q16 -14 49 -30t91 -38l-72 -12 t-64 -10q-34 -6 -64 -10q-30 -6 -66 -10q-30 -4 -70 -7t-84 -5zM342 118q0 24 13 41t34 30t44 20t45 11q72 10 113 -24t39 -94q-2 -30 -12 -48t-27 -27t-40 -14t-53 -9q-30 -6 -58 3t-50 27t-35 40t-13 44z" />
<glyph unicode="@" horiz-adv-x="1382" d="M30 582q4 122 42 259t112 256t186 205t266 108q154 24 262 6t180 -53t112 -77t56 -68q10 -18 29 -59t37 -98t30 -123t9 -133t-24 -130t-69 -111q-54 -54 -100 -92q-40 -34 -78 -57t-54 -13q-42 30 -60 48q-10 10 -18 20q-6 10 -12 22q-4 10 -11 25t-11 37 q-28 -86 -73 -128t-89 -58q-52 -20 -108 -16q-74 8 -132 44t-95 92t-52 126t-3 148t48 142t83 111t100 72t101 23q36 -2 72 -20q30 -16 62 -46t56 -86l6 134l136 -26q-18 -124 -26 -199t-12 -115q-4 -48 0 -68q8 -44 23 -70t59 -22q20 2 49 39t53 89t39 109t7 97 q-8 42 -36 88t-62 87t-67 70t-51 37t-78 25t-137 26t-157 -1t-138 -58q-58 -46 -113 -113t-94 -149t-55 -177t4 -199t71 -175t117 -115t139 -62t139 -18q52 2 118 18q56 12 132 39t166 75l28 -120q-138 -64 -247 -91t-185 -35q-88 -8 -154 0q-82 16 -176 51t-173 95 t-131 147t-48 211zM548 680q2 -44 14 -86t35 -74t57 -40t67 15t61 60t47 82t23 81q6 36 3 78t-17 79t-41 63t-69 30q-54 2 -105 -57t-71 -159q-6 -28 -4 -72z" />
<glyph unicode="A" d="M-204 44q52 24 88 49t60 47q28 24 48 46q14 20 56 93t95 173t112 214t107 215t78 175t30 96q-4 26 -20 58q-14 28 -43 64t-83 80q100 -6 169 -9l115 -5q26 -1 48 -1t40 1q36 2 98 10q52 6 139 19t217 35q-46 -46 -71 -83t-39 -63q-16 -32 -22 -54q-1 -5 -1 -14 q0 -26 9 -86q12 -80 34 -189t48 -232t52 -230t47 -182t31 -89q30 -42 38 -55t28 -23q8 -4 26 -12q16 -8 43 -20t69 -28q-78 -4 -134 -5t-92 -3q-42 -2 -72 -4q-30 0 -72 -4q-36 -4 -93 -8t-133 -8q40 28 65 51t39 39q16 20 22 36q4 18 6 54q1 16 1 37t-1 48q-2 53 -10 139 l-526 -54q-20 -34 -30 -59t-14 -43q-6 -22 -4 -36q4 -16 14 -38q10 -20 29 -47t57 -63q-50 2 -102 2t-96 -2q-52 -2 -102 -4t-114 -6q-54 -4 -127 -9t-157 -13zM528 528l416 36q-12 70 -22 121t-16 85q-8 40 -12 70q-6 28 -14 72q-8 38 -19 95t-27 137q-114 -228 -177 -353 t-91 -183q-34 -68 -38 -80z" />
<glyph unicode="B" horiz-adv-x="1294" d="M-30 1430q64 -16 122 -24t102 -12q40 -4 74 -4h22q56 0 141 10t175 19t173 12q15 1 28 1q64 0 107 -12q52 -12 107 -37t101 -62t76 -86t34 -111q-2 -78 -36 -146q-28 -58 -94 -119t-190 -93q62 -8 107 -27t78 -44t54 -55t33 -60q28 -66 28 -145v-11q-12 -112 -45 -178 t-75 -102t-86 -50t-80 -22t-88 -8t-111 3t-121 6q-27 1 -52 1q-34 0 -66 -2q-46 -4 -112 -8q-56 -4 -140 -9t-196 -11q22 16 37 37t25 37q10 20 18 38q6 16 10 88t6 173t3 218v58q0 86 -2 168q-3 109 -8 194t-13 123q-12 42 -32 86q-16 38 -45 82t-69 84zM382 278 q74 -38 130 -50t94 -12q44 0 76 12q38 18 75 49t56 74q16 36 16 78q0 9 -1 18q-4 53 -46 117q-38 46 -92 72q-48 22 -121 28q-10 1 -20 1q-67 0 -159 -35zM392 1226q0 -8 2 -54q2 -40 5 -123t9 -235q50 -22 98 -23h19q37 0 67 3q44 6 84 20q54 22 85 72t42 105q7 36 7 69 q0 18 -2 35q-6 49 -26 71q-38 34 -94 56q-48 18 -121 25q-15 1 -30 1q-63 0 -145 -22z" />
<glyph unicode="C" horiz-adv-x="1214" d="M-40 616q4 68 28 159t65 187t99 188t128 165t153 118t173 45q70 0 127 -23t106 -51t93 -51t90 -23q36 2 82 10q40 8 93 25t119 51q-66 -64 -107 -107t-63 -71q-26 -32 -38 -50l-36 -66q-22 -40 -60 -107t-96 -175q0 138 -27 214t-59 116q-38 46 -86 58q-10 1 -20 1 l-68 -16q-44 -21 -87 -61t-82 -95t-70 -115t-51 -121t-26 -113q-4 -28 -4 -61q0 -22 2 -46q4 -61 18 -124t36 -123t55 -107t75 -76q39 -27 89 -27h7q60 4 118 36q50 26 102 81t90 157l296 -54q-128 -156 -249 -234t-217 -110q-106 -34 -201 -34h-11q-126 14 -236 76 t-189 151t-123 195q-39 93 -39 183q0 13 1 25z" />
<glyph unicode="D" horiz-adv-x="1278" d="M-62 34q46 22 75 44t45 38q18 20 26 36q4 22 12 86q6 54 16 154t24 272l12 142q9 120 9 200v16q-1 84 -5 132q-6 56 -16 82q-8 22 -30 52q-20 24 -55 59t-93 79q70 -10 122 -16t86 -10q40 -4 68 -6q11 -1 23 -1q25 0 56 5q47 8 101 17t112 15q29 3 57 3t55 -3 q36 -4 92 -16t119 -38t127 -68t116 -106t86 -152t38 -206q1 -24 1 -47q0 -148 -33 -273q-38 -144 -117 -246t-199 -160t-280 -64q-122 -10 -240 -18q-50 -4 -105 -6t-109 -3h-36q-35 0 -68 1q-50 2 -92 6zM376 836l4 -146q4 -178 19 -273t33 -141q22 -52 48 -62q38 0 86 33 t95 101t86 170t57 238q7 53 7 102q0 75 -17 138q-28 104 -74 175t-94 108t-72 37q-28 0 -50 -15t-62 -67q-20 -28 -36 -80q-14 -46 -24 -122q-7 -54 -7 -131q0 -31 1 -65z" />
<glyph unicode="E" horiz-adv-x="1224" d="M-82 1366q140 -4 233 -5t151 -1h106h596q4 -40 7 -77t3 -65q0 -34 -2 -62t-6 -60q-4 -28 -8 -60t-14 -66q-28 108 -75 164t-95 82q-56 30 -118 32q-82 -4 -128 -14t-72 -28t-39 -41t-27 -51q-12 -24 -22 -74q-10 -42 -19 -114t-19 -186q54 16 87 30t53 24q22 12 32 22 q8 12 24 44q12 28 33 76t51 132q4 -92 4 -153t2 -99q0 -44 2 -70v-76q0 -42 1 -113t5 -179q-24 74 -43 117t-33 65q-16 26 -28 36q-14 4 -38 8q-22 2 -55 2t-83 -10q-3 -60 -3 -107q0 -39 2 -70q5 -67 15 -103q10 -42 24 -60q18 -18 72 -29q42 -9 94 -9q14 0 29 1 q69 3 141 23t128 66q42 38 90 96q40 50 89 126t97 184q-8 -90 -11 -149t-7 -95q-4 -42 -6 -64q0 -24 -6 -68q-4 -38 -13 -103t-23 -165q-94 -2 -178 -3t-148 -3q-76 -2 -140 -4q-66 0 -146 -6q-70 -4 -165 -12t-209 -22q10 136 15 257t7 213q1 54 1 104t-1 96q4 82 4 153 q0 128 -12 219q-18 142 -42 182q-12 14 -34 34q-18 16 -50 38t-80 50z" />
<glyph unicode="F" horiz-adv-x="1056" d="M40 1380q120 -10 211 -12t155 -2q74 0 128 4q56 6 146 16q76 10 196 27t292 45q-22 -34 -37 -71t-25 -67q-10 -36 -18 -70q-6 -38 -14 -94q-8 -48 -19 -121t-27 -173q-60 156 -121 240t-113 124q-60 46 -114 52q-78 0 -128 -30t-81 -77t-47 -102t-22 -106t-8 -90t-4 -53 q70 4 118 10t76 12q34 8 54 16q30 16 60 38q26 20 55 48t51 68q-12 -72 -21 -120t-15 -76q-8 -34 -10 -52q-4 -18 -10 -50q-6 -28 -14 -72t-18 -110q-24 42 -50 69t-48 43q-26 18 -50 28q-26 8 -56 16q-26 6 -61 13t-75 13q4 -108 12 -185t14 -129q8 -60 16 -100 q10 -40 32 -86q18 -40 51 -91t85 -109q-40 10 -84 14t-78 6q-21 1 -41 1t-39 -1q-40 -2 -88 -8q-40 -4 -92 -12t-110 -18q34 34 56 68t32 60q12 30 16 58q2 24 2 105t-2 190t-6 231t-8 229t-9 183t-11 92q-8 20 -18 46q-16 42 -66 122z" />
<glyph unicode="G" horiz-adv-x="1316" d="M4 698q18 186 89 325t177 231t239 139t273 51h10q121 0 201 -46q83 -48 135 -114t80 -133t44 -105q4 -10 16 -26q10 -14 29 -33t49 -43q-62 -2 -110 -3t-82 -3q-38 -2 -68 -4t-74 -6q-40 -4 -98 -8t-142 -12q50 60 79 107t44 84t18 65t-3 48q-12 46 -62 66q-40 11 -78 11 q-96 0 -173 -74q-107 -103 -153 -337q-22 -116 -41 -241q-16 -103 -16 -192q0 -18 1 -36q4 -103 40 -167q34 -60 114 -60h10q86 4 146 29t96 60t51 76q12 32 12 62q0 7 -1 15q-8 28 -42 60q-30 28 -90 63t-172 73q106 6 175 9t109 7q48 4 74 6q24 2 70 4q40 2 103 2t159 2 q-36 -36 -56 -66q-10 -16 -18 -28q-6 -16 -6 -59v-23q0 -52 8 -153t30 -275l-266 -36l12 270q-46 -110 -115 -164t-131 -76q-69 -24 -143 -24h-11q-104 10 -208 48t-184 117t-123 205q-31 92 -31 216q0 46 4 96z" />
<glyph unicode="H" horiz-adv-x="1208" d="M-62 1420q70 -8 118 -11t76 -5q34 -2 54 -2q34 0 78 2q38 2 89 7t111 17q-28 -30 -46 -57t-28 -49q-12 -24 -20 -44q-8 -26 -18 -80q-10 -46 -21 -130t-27 -220q45 -1 83 -1h35q50 1 84 1h66q28 2 64 4q60 2 182 12q10 92 11 159v26q0 50 -3 87q-4 52 -12 88 q-6 20 -18 48q-10 24 -27 59t-45 85q52 -8 93 -11t69 -5q32 -2 54 -2t58 2q30 2 74 3t108 5q-16 -28 -28 -58t-20 -54l-16 -56q-10 -42 -17 -122t-12 -178t-8 -204t-4 -200v-60q0 -58 1 -107q2 -73 8 -103q6 -36 20 -74q12 -34 32 -73t52 -73l-482 -36q30 28 48 55t28 47 q10 22 14 42q2 24 6 84q4 50 8 142t8 244q-28 0 -67 -1t-73 -3q-40 -2 -84 -2q-44 -2 -92 -4q-40 -4 -89 -7t-97 -7q-2 -42 -2 -79t2 -68q4 -63 12 -107q8 -52 20 -90q12 -36 26 -72q12 -32 29 -68t35 -64q-38 4 -70 7t-56 7q-28 2 -54 4q-26 0 -62 2q-32 2 -80 3t-112 1 q38 38 61 75t33 67q12 36 16 66q2 26 3 98q0 36 0.5 77t-0.5 88q-1 93 -3 196t-5 193t-6 155t-5 81q-10 36 -30 78q-18 34 -48 79t-82 91z" />
<glyph unicode="I" horiz-adv-x="644" d="M20 1378q68 -8 115 -11t77 -7q36 -4 56 -4q7 -1 17 -1q20 0 49 3q38 4 103 10t167 18q-46 -40 -73 -77t-41 -65q-18 -34 -22 -64q-8 -48 -13 -131t-9 -181t-4 -202t3 -197t12 -165t23 -104q20 -36 42 -72q20 -30 48 -62t64 -52q-118 6 -188 6h-72q-32 0 -82 -4 q-42 -4 -106 -8t-154 -12q46 50 72 96t42 80q18 40 24 76q8 52 13 129t7 166q1 59 1 120v62q-1 93 -5 179t-11 156t-17 112q-6 26 -24 58q-16 28 -43 65t-71 83z" />
<glyph unicode="J" horiz-adv-x="958" d="M-154 600q0 -4 31 -1t75 7t92 7q29 2 52 2q15 0 28 -1q26 0 68 -2q36 -2 92 -3t138 -5q-52 -16 -83 -35t-47 -35q-20 -20 -28 -40q-6 -18 -9 -73q-1 -13 -1 -26q0 -42 8 -87q10 -58 38 -106t88 -54q11 -1 21 -1q50 0 84 24q41 29 65 79t36 112t20 122q4 30 4 78v34 q-2 72 -10 156t-19 174t-21 166t-19 130t-11 68q-8 26 -22 54q-12 22 -33 50t-55 52q90 -12 152 -12q34 0 62 2t70 6q36 4 90 8t126 14q-26 -20 -40 -46t-22 -50q-8 -28 -12 -58q-1 -12 -1 -41v-33q1 -56 2 -136q1 -40 1 -84.5t-1 -93.5q-1 -98 -5 -199t-12 -200t-23 -182 t-38 -144t-55 -85q-66 -50 -144 -81t-154 -41q-40 -5 -78 -5q-33 0 -65 4q-67 9 -113 41q-30 22 -56 62t-47 89t-38 102t-30 98t-22 80t-13 47q-8 18 -26 36t-38 32t-35 21t-17 3z" />
<glyph unicode="K" horiz-adv-x="1314" d="M0 -12q44 26 70 56t42 58q18 32 24 62q4 26 7 112t4 201v78q0 80 -1 165q-2 128 -4 240t-5 191t-5 97q-6 28 -16 60q-10 28 -27 59t-43 61q68 -10 121 -14t89 -8q42 -4 72 -4h78q78 0 258 6q-44 -14 -73 -40t-47 -54q-22 -32 -32 -66q-12 -42 -22 -112q-10 -62 -19 -162 t-17 -250q86 98 151 174t113 134t81 100t55 72q52 68 60 92q2 14 -2 34q-4 16 -12 39t-24 51q80 -4 137 -6t95 -4q44 -2 72 -2h84q46 0 120 1t186 3q-74 -18 -140 -48t-118 -58q-60 -34 -112 -70q-52 -40 -116 -94q-54 -46 -126 -113t-156 -155q90 -176 157 -289t113 -181 q52 -80 88 -122q36 -38 84 -78q40 -34 100 -75t138 -79l-570 -28q12 16 15 39t3 43q0 22 -4 48q-8 32 -42 104q-28 62 -86 175t-160 299l-170 -178q-10 -64 -10 -116t4 -86q6 -42 16 -72q12 -30 34 -68q18 -34 48 -80t76 -102q-46 12 -92 17t-84 7q-15 1 -29 1q-28 0 -55 -3 q-42 -4 -98 -12q-48 -8 -118 -20t-160 -30z" />
<glyph unicode="L" horiz-adv-x="1140" d="M40 1450q58 -10 103 -14t75 -6q36 -2 62 -2t74 4q40 4 105 10t161 20q-28 -8 -51 -45t-41 -79q-22 -50 -38 -110q-14 -54 -35 -148t-40 -204t-29 -223q-6 -66 -6 -126q0 -42 3 -81q7 -94 37 -155t92 -65q50 -4 91 -4q36 0 66 3q63 7 103 21t62 33t34 37q32 46 66 118 t61 138t45 112t18 44q0 -4 -1 -45t-2 -98t-2 -119t-3 -106q-2 -36 -4 -80q-2 -38 -3 -90t-5 -114q-84 6 -160 8t-134 2q-68 0 -126 -2q-62 -2 -144 -6q-70 -4 -174 -9t-240 -13q16 28 27 52t17 40q8 20 10 34q12 64 20 163t13 211t6 229v76q0 74 -1 141q-2 100 -7 174 t-13 102q-10 32 -24 64q-12 28 -29 57t-39 51z" />
<glyph unicode="M" horiz-adv-x="1614" d="M-92 -20q44 28 72 55t44 49q20 26 30 52q6 16 11 70t10 132t8 174t6 195t5 194t3 172t1 129v66q-6 30 -18 60q-10 26 -32 54t-58 52q43 -1 78 -1h34q48 1 78 1h58q22 2 54 2h68t92 -2q16 -56 37 -109t37 -95q20 -50 40 -94t48 -106q24 -52 58 -127t80 -171q22 62 41 114 t33 90q16 44 26 80t22 88q10 44 23 106t27 144h104t80 2q38 0 68 2q32 0 86 4q46 4 123 7t191 9q-42 -30 -67 -59t-39 -51q-16 -26 -20 -50q-4 -20 -7 -92t-6 -171t-4 -211v-73q0 -72 1 -139q2 -100 7 -173t15 -93q14 -24 38 -56q22 -28 57 -64t93 -80q-92 -4 -153 -6 t-101 -4q-46 -2 -74 -2q-30 0 -82 -2q-46 -2 -122 -5t-196 -9q28 32 52 64t40 58q20 30 34 58q14 38 22 138q8 86 12 247q2 80 2 188.5t-2 244.5q-38 -62 -67 -123t-51 -111q-24 -58 -44 -112q-20 -56 -42 -124q-20 -58 -47 -138t-61 -176l-76 -4q-16 80 -32 145t-32 111 q-18 54 -36 96q-20 42 -44 94q-22 44 -53 104t-71 134q-20 -204 -24 -331q-2 -64 -2 -113t2 -84q4 -84 12 -122q12 -34 38 -76q22 -36 61 -85t101 -109h-92t-88 -2q-48 -2 -94 -2q-48 -2 -112 -6q-56 -4 -134 -8t-180 -14z" />
<glyph unicode="N" horiz-adv-x="1318" d="M-10 1418q90 -16 148 -22t94 -10q28 -3 48 -3q10 0 18 1h60q32 0 81 1t123 1q42 -98 77 -180t59 -140q28 -70 52 -126q28 -70 60 -154t59 -158t45 -122t18 -44q0 2 2 41t4 98t5 130t4 138t1 123t-4 84q-6 34 -24 78q-16 38 -44 91t-78 121q82 -2 134 -2h84q36 0 56 2 q26 0 64 4q34 4 85 7t127 9q-44 -40 -70 -76t-42 -64q-18 -32 -24 -60q-8 -36 -13 -117t-10 -181t-9 -208t-8 -198q0 -68 -4 -146q-4 -66 -8 -149t-10 -167l-178 -4q-78 138 -131 237t-87 163q-38 74 -64 124q-22 48 -58 110q-30 52 -75 128t-107 174q-5 -118 -5 -206v-29 q1 -97 5 -161q6 -74 14 -124q10 -48 28 -108q16 -52 39 -122t57 -158q-118 6 -176 6h-60q-28 0 -76 -6q-40 -4 -109 -12t-171 -22q48 58 77 107t45 83q20 40 28 70q6 32 8 111q1 53 1 115v65q-1 101 -4 213t-7 208t-9 164t-7 84q-6 26 -24 56q-16 26 -42 59t-72 73z" />
<glyph unicode="O" horiz-adv-x="1460" d="M45 823q9 97 38 194t82 188t135 160t193 108q101 35 230 36q13 0 27 -1q108 -4 219 -39t205 -112t160 -198t82 -295q3 -32 3 -63q0 -110 -38 -218q-49 -139 -135 -255t-198 -197t-224 -107q-38 -9 -79 -9q-34 0 -70 6q-81 13 -164 50t-162 95t-143 133t-107 163t-53 184 q-5 42 -5 89q0 42 4 88zM392 698q-8 -62 -8 -117q0 -135 49 -227q69 -130 209 -158q17 -3 33 -4q50 0 98 33q63 43 115 125t90 192t56 230q10 65 10 124q0 49 -7 93q-15 97 -51 166t-87 107t-105 42q-9 1 -18 1q-83 0 -146 -50q-70 -55 -118 -143t-77 -198t-43 -216z" />
<glyph unicode="P" horiz-adv-x="1194" d="M-72 1432q76 -18 137 -27t103 -13q38 -4 68 -4h20q48 2 120 14t152 24t158 20q45 5 83 4q29 0 53 -2q58 -6 122 -27t120 -56t97 -85t51 -116q3 -20 3 -41q0 -46 -15 -96q-22 -73 -70 -142t-120 -127t-160 -94q-70 -26 -152 -40q-70 -12 -163 -15h-22q-83 0 -175 19 q-14 -58 -15 -107q0 -10 -1 -19q0 -37 4 -68q6 -44 16 -80q12 -36 30 -84q16 -40 37 -97t51 -127q-36 0 -70 -1t-62 -3q-32 -2 -60 -4q-32 -2 -72 -8q-34 -4 -85 -12t-115 -20q42 60 67 111t37 89q14 44 18 80q1 20 1 60v46q-1 76 -3 176t-6 210t-10 207t-13 167t-13 92 q-8 26 -28 56q-16 26 -45 61t-73 79zM340 996q0 -42 6 -108q14 -34 35 -56t46 -34t51 -16t52 -4q60 2 126 28q88 38 124 108t38 144v10q0 68 -25 126q-27 62 -65 84q-28 12 -70 12h-12q-44 -2 -110 -22t-162 -72q-10 -36 -16 -64t-10 -50q-4 -24 -6 -44t-2 -42z" />
<glyph unicode="Q" horiz-adv-x="1440" d="M31 709q7 167 63 298t145 223t181 140q44 24 100 43t116 30t121 13h17q52 0 98 -10q158 -34 266 -130t167 -224t70 -275q3 -34 3 -68q0 -111 -28 -215q-12 -40 -40 -92q-24 -44 -66 -107t-110 -139q16 -36 33 -57t33 -31q18 -12 34 -16q16 -2 38 -2q18 0 43 3t55 11 l-312 -260q-6 32 -13 55t-11 39l-12 30q-8 10 -16 26q-8 12 -18 30t-26 40q-126 -48 -229 -62q-58 -8 -109 -8q-41 0 -78 5q-84 11 -150 40t-116 67q-116 90 -182 236q-68 183 -68 338q0 15 1 29zM365 957q-3 -40 -3 -76q0 -41 4 -77q6 -56 24 -118q16 -52 42 -120t72 -140 q34 52 74 74t76 32q34 6 68 6h18q42 -10 84 -34q36 -22 76 -61t74 -105q32 48 48 100t24 94q8 50 8 98q-4 74 -16 156t-35 162t-57 152t-81 124t-108 78q-42 18 -90 18q-23 0 -47 -4q-84 -12 -137 -68t-82 -131t-36 -160zM584 302q26 -26 49 -43t39 -27q20 -12 36 -20 q28 -10 56 -16q19 -3 42 -3h11q29 1 55 15q-20 42 -47 71t-51 45q-28 20 -58 30q-24 6 -45 6h-11q-22 -2 -44 -14t-32 -44z" />
<glyph unicode="R" horiz-adv-x="1270" d="M-72 8q52 54 82 92t46 64q18 28 22 48q4 32 7 115t5 191t2 226t-2 221t-4 177t-4 94q-6 36 -26 72q-16 32 -46 72t-82 80q64 -10 116 -17t90 -11q44 -6 78 -10q9 -1 21 -1q40 0 105 16q84 21 185 40t207 22h14q98 0 180 -39q88 -42 144 -84t89 -89t47 -99t16 -114 q-2 -92 -44 -178q-18 -36 -47 -75t-71 -75t-99 -68t-133 -56q74 -22 123 -52t79 -56q36 -32 54 -62q22 -42 30 -72t11 -57t9 -55t26 -64q16 -28 38 -58q20 -26 47 -56t67 -58q-56 -2 -103 -2h-81q-40 0 -76 2t-90 2h-117t-171 -2q44 34 72 68t44 62q18 32 26 62q6 30 6 61 q0 25 -4 51q-6 50 -32 111t-84 123q-58 -10 -97 -15t-67 -9q-32 -4 -52 -6q-18 -2 -40 -4q-18 -2 -39 -5t-39 -7q-2 -43 -2 -80.5t2 -68.5q4 -63 10 -105q8 -50 18 -86t28 -70q14 -28 36 -59t50 -51h-99t-85 2q-44 0 -84 2t-90 2h-99t-123 -2zM364 966v-39q0 -83 6 -203 q61 -10 110 -10q12 0 24 1q58 3 98 13q48 10 82 28q20 12 34 24t24 39t17 77t17 136q2 25 2 48q0 54 -13 94q-19 56 -50 89t-68 46t-65 13q-56 0 -110 -34t-82 -92q-10 -26 -18 -86q-6 -52 -8 -144z" />
<glyph unicode="S" horiz-adv-x="1286" d="M-82 480l582 94q-50 -40 -77 -74t-41 -60q-16 -30 -22 -56q-1 -4 -1 -9q0 -26 19 -61q22 -42 61 -81t91 -65q45 -23 93 -23q7 0 15 1q70 6 114 35t67 73t27 96q1 12 1 24q0 40 -10 79q-13 51 -41 96t-66 75q-34 24 -105 46t-158 48t-178 60t-164 84t-116 118 q-35 55 -35 129q0 17 2 35q8 82 53 137t114 88t154 49t174 19q30 1 59 1q59 0 117 -4q87 -6 157 -14t119 -15t61 -9q21 -2 42 -2l62 4q46 4 101 19t107 47q-28 -64 -50 -112t-38 -82q-18 -38 -30 -68q-10 -22 -26 -60q-16 -34 -39 -89t-59 -141q-18 74 -44 130t-56 98 t-63 69t-65 45q-74 40 -156 44q-108 -6 -169 -35t-89 -66t-30 -76v-11q0 -32 10 -54q10 -24 71 -56t148 -73t187 -92t185 -112t144 -132t65 -151q3 -44 3 -84q0 -53 -5 -100q-8 -82 -56 -140t-149 -92t-279 -42q-41 -2 -79 -2q-132 0 -223 22q-118 28 -191 76t-108 106 t-51 111t-22 92t-20 47q-16 10 -32 18q-14 8 -30 15t-32 13z" />
<glyph unicode="T" horiz-adv-x="1078" d="M-40 1460q134 -16 232 -23t162 -11q49 -3 88 -3q19 0 36 1q52 2 142 10q76 6 200 17t310 31q2 -46 3 -89t3 -75q2 -38 2 -70q0 -34 -4 -86q-4 -44 -13 -111t-27 -159q-28 108 -54 175t-48 107q-24 46 -48 70q-26 18 -62 30q-32 10 -81 16q-21 3 -45 3q-32 0 -70 -5 q-10 -264 -14 -428t-6 -256q-2 -110 -2 -158q2 -68 22 -134q16 -56 52 -116t104 -106h-244q-34 0 -84 -4q-42 -4 -107 -8t-151 -14q30 52 48 94t28 72q12 36 18 64q2 40 10 162q2 50 5 124t8 176t10 235t11 301q-17 5 -33 5q-18 0 -35 -6q-32 -11 -56 -27q-28 -20 -54 -48 q-26 -34 -58 -88q-28 -46 -64 -121t-82 -185q-10 116 -14 191t-6 117q-2 50 -2 74q0 22 -4 58q-4 30 -10 79t-16 119z" />
<glyph unicode="U" horiz-adv-x="1270" d="M0 1406q60 -12 102 -18l70 -10q32 -4 54 -4t60 2q34 2 86 3t132 5q-46 -32 -74 -54t-42 -38q-18 -18 -22 -30q-4 -8 -8 -59t-7 -128q-2 -46 -1 -99v-73q2 -95 11 -193t27 -189t49 -159t76 -106q36 -30 83 -30q13 0 26 2q84 12 136 82t79 170t34 215q4 67 4 129 q0 45 -2 87q-5 101 -17 175t-22 92q-12 20 -32 46q-16 22 -42 51t-60 63q62 -2 112 -3t84 -3q40 -2 72 -4t80 -6q40 -4 103 -8t151 -12q-34 -8 -55 -22t-33 -30q-14 -18 -20 -36q-6 -16 -9 -95t-8 -190t-15 -240t-31 -245t-54 -206t-85 -124q-76 -50 -160 -71t-170 -22h-11 q-80 0 -158 14q-83 15 -159 37q-78 24 -129 108t-80 199t-42 248t-16 257q-2 62 -1.5 118t1.5 107q3 101 5 153q0 26 -8 50q-6 22 -21 47t-43 47z" />
<glyph unicode="V" horiz-adv-x="980" d="M-194 1436q134 -6 208 -6h74q32 0 80 2q40 2 102 3t148 5q-40 -28 -64 -54t-38 -46q-16 -24 -22 -44q-12 -43 -12 -111q0 -15 1 -30q3 -89 17 -192t34 -209t41 -192t38 -141t25 -55t31 58t53 147t62 194t59 200t45 164t18 85q-2 22 -14 46q-10 22 -35 51t-69 67 q62 2 107 4t77 2h62h320q-50 -34 -85 -66t-57 -60q-26 -32 -44 -60q-20 -42 -66 -182q-20 -60 -46 -146t-62 -206t-80 -277t-100 -357l-278 -36q-50 156 -87 285t-65 221q-32 108 -54 194q-30 104 -51 211t-36 194t-27 145t-26 68q-12 10 -36 26q-22 14 -57 37t-91 61z" />
<glyph unicode="W" horiz-adv-x="1586" d="M-144 1406q66 -8 119 -12t91 -8q44 -4 78 -6q36 0 92 2q48 2 122 6t182 14q-52 -30 -85 -60t-51 -54q-22 -28 -32 -56q-2 -14 -2 -39q0 -41 6 -109q4 -46 13 -113t24 -158t38 -209t53 -268q40 114 66 203t44 153q20 72 34 128q14 58 34 150q16 78 42 202t64 306l72 -10 q10 -142 21 -250t19 -184q8 -88 16 -152q8 -58 24 -134q14 -64 36 -157t58 -209q36 142 65 254t50 198t36 148t25 104q22 100 26 134q-2 38 -18 74q-14 32 -44 70t-88 74q122 -4 199 -5t123 -1h80h72q40 0 105 1t167 5q-88 -46 -142 -84t-84 -64q-36 -32 -52 -54 q-16 -40 -52 -180q-16 -60 -36 -149t-47 -213t-61 -289t-76 -377l-346 36l-148 622q-34 -170 -54 -275t-30 -163q-12 -70 -14 -102q-2 -28 -4 -54q-2 -22 -5 -48t-7 -48h-354q-52 228 -93 403t-73 307t-55 224t-41 154q-40 144 -58 178q-14 16 -36 38l-45 45t-63 61z" />
<glyph unicode="X" horiz-adv-x="1170" d="M-174 1358q88 -4 150 -6t102 -4q48 -2 78 -4q32 -2 80 -2q82 0 232 12q-32 -16 -50 -35t-28 -37q-12 -22 -18 -42q-1 -4 -1 -8q0 -24 19 -66q16 -42 58 -114t124 -186q98 144 152 226t80 124q30 50 36 66q-2 10 -16 28q-12 16 -39 39t-79 57q82 -12 137 -18t89 -8 q20 -1 36.5 -1t29.5 1q26 2 76 4q42 2 113 4t183 6q-44 -22 -76 -42t-54 -36q-26 -20 -46 -34q-24 -24 -88 -98q-54 -64 -154 -187t-268 -333q136 -144 220 -228t132 -128q56 -52 82 -70q24 -14 66 -36q36 -20 94 -49t148 -69h-334q-42 0 -102 -4q-52 -4 -128 -8t-178 -14 q36 22 53 43t23 37q8 18 2 32q-10 20 -34 60q-22 34 -62 96t-110 164q-80 -86 -123 -143t-65 -91q-24 -40 -32 -64q0 -22 10 -44q10 -20 33 -44t69 -46l-592 -26q72 50 120 91t78 69q34 34 54 60q20 30 62 88q34 50 95 134t157 216q-106 170 -171 270t-105 154 q-46 62 -68 86q-20 18 -56 40q-30 20 -78 49t-118 69z" />
<glyph unicode="Y" horiz-adv-x="1094" d="M-286 1420q86 -8 152 -12t110 -8q52 -4 88 -6t88 -2q44 -2 110 -2h156q-58 -28 -89 -52t-47 -42q-20 -22 -24 -40q-2 -16 8 -54t28 -85t44 -99t55 -93t59 -67q28 -24 54 -24h4q28 2 68 27t83 63t85 82t75 86t54 77t21 51q-2 20 -16 46q-12 22 -40 53t-78 71 q164 -6 240 -6h74h84q46 0 122 1t190 5q-78 -52 -135 -93t-97 -69q-46 -34 -76 -60q-34 -28 -94 -88q-52 -52 -138 -139t-216 -225q-18 -146 -23 -236t-5 -142q0 -60 8 -90q10 -24 34 -56q20 -28 57 -66t99 -84q-66 16 -123 24t-101 12q-52 6 -94 6q-44 0 -104 -4 q-52 -4 -124 -10t-168 -18q50 34 82 68t50 62q22 32 32 60q8 32 12 92q2 30 2 71q0 30 -1 67q-3 86 -13 218q-120 192 -196 303t-118 169q-50 66 -72 88q-20 16 -54 40q-28 22 -73 53t-109 77z" />
<glyph unicode="Z" horiz-adv-x="1246" d="M10 1396q82 -10 167 -14t155 -4q82 0 160 4q80 2 168 8q76 4 172 10t200 12l12 -174q0 -18 2 -46q0 -24 1 -60t3 -84q-72 -62 -129 -117t-97 -97q-48 -50 -84 -92q-46 -54 -98 -131t-97 -150t-73 -130q-24 -50 -24 -67v-4q2 -10 40 -11h16q33 0 77 3q55 4 122 13t126 20 t105 23t60 24q18 16 40 58q20 36 45 101t57 175q2 -82 3 -140t5 -98q2 -46 6 -76q2 -32 8 -72q4 -34 10 -86t16 -116q-144 18 -242 25t-158 9q-35 1 -63 1t-49 -1q-44 -6 -120 -18q-64 -10 -170 -31t-266 -55q-4 38 -8 66t-8 50t-8 42q-4 18 -10 50q-4 28 -13 69t-21 103 q120 124 199 209t127 139q56 64 88 102q30 38 78 92q40 46 104 115t154 165q-46 2 -89 2t-82 -2q-79 -4 -137 -12q-68 -8 -126 -22q-54 -16 -110 -52q-48 -30 -104 -84t-106 -140q-4 66 -6 112t-4 76q-2 34 -4 56q0 22 -4 58q-4 30 -8 77t-8 117z" />
<glyph unicode="[" horiz-adv-x="526" d="M143 1270q-1 180 1 422q28 10 56 19t50 13q24 6 48 8q22 2 50 6q24 4 57 8t73 8l28 -260l-196 6q-6 -172 -8 -312t-4 -242q-2 -120 0 -214q0 -94 4 -212q4 -102 8 -240t14 -306l146 20l-14 -246q-34 -4 -60 -2t-46 4q-22 2 -40 6t-40 10q-20 4 -46 12t-60 20 q-4 230 -7 404t-5 292q-2 138 -4 236q0 100 -2 240q-2 120 -3 300z" />
<glyph unicode="\" horiz-adv-x="960" d="M-10 1502q22 4 41 5t35 3q18 2 34 2h148q84 -200 151 -353t113 -259q54 -124 96 -214q26 -56 74 -152q40 -84 110 -218t178 -340q-28 8 -52 12t-44 8q-22 4 -42 4q-18 0 -38 2q-16 2 -34 3t-34 1q-102 228 -174 386t-118 258q-52 116 -86 188q-34 68 -86 166 q-44 84 -111 208t-161 290z" />
<glyph unicode="]" horiz-adv-x="578" d="M20 4l196 -10q8 170 13 311t9 243q4 120 6 214t0 212q-2 102 -5 240t-9 308l-146 -18l18 244q32 2 59 1t47 -3q22 -2 40 -6t40 -12q20 -6 46 -14t60 -20v-932q0 -100 -2 -240q-2 -236 -12 -722q-30 -10 -58 -18t-50 -12q-26 -6 -48 -8q-24 -2 -52 -6q-24 -4 -56 -6 t-72 -6z" />
<glyph unicode="^" horiz-adv-x="1156" d="M20 800q78 104 133 174t89 112q40 50 68 78q24 28 56 72q28 38 67 97t87 145h162q48 -102 84 -170t60 -110q28 -50 48 -78t56 -74q30 -40 80 -103t126 -155h-248q-44 64 -70 111t-42 75q-18 34 -26 54t-24 56q-14 30 -39 77t-65 117q-52 -60 -84 -100t-52 -66 q-22 -30 -34 -46q-10 -18 -32 -52q-18 -28 -47 -78t-73 -126z" />
<glyph unicode="_" horiz-adv-x="1850" d="M0 172q260 -10 430 -15t272 -7q120 -2 184 -2q66 2 194 8q108 4 295 14t475 26q-16 -50 -20 -80q-2 -16 -2 -28q0 -16 2 -36q4 -38 20 -80q-230 12 -395 17t-273 7q-126 2 -210 0q-84 -6 -218 -14q-114 -8 -292 -23t-434 -39z" />
<glyph unicode="`" horiz-adv-x="1464" d="M590 1524l142 78l142 -274l-94 -56z" />
<glyph unicode="a" horiz-adv-x="1100" d="M67 299q-6 27 -6 58q0 33 7 69q14 70 50 118t86 78t112 46t128 22h21l83 -6q44 -8 92 -29t82 -63q-2 106 -7 169t-9 97q-8 40 -14 56q-10 14 -21 32t-27 33t-40 25t-56 8q-34 -2 -54 -18t-31 -37t-13 -45t2 -42q4 -12 12 -26q8 -12 22 -26t38 -24q-46 -6 -82 -9t-62 -7 q-30 -4 -52 -6t-52 -8q-26 -4 -64 -10t-88 -16q12 14 22 27t18 23q8 12 16 22q10 12 13 45t16 75t45 88t104 86q70 40 136 48q24 3 47 3q41 0 79 -9q60 -14 113 -44t97 -66q30 -24 48 -69t28 -101t15 -117t7 -118t3 -104t7 -77q8 -44 28 -75t44 -52t48 -33t42 -18 q12 -6 22 -8q20 -8 28 0q-12 -28 -22 -48t-16 -34q-8 -16 -14 -26q-6 -12 -14 -22q-6 -10 -16 -22t-20 -26q-26 10 -49 24t-41 26q-22 14 -40 28t-34 32q-14 16 -29 34t-25 40q-12 -26 -57 -74t-117 -87t-167 -55q-28 -5 -58 -5q-71 0 -151 27q-50 16 -94 47t-75 75t-44 101 zM278 374q0 -42 21 -73t56 -51t76 -24q10 -1 20 -1q31 0 61 9q38 14 72 45t58 68t34 74q6 21 6 37q0 13 -4 24q-16 52 -72 73q-47 18 -104 18q-11 0 -22 -1q-36 -2 -72 -17t-64 -42t-47 -62t-19 -77z" />
<glyph unicode="b" horiz-adv-x="1192" d="M30 1404q46 -12 85 -17t67 -7q34 -2 62 -2t70 4q74 6 210 30q-22 -16 -41 -31t-33 -29l-30 -30q-26 -36 -52 -122q-22 -74 -47 -208t-45 -356q98 96 185 145t153 71q78 24 142 26q82 -6 143 -33t104 -64t70 -76t41 -69q8 -20 13 -73q3 -29 3 -64q0 -27 -2 -57 q-4 -68 -21 -143t-54 -138t-96 -105t-147 -46q-102 0 -198 24q-82 20 -173 71t-155 147v-47t2 -39q2 -22 4 -38q2 -18 10 -38q6 -16 19 -39t35 -45q-22 2 -44 3t-44 -1l-48 -4t-50 -6q-22 -4 -52 -10t-62 -14q6 18 10 53t9 78t8 91t7 96q8 110 14 240q4 121 4 232 q0 74 -2 144q-2 74 -7 150t-13 143t-21 120t-33 83zM290 430q32 -58 68 -99t72 -69t71 -44t67 -24q41 -11 82 -11q32 0 64 7q72 20 112 80t62 136q10 36 13 92q1 9 1 19q0 46 -13 90q-15 53 -53 94t-110 49q-50 0 -116 -28q-58 -24 -138 -79t-182 -163v-50z" />
<glyph unicode="c" horiz-adv-x="1088" d="M42 659q4 77 36 155t102 150q106 108 227 141q83 23 160 22q35 0 69 -4q108 -15 192 -63t118 -104t51 -85t26 -44t16 -22t21 -19q10 -10 24 -22q12 -10 28 -24t36 -30q-24 4 -59 6t-67 2q-36 0 -76 -2l-84 -4q-36 -2 -81 -5t-87 -7q16 8 29 22t23 28q10 16 18 34 q5 14 5 30q0 20 -7 43q-12 43 -43 79t-78 57q-30 13 -63 13q-19 0 -40 -4q-60 -14 -107 -42t-78 -77t-44 -120q-9 -49 -9 -110q0 -28 2 -59q8 -122 40 -194t78 -108t101 -43q30 -4 59 -4q25 0 50 3q38 8 70 34q26 22 48 64q20 38 20 104v12l244 10q-42 -118 -102 -187 t-116 -107q-66 -44 -132 -60q-68 -12 -123 -12q-12 0 -23 1q-64 3 -116 19t-96 40t-84 52q-26 18 -58 60t-60 101t-46 131q-15 59 -15 121q0 14 1 28z" />
<glyph unicode="d" horiz-adv-x="1212" d="M84 552q4 80 36 143t81 110t108 80t116 55t107 32t80 14h9q33 0 73 -12t93 -40t119 -84q-12 200 -22 321t-20 185q-10 76 -18 104q-10 20 -26 40q-14 16 -35 33t-49 27q52 -10 100 -14t88 -8q46 -4 88 -6q38 -2 82 -2q38 0 87 -1h20q40 0 83 3q-48 -22 -84 -64t-58 -84 q-28 -50 -46 -104q-10 -32 -16 -113t-9 -189t-3 -228t2 -229t6 -193t10 -118q8 -40 20 -76q10 -32 26 -65t40 -53l-204 -92q-16 22 -26 45t-16 41q-8 22 -10 40q-4 24 -8 53t-9 56t-7 45t0 22t-24 -35t-77 -90t-125 -98t-166 -59q-19 -2 -37 -2q-73 0 -136 38 q-79 48 -135 135t-85 202q-24 95 -24 194q0 20 1 41zM386 306q0 -12 5 -43t23 -64t51 -59t89 -26q46 4 98 32q46 24 105 77t127 153q-4 64 -5 106t-3 68q-2 30 -2 48v30v26t2 26q-56 40 -99 69t-84 44q-38 14 -79 14h-5q-43 -1 -99 -21q-38 -14 -61 -48t-37 -81t-19 -100 t-6 -102t-1 -89v-60z" />
<glyph unicode="e" horiz-adv-x="1132" d="M52 612v6q0 61 38 128q40 70 113 128t177 95t228 37q72 0 133 -17t112 -45t89 -63t64 -71q26 -38 44 -80q16 -36 26 -82q7 -33 7 -67q0 -14 -1 -27q-152 -4 -245 -6t-145 -2h-90h-68q-36 0 -94 -2t-142 -6q10 -80 51 -123t87 -65q52 -24 114 -28q56 0 104 12q40 10 77 33 t49 69q40 -8 68 -13t48 -9q22 -6 38 -8q16 -4 38 -8q20 -4 49 -9t69 -13q-30 4 -61 -6t-59 -22q-32 -14 -60 -34q-18 -12 -41 -36t-65 -46t-111 -37q-54 -12 -133 -12q-21 0 -44 1q-130 4 -218 47t-142 106t-78 137t-26 138zM370 682q64 -4 107 -6t71 -4q30 -2 48 -2h50 q50 0 186 6q-6 88 -37 134t-65 68q-40 24 -88 28q-130 -2 -193 -54t-79 -170z" />
<glyph unicode="f" horiz-adv-x="702" d="M10 740q4 16 5 33t3 31q2 16 2 30v30q0 14 1 30t3 32l158 -4q-8 72 -8 132v23q2 69 6 119q6 58 16 102q14 54 38 100t66 78t104 49t150 17q100 -2 158 -25t86 -58t32 -79q2 -20 2 -39q0 -23 -3 -46q-5 -41 -14 -75t-7 -50q2 -12 10 -32q6 -16 19 -40t39 -54q-32 4 -64 7 t-60 5q-32 2 -62 2q-30 -2 -62 -4q-28 -4 -60 -7t-60 -13q40 28 62 58t34 54q14 28 18 56q1 10 1 20q0 26 -4 57q-5 43 -19 79t-34 59t-48 17q-42 -16 -78 -78q-30 -52 -58 -157t-36 -291q38 -4 71 -5t59 -3q30 -2 56 -2t58 2q28 2 66 3t84 5l-4 -104q-36 -4 -70 -6t-60 -4 q-30 -2 -56 -4q-28 -2 -58 -4q-26 -2 -59 -6t-69 -8q28 -226 49 -365t37 -215q16 -90 28 -128q12 -32 28 -56q14 -22 34 -42t46 -26q-64 10 -110 15t-78 7q-36 2 -62 2q-24 -2 -58 -6q-58 -6 -160 -30q40 28 64 74t36 90q14 52 18 108q0 34 -4 108q-4 62 -12 171t-24 283 q-22 -2 -38 -3t-26 -1h-22q-10 0 -24 -2q-12 -2 -31 -6t-45 -10z" />
<glyph unicode="g" horiz-adv-x="1296" d="M42 566q6 86 53 172t124 154t177 108q87 35 180 35q14 0 28 -1q82 -8 154 -30q62 -20 123 -56t93 -100q-6 40 -10 67t-8 43l-6 30q-4 10 -10 22q-4 10 -13 24t-21 32q26 -8 53 -10t51 -4q26 -2 54 0q28 0 64 2q32 2 77 3t103 5q-34 -8 -57 -27t-39 -41q-18 -24 -30 -52 q-10 -26 -12 -99q-1 -37 -1 -80t1 -92q2 -99 5 -213t4 -218v-67q0 -65 -1 -122q-2 -85 -10 -125q-28 -126 -104 -205t-200 -85q-22 -1 -44 -1q-119 0 -193 29q-87 34 -135 83t-72 99t-50 76q-24 22 -48 42q-22 16 -45 32t-45 20q58 -2 104 -2h78q36 0 64 2h64h182 q-40 -12 -60 -27t-28 -31q-8 -18 -8 -36q8 -48 52 -70t120 -26q27 -1 48 -1q36 0 54 4q28 7 44 25q32 48 54 124q16 64 23 167q1 22 1 46q0 89 -20 207q-64 -88 -148 -132t-160 -64q-90 -22 -182 -22q-242 10 -362 112q-111 94 -111 248q0 13 1 26zM338 648q-4 -27 -4 -52 q0 -49 15 -94q23 -68 65 -117t94 -76q48 -25 92 -25h6q96 2 166 87t84 255q1 15 1 30q0 65 -22 115q-27 61 -67 99t-84 54q-39 14 -64 14h-6q-36 -4 -79 -21t-83 -50t-71 -87t-43 -132z" />
<glyph unicode="h" horiz-adv-x="1140" d="M20 1516q46 -8 84 -11t64 -5q30 -2 52 -2q30 2 70 6q34 4 83 10t113 16q-30 -16 -50 -31t-32 -31q-14 -18 -22 -34q-10 -26 -22 -108q-12 -70 -29 -208t-43 -374q72 72 137 109t115 53q58 18 108 18q62 -6 127 -39t122 -77t100 -94t61 -88q12 -26 12 -67t-8 -89t-22 -98 t-27 -94t-23 -77t-12 -47q-4 -30 4 -58q6 -24 24 -51t54 -45q-28 4 -59 7t-59 5q-32 2 -64 2h-72q-34 0 -78 -1t-96 -3q28 10 48 27t34 33q16 18 28 38q8 16 20 61t22 104t15 125q3 41 3 81q0 24 -1 46q-3 61 -18 109t-45 70q-89 67 -161 67h-2q-73 -1 -139 -59 q-24 -22 -46 -44q-20 -20 -44 -47t-44 -55q0 -30 2 -66t4 -70q2 -38 6 -76q4 -58 12 -114q6 -48 16 -105t26 -103q-26 4 -54 3t-54 -1q-30 -2 -58 -2q-26 -2 -54 -6q-24 -4 -52 -7t-54 -9q24 46 40 91t26 79q12 40 20 78q6 30 9 115t5 196t2 235t-2 236t-7 196t-11 116 q-8 32 -22 64q-12 28 -32 55t-50 45z" />
<glyph unicode="i" horiz-adv-x="490" d="M30 894l368 -4q-32 -122 -47 -208t-19 -144q-5 -44 -5 -79q0 -18 1 -33q6 -42 20 -90q12 -40 36 -92t64 -104q-24 8 -52 12t-52 6q-28 2 -56 0t-62 -6q-28 -4 -68 -10t-84 -16q30 90 47 156t25 110q8 52 10 84v91v99t-2 85t-8 47l-20 20q-12 10 -35 29t-61 47zM106 1129 q12 43 66 73q29 15 58 15q13 0 27 -3q43 -10 67 -38q19 -22 18 -49q0 -8 -1 -17q-7 -38 -65 -74q-45 -26 -81 -26q-11 0 -21 2q-44 10 -62 42q-11 19 -11 42q0 16 5 33z" />
<glyph unicode="j" horiz-adv-x="486" d="M-460 -64q48 4 84 6t58 2h46q22 -2 56 -2h73t109 4q-22 -12 -37 -23t-25 -19q-10 -10 -16 -18q-6 -10 -8 -51v-17q0 -33 6 -69q8 -45 28 -79q19 -32 54 -32h4q38 2 66 37t49 110t34 197t19 300q6 220 8 354v26q0 117 -16 196q-8 24 -18 50q-10 22 -25 48t-39 52 q92 -20 144 -22q32 -4 58 -2q26 -2 60 2q28 2 70 7t94 15q-24 -16 -43 -36t-31 -38q-16 -22 -26 -44q-10 -20 -15 -94t-8 -178t-6 -225t-7 -232t-12 -200t-20 -129q-18 -62 -41 -123t-60 -107t-94 -70q-38 -16 -90 -16q-26 0 -55 4q-88 14 -143 61t-89 101t-52 103t-34 65 q-14 12 -30 26q-16 12 -35 28t-45 32zM154 1271q8 47 62 81q30 18 60 18q12 0 25 -3q43 -11 66 -44q18 -26 18 -59q0 -9 -1 -18q-6 -44 -58 -82q-38 -27 -72 -27q-11 0 -22 3q-44 12 -65 48q-15 26 -15 58q0 12 2 25z" />
<glyph unicode="k" horiz-adv-x="934" d="M10 1442q22 -10 53 -14t59 -4q34 0 70 2t88 8q42 4 104 10t138 16q-28 -14 -48 -30t-34 -32q-16 -18 -26 -36q-14 -24 -37 -83t-46 -131t-40 -146t-19 -126q-2 -44 -4 -100q-2 -48 -4 -118t-4 -160q144 104 222 167t114 97q42 38 50 54q-2 12 -10 26q-10 12 -28 28 t-54 36q52 -6 91 -8t67 -4q32 -2 56 0q26 0 64 2q66 2 204 6q-134 -70 -212 -120q-44 -28 -78 -52q-34 -26 -70 -54q-32 -24 -73 -56t-81 -68q70 -114 123 -188t89 -120q42 -54 74 -86q32 -30 84 -68q44 -34 115 -79t173 -103q-52 10 -100 13q-29 2 -53 2q-16 0 -29 -1 q-42 -2 -76 -8q-36 -8 -80 -20q-38 -10 -89 -27t-111 -45q38 28 57 53t27 41q8 20 6 34q-10 20 -46 82q-34 52 -100 152t-188 272q-6 -2 -20 -12q-12 -10 -36 -27t-64 -49l54 -350q-18 -8 -39 -14t-39 -10q-22 -6 -44 -8t-52 -8q-26 -4 -62 -11t-82 -17q26 18 42 41t26 43 q10 22 18 46q4 20 9 104t9 201t7 251t3 253t-2 208t-8 115q-10 32 -24 68q-12 32 -33 73t-51 89z" />
<glyph unicode="l" horiz-adv-x="452" d="M10 1416q102 26 156 42q32 8 56 16l44 16q18 8 40 19t40 25q-10 -58 -16 -112t-10 -100q-4 -52 -4 -100q-10 -98 -11 -213v-77q0 -77 1 -156q2 -118 8 -230t13 -203t14 -154t11 -81q8 -30 16 -58q8 -24 18 -51t24 -43h-194q-26 0 -50 -2q-22 -2 -46 -4t-44 -6 q20 30 32 56t20 44q8 22 12 40q2 12 2 70t-3 146t-6 198t-8 224t-10 222t-9 195t-8 143t-6 64q-4 12 -14 24q-20 24 -68 46z" />
<glyph unicode="m" horiz-adv-x="1768" d="M20 948q46 4 79 8t55 8q26 4 44 8q18 2 40 8q20 4 45 11t55 17l-12 -254q44 70 102 107t110 55q62 22 124 26q64 -2 118 -20q46 -16 93 -50t73 -100q68 70 135 109t119 59q62 22 116 26h10q66 0 123 -24q61 -26 107 -65t74 -82t32 -75q2 -15 2 -32q0 -35 -8 -81 q-12 -69 -28 -140t-29 -130q-11 -51 -11 -76v-7q6 -20 28 -48q20 -24 59 -59t113 -81q-64 2 -113 4t-83 6q-40 4 -70 6q-24 0 -58 4q-28 2 -73 6t-103 8q22 6 36 23t24 33q10 20 16 44q4 20 8 64t7 100t4 118v41q0 40 -1 77q-2 56 -8 102t-16 70q-8 18 -28 29t-46 14t-52 -2 t-46 -17q-18 -14 -48 -38q-26 -22 -68 -60t-106 -96q-6 -126 -9 -203t-5 -117q-2 -48 -2 -66q-2 -16 2 -30q4 -30 24 -56q-24 6 -51 8t-49 4q-26 2 -52 2q-22 0 -48 -2q-22 -2 -54 -5t-70 -7q16 10 26 24t16 26q8 14 12 26q2 12 8 59t8 111q1 32 1 66t-1 69q-2 71 -14 130 t-37 97q-23 34 -58 34h-7q-48 -4 -98 -24q-42 -16 -90 -48t-90 -86q-8 -150 -9 -238v-54q0 -49 1 -80q2 -54 4 -74q2 -14 10 -28q6 -12 15 -28t21 -30l-318 16q16 8 28 21t20 27l16 32q6 14 11 66t9 123t7 150t4 148t1 118t-2 59q-6 20 -22 42q-14 16 -38 35t-64 29z" />
<glyph unicode="n" horiz-adv-x="1200" d="M0 902q46 10 79 17t55 13l42 14q16 6 38 12q18 4 44 10t60 14l-6 -182q64 76 130 114t124 54q66 20 130 20q80 -4 149 -26t120 -51t83 -61t38 -56q16 -52 16 -98q0 -23 -4 -45q-12 -65 -31 -126t-32 -121q-5 -22 -5 -46q0 -40 14 -84l16 -36q8 -16 20 -32t28 -26 q-22 2 -44 3t-40 3q-22 2 -40 4q-20 2 -54 2q-58 0 -180 -6q18 42 29 71t19 47q8 22 12 34q24 58 29 132q1 18 1 35q0 57 -12 115q-6 26 -20 62t-37 70t-54 58t-71 28q-6 1 -12 1q-35 0 -77 -21q-49 -24 -105 -88q-42 -54 -66 -132q-22 -66 -30 -165q-2 -20 -2 -41 q0 -84 26 -190q-28 4 -52 5t-40 3q-20 2 -36 4q-18 0 -40 2q-20 0 -50 1t-70 3q14 66 21 117t11 85q4 40 4 68q-2 34 -3 81t-4 94t-7 84t-10 53q-8 16 -22 34q-28 34 -82 66z" />
<glyph unicode="o" horiz-adv-x="1090" d="M66 554q8 90 59 166t156 126t285 50q52 0 108 -19t108 -48t95 -62t71 -63q50 -54 69 -145q12 -56 11 -113q0 -36 -4 -73q-12 -95 -56 -179t-122 -124q-56 -28 -110 -44t-104 -24t-94 -8t-76 2q-60 4 -125 42t-122 94t-97 123t-48 127q-7 49 -7 101q0 35 3 71zM323 376 q5 -62 25 -117t57 -94t95 -45q5 -1 10 -1q20 0 50 12q38 15 75 49t66 87t35 129q3 40 3 77q0 31 -2 59q-5 62 -19 109t-32 77t-38 42q-34 18 -82 29q-20 4 -37 4q-25 0 -45 -9q-16 -8 -40 -34t-48 -65t-43 -89t-27 -104q-5 -33 -5 -69q0 -23 2 -47z" />
<glyph unicode="p" horiz-adv-x="1332" d="M-30 932q64 10 105 17t67 11q30 6 46 10t46 12q26 8 68 19t106 31q-16 -20 -25 -35t-17 -25q-8 -12 -14 -22t-12 -30q-4 -16 -10 -45t-10 -75q108 68 199 102t159 48q64 13 118 13q13 0 26 -1q80 -6 149 -35t125 -69t98 -88t66 -96q16 -32 21 -92q1 -13 1 -26 q0 -49 -14 -102q-18 -68 -63 -133t-127 -103q-142 -64 -282 -72q-20 -1 -40 -1q-41 0 -83 5q-63 8 -126 34t-121 75t-106 127q-16 -102 -23 -177t-9 -125q-1 -29 -1 -53.5t1 -44.5q4 -40 16 -86q10 -40 29 -93t49 -111q-12 4 -33 5t-43 -3q-24 -4 -54 -8q-28 -6 -62 -14 q-28 -6 -65 -15t-75 -21q22 26 35 59t21 61q8 34 14 68q2 30 7 113t9 192t7 229t4 223v65q0 62 -1 110q-2 72 -8 84q-8 14 -30 30q-18 14 -51 28t-87 30zM440 478q8 -44 41 -82t94 -67t153 -43q40 -6 72 -6q41 0 68 10q48 18 71 57t31 92t20 111q5 24 5 49q0 32 -9 66 q-16 59 -45 107t-64 79t-61 31q-62 0 -122 -32t-110 -80t-87 -103t-51 -99q-9 -29 -9 -58q0 -16 3 -32z" />
<glyph unicode="q" horiz-adv-x="1188" d="M45 631q-3 31 -3 61q0 65 13 129q19 95 89 161q68 66 120 100t96 47q36 11 68 11q7 0 14 -1q38 -3 80 -9q70 -12 136 -34q58 -20 122 -52t116 -84q-2 28 -2 48t-2 32q-2 14 -2 22q-2 8 -4 18q-4 10 -7 20t-7 26q22 -4 42 -6t36 -4q18 -2 32 -2h34h39t55 2 q-10 -10 -17 -43t-12 -80t-9 -103t-6 -112q-6 -134 -6 -298q-12 -146 -14 -245q-1 -49 -1 -90.5t1 -74.5q2 -66 9 -104t15 -59t17 -32t15 -21q8 -12 22 -30q12 -16 32 -36t52 -46q-34 4 -69 5t-63 1q-34 0 -64 -2q-34 -2 -80 -8q-40 -4 -98 -13t-136 -25q38 28 63 56t41 50 q18 24 28 48q8 30 14 106q4 64 6 185q1 40 1 90q0 99 -3 235q-50 -76 -104 -118t-100 -64q-54 -26 -108 -34q-45 -4 -86 -4q-87 0 -161 17q-109 25 -157 85q-24 30 -51 107t-36 172zM329 690q7 -60 22 -112t32 -89t27 -47q28 -28 55 -34q20 -4 49 -4h20q30 6 76 32 q40 22 98 70t140 138l-6 160q-14 12 -41 49t-73 70t-112 50q-26 7 -56 7q-46 0 -102 -16q-60 -18 -90 -61t-38 -98q-4 -29 -4 -60q0 -27 3 -55z" />
<glyph unicode="r" horiz-adv-x="980" d="M10 958q25 -1 48 -1h21q31 1 53 3q26 2 46 4q30 4 62 10q28 4 59 11t61 17q-12 -30 -20 -52t-12 -38q-6 -18 -6 -30q-2 -14 -2 -34q-1 -17 -1 -44.5t1 -65.5q104 90 175 140t113 78q50 32 78 42q15 2 30 2q56 0 100 -36q24 -20 46 -53t38 -87t24 -129q5 -43 5 -95 q0 -39 -3 -84q-42 -4 -75 -8t-55 -6q-26 -4 -48 -4l-54 -6q-28 -4 -69 -7t-99 -9q84 68 109 119q22 44 22 75q0 5 -1 10q-4 38 -36 66q-30 17 -63 17q-9 0 -19 -1q-38 -4 -88 -34t-106 -112q4 -128 9 -212t9 -136q6 -60 10 -94q6 -30 24 -64q14 -28 40 -62t68 -68 q-44 2 -80 2t-64 -2q-34 -2 -60 -4q-28 -4 -60 -8q-28 -4 -65 -9t-81 -11q16 22 26 51t16 55q8 30 12 62q2 28 3 84v29q0 45 -2 98q-3 71 -7 148t-10 145t-13 119t-15 71q-10 24 -24 48q-12 22 -30 47t-40 53z" />
<glyph unicode="s" horiz-adv-x="954" d="M40 82q0 4 7 24t16 49t18 64t13 67q4 26 10 64q4 34 11 83l17 119q10 -52 29 -90t37 -66q22 -32 42 -54q30 -28 71 -52t83 -41t80 -21q10 -1 18 -1q26 0 46 9q26 12 45 44t27 70q6 30 6 59v14q-2 35 -18 57q-12 14 -55 36t-102 48t-124 54t-122 57t-94 56t-41 49 q-4 32 -6 71v17q0 30 5 61q7 39 28 75t63 60q28 16 74 24t102 9h19q47 0 97 -4q60 -5 115 -12t100 -17t69 -18q28 -10 60 -2q28 6 60 26t66 72q-18 -44 -31 -80t-23 -64q-10 -32 -18 -56q-8 -28 -18 -64q-10 -32 -25 -79t-35 -111q-16 96 -58 153t-86 89q-52 36 -112 52 q-49 8 -85 8q-45 0 -71 -12q-48 -22 -64 -56q-8 -14 -17 -35t-14 -43t-3 -44t18 -36q10 -10 52 -27t101 -38t126 -45t127 -48t104 -48t58 -44q12 -20 27 -53t22 -72q5 -27 5 -56q0 -12 -1 -24q-3 -41 -23 -81t-63 -74t-115 -56q-57 -18 -112 -18q-25 0 -50 4q-78 12 -143 36 t-113 47q-41 20 -61 20q-4 0 -7 -1q-22 -4 -50 -22t-53 -37t-43 -34q-14 -12 -17 -12q-1 0 -1 1z" />
<glyph unicode="t" horiz-adv-x="698" d="M-174 1088l292 -8q-4 22 -9 41t-9 31q-6 14 -12 24q-8 10 -18 22l-26 26t-38 36q60 -6 101 -10t67 -6q30 -2 48 -2q18 -2 48 0q26 2 68 5t106 11q-14 -20 -22 -35t-14 -27l-12 -24l-8 -24q-4 -10 -7 -24t-5 -30h308l-28 -162l-282 16q-10 -102 -14 -158t-8 -82l-4 -36 q-6 -76 -12 -165q-4 -67 -4 -126v-39q2 -76 14 -127t42 -51t56 16t45 38t29 45t10 35t-6 28q-10 30 -36 76q58 -14 102 -28q22 -8 40 -16q20 -8 46 -18q22 -10 56 -24t80 -34q-44 -8 -64 -26q-12 -8 -18 -18q-14 -22 -32 -59t-54 -73t-97 -64t-163 -32h-19q-92 0 -142 36 q-55 40 -80 93t-29 105t-6 70q-1 9 -1 31.5t1 58.5q2 72 6 159t8 168t4 119q0 20 2 42q0 18 1 39t1 41l-290 2z" />
<glyph unicode="u" horiz-adv-x="1088" d="M40 920q52 -10 91 -15t67 -9q32 -4 56 -6t56 -4q27 -1 65 -1t87 1h-12q-49 0 -79 -29q-33 -33 -49 -75q-20 -50 -22 -116q-1 -27 -1 -53q0 -57 6 -106q9 -71 34 -120t67 -72q29 -16 70 -16q18 0 38 3q66 10 101 47t51 92t19 125t5 146q0 76 -1 109t-3 43t-6 9t-10 9 q-4 8 -12 16q-6 8 -16 19t-22 23q52 -2 93 -3t69 -3q32 -2 56 -4q22 -2 58 -6q30 -4 78 -8t114 -12q-46 -10 -74 -30t-44 -40q-18 -22 -26 -48q-3 -17 -3 -43t3 -61q4 -62 20 -170t50 -284l-158 -94l-32 266q-58 -98 -123 -151t-121 -77q-66 -28 -128 -32q-82 0 -141 11 t-101 29t-67 41t-37 47q-28 50 -30 129v32q0 63 6 126q8 79 18 145q7 47 7 73q0 10 -1 17q-4 18 -12 40q-8 18 -20 41t-34 49z" />
<glyph unicode="v" horiz-adv-x="806" d="M-102 1102q34 -6 69 -9t63 -5q32 -2 62 -2t68 2q32 2 77 6t99 12q-32 -18 -50 -38t-28 -36q-12 -20 -16 -36q-2 -6 -2 -18q0 -18 4 -48q6 -50 17 -116t25 -138t29 -132t28 -100t21 -38q8 0 25 40t39 99t46 130t42 133t29 105t9 51q-6 8 -14 22q-14 22 -62 76 q58 -4 100 -7t68 -7q30 -4 48 -6t52 0q28 0 75 3t117 11q-52 -30 -85 -53t-51 -39q-22 -20 -32 -34q-14 -26 -50 -124q-16 -42 -39 -104t-54 -149t-73 -203t-94 -266l-194 -20q-38 126 -61 211t-37 137q-16 60 -24 94q-10 38 -24 111t-28 149t-28 137t-22 75q-8 10 -28 28 q-16 16 -44 39t-72 57z" />
<glyph unicode="w" horiz-adv-x="1316" d="M-92 922q60 -4 107 -6t79 -4q36 -2 64 -2t64 2q32 2 79 7t109 15q-48 -30 -77 -55t-45 -45q-18 -22 -24 -40q-4 -16 -7 -63t-4 -108v-41q0 -42 1 -88q2 -68 6 -123t12 -92t20 -35q16 14 52 94q14 34 34 87t46 130t59 181t75 242h174q8 -136 18 -238t20 -177t19 -126 t19 -83q22 -76 44 -82q18 4 39 46t40 104t35 135t28 137t16 112t0 60q-6 12 -24 34q-16 18 -43 44t-73 62q56 -10 107 -13t91 -5q23 -1 44 -1t40 1q40 0 98 2q50 2 125 2t177 4q-90 -28 -143 -53t-81 -47q-34 -24 -48 -46q-14 -30 -44 -126q-12 -40 -30 -99t-42 -139 t-54 -185t-68 -239q-22 4 -45 5t-43 1h-46q-24 -2 -52 -4q-24 -2 -56 -6t-70 -10l-120 486l-196 -486l-224 6q-42 226 -67 361t-41 207q-18 84 -24 118q-10 36 -30 70q-16 28 -46 59t-74 53z" />
<glyph unicode="x" horiz-adv-x="928" d="M-194 172q22 8 46 20t42 22q22 12 42 26q22 18 70 68q40 42 110 119t182 207q-66 120 -107 191t-63 111q-26 46 -38 62t-32 36q-32 32 -104 76q58 0 96 -1t60 -1h40h46q28 0 75 1t123 5q-36 -8 -56 -17t-30 -19q-12 -10 -14 -22q2 -16 14 -50q10 -30 35 -82t75 -140 q84 96 128 152t66 86q22 34 26 46q-2 10 -6 20q-6 16 -30 50q54 -4 94 -5t68 -3q32 -2 52 -2q22 0 64 2q34 2 93 5t149 11q-74 -36 -126 -69t-86 -59q-40 -30 -66 -56q-26 -30 -64 -74q-34 -40 -83 -99t-119 -147q52 -90 99 -154t81 -106q40 -50 74 -80t74 -60 q34 -26 79 -55t97 -51q-52 -4 -101 -5t-87 -5q-44 -4 -84 -6q-40 -4 -82 -6q-36 -2 -80 -4t-90 -2q18 18 28 34t16 28q8 14 10 26q-2 16 -20 52q-16 32 -50 89t-100 155q-46 -48 -73 -84t-41 -60q-16 -28 -22 -46q-4 -18 0 -40q4 -18 12 -43t28 -51q-100 -6 -168 -6h-68 q-32 0 -76 2q-38 2 -95 3t-133 5z" />
<glyph unicode="y" horiz-adv-x="1166" d="M-72 1022q40 -6 71 -9t55 -5q26 -2 50 -2q22 0 56 2q28 2 73 5t107 9q-4 -8 -16 -49t-24 -100t-21 -130q-8 -64 -8 -126v-14q1 -69 17 -130t52 -99q76 -78 135 -94q26 -7 49 -7q30 0 54 11q44 20 72 60t40 74q30 92 36 194q1 16 1 33q0 75 -15 163q-18 108 -86 220 q52 -4 90 -6t66 -4q32 -2 56 -4q22 -2 52 0q26 0 63 3t83 7q8 -196 14 -349t9 -270t3 -202v-143q-2 -138 -12 -182q-16 -62 -57 -124t-103 -111t-143 -76q-62 -21 -134 -21q-21 0 -43 2q-94 8 -149 25t-86 39t-44 46t-19 49t-12 47t-24 38q-22 18 -46 36q-22 16 -47 32 t-49 26l426 24q-18 -24 -26 -44t-10 -34q-2 -18 2 -30q8 -24 29 -53t55 -46q25 -13 57 -13q12 0 24 2q47 6 107 50q50 38 84 122q28 72 44 202q7 55 7 124q0 95 -13 218q-36 -124 -98 -190t-124 -96q-72 -36 -150 -38q-104 4 -178 27t-122 63t-75 95t-39 123t-12 137t1 129 t1 109t-10 79q-12 30 -32 60q-16 26 -45 57t-69 59z" />
<glyph unicode="z" horiz-adv-x="926" d="M10 1158q92 -8 163 -11t119 -7q56 -4 98 -6q22 -1 50 -1t62 1q58 0 149 3t223 11l-16 -278q-58 -58 -103 -108t-79 -86q-38 -42 -68 -76q-30 -36 -68 -86q-34 -44 -82 -107t-110 -147q110 6 180 13t110 13q48 8 70 12q20 8 46 34q22 22 54 66t72 120q0 -62 1 -105t1 -71 v-54v-46q0 -22 1 -54t3 -72q-78 10 -142 15t-110 7q-27 1 -51.5 1t-46.5 -1q-44 -4 -110 -8q-56 -4 -138 -8t-194 -10l-44 212q36 16 86 62t96 94q52 56 110 122q56 66 110 132q46 56 97 116t89 106q-108 -4 -178 -15t-110 -21q-48 -12 -72 -28q-22 -18 -54 -54 q-28 -30 -68 -81t-92 -131q0 66 -2 119t-4 89q-4 42 -6 74q-4 32 -10 70q-4 34 -13 79t-19 101z" />
<glyph unicode="{" horiz-adv-x="664" d="M102 674l12 190q76 -10 119 4t65 34q24 22 32 54q4 42 -26 98t-65 121t-62 136t-15 143q14 56 64 108q42 46 126 94t232 86l20 -250q-96 10 -147 -2t-75 -30q-28 -22 -34 -50q-4 -42 19 -86t49 -97t45 -115t11 -136q-10 -58 -32 -108q-20 -44 -55 -85t-95 -63 q74 2 113 -24t57 -58q20 -38 22 -90q-4 -68 -25 -120t-45 -99t-44 -92t-20 -99q4 -42 26 -76q20 -28 62 -55t126 -33l-8 -222q-120 10 -192 53t-112 91q-46 54 -64 122q-18 88 -5 160t36 132t45 108t20 88q-4 32 -26 62q-18 26 -54 55t-100 51z" />
<glyph unicode="|" horiz-adv-x="486" d="M102 1512h150q14 0 32 -2q16 -2 37 -3t45 -5q-10 -166 -15 -290t-7 -208q-2 -98 0 -166q0 -72 6 -188q4 -100 12 -258t22 -386q-16 0 -34 -1t-34 -3q-20 -2 -36 -2q-18 0 -40 -4q-18 -4 -40 -8t-46 -12q4 206 6 340t2 218q0 96 -2 152q-4 90 -12 214q-6 106 -18 259 t-28 353z" />
<glyph unicode="}" horiz-adv-x="692" d="M102 -10q94 -10 145 3t75 31q28 22 34 52q2 42 -21 86t-50 96t-47 113t-12 137q6 56 28 108q18 44 53 87t95 65q-76 -6 -116 19t-58 59q-22 38 -22 90q2 68 22 120t44 99t43 93t19 100q-4 40 -28 74q-22 28 -65 54t-125 32l4 222q120 -10 193 -51t113 -87q48 -54 68 -120 q20 -88 8 -161t-35 -133t-44 -108t-17 -90q4 -30 26 -60q18 -26 55 -54t101 -48l-8 -192q-76 6 -119 -8t-65 -34q-24 -22 -30 -54q-4 -42 27 -98t68 -120t65 -134t18 -142q-12 -58 -62 -110q-42 -46 -126 -96t-230 -90z" />
<glyph unicode="~" horiz-adv-x="1282" d="M30 716q114 44 192 65t128 31q58 10 94 8q42 -6 88 -36t98 -64t112 -61t130 -23q56 4 108 20q46 14 97 41t91 75q0 -32 10 -62q6 -16 12 -30q8 -16 16 -36q8 -18 19 -42t27 -58q-8 -22 -39 -35t-65 -23q-40 -10 -92 -16q-86 -8 -155 5t-128 36t-108 51t-93 52t-84 38 t-82 10q-48 -6 -100 -26q-46 -16 -100 -48t-106 -86z" />
<glyph unicode="&#xa1;" horiz-adv-x="600" d="M0 118q58 136 94 231t56 157q22 72 32 118q8 46 20 112q10 56 26 141t40 201l178 -8q-16 -106 -23 -181t-11 -125q-4 -58 -2 -96q0 -42 6 -120q4 -66 12 -178t22 -288q-40 8 -73 13t-59 9q-30 4 -56 6q-28 2 -66 4q-34 2 -83 3t-113 1zM213 1279q-3 27 4 54t26 50t51 39 q64 30 114 16t74 -52q26 -40 4 -95t-88 -83q-64 -28 -107 -20t-63 42q-12 22 -15 49z" />
<glyph unicode="&#xa2;" horiz-adv-x="868" d="M44 687q10 73 35 129t61 97t74 71t72 48t56 30q4 62 4 99v59q0 24 -2 36l-4 20t-2 22v28l164 22q-4 -12 -7 -26t-7 -26q-4 -14 -6 -28q-2 -16 -4 -40q-2 -22 -4 -55t-4 -81q80 8 124 18q22 6 40 10q22 6 54 22q28 14 70 36t100 58q-34 -40 -54 -73t-32 -57 q-14 -28 -20 -50q-8 -26 -18 -68q-10 -36 -26 -96t-42 -150q-18 32 -34 52t-30 32q-16 14 -30 22q-14 6 -30 12q-14 4 -33 10t-39 10l-6 -404q62 6 106 16q22 6 42 12q16 6 38 14q18 8 41 17t49 23q4 -22 7 -37l5 -25q2 -12 4 -20q2 -10 6 -22q4 -10 10 -26t16 -36 q-32 -14 -63 -24t-55 -16q-30 -8 -56 -12l-36 -6q-18 -4 -43 -9t-59 -13q2 -26 2 -45t2 -33q0 -16 2 -28q0 -12 4 -28q2 -26 16 -82l-166 -12q2 16 4 30t2 24v22v152q-98 4 -156 37t-88 73q-36 46 -48 102q-16 90 -6 163zM210 642q-2 -40 12 -74q12 -28 39 -55t81 -37l2 358 q-46 -20 -73 -51t-41 -63q-16 -36 -20 -78z" />
<glyph unicode="&#xa3;" horiz-adv-x="1046" d="M20 726l210 2q-18 86 -25 155t-9 115q-2 54 2 96q6 58 25 104t55 79t92 52t138 23t131 -15t79 -46t47 -55t35 -42q16 -8 46 -16q26 -6 69 -12t111 -4q-44 -20 -78 -38t-58 -32q-28 -16 -50 -30q-22 -16 -56 -40q-28 -22 -74 -53t-108 -77q4 34 8 61t8 45l6 36q2 20 -2 54 t-20 66t-47 55t-81 21q-34 -2 -55 -18t-32 -41t-15 -54t-4 -57q-2 -26 6 -66q4 -34 16 -92t34 -142q20 2 39 3t35 1h36q16 0 36 -2q16 -2 37 -4t43 -6l-16 -142q-46 10 -74 12q-18 2 -32 4t-32 2h-34t-40 -2q10 -60 11 -108t-1 -82q-2 -40 -8 -70q-8 -30 -20 -62 q-12 -28 -31 -62t-47 -68q58 16 108 25t90 13q46 4 84 4q48 -2 91 -8t79 -11t65 -8t51 1q10 2 28 10q16 8 38 22t56 38q-6 -48 -9 -81l-5 -55q-2 -24 0 -40t2 -40q0 -22 -1 -53t-3 -77q-42 50 -106 75t-126 35q-72 10 -148 8q-78 -6 -160 -14q-70 -8 -155 -21t-163 -33 l-96 220q58 18 92 43t56 47q22 26 36 56q8 30 14 72q4 36 6 89t-4 123l-200 -10z" />
<glyph unicode="&#xa4;" horiz-adv-x="1026" d="M30 1024l208 192l138 -200q32 8 68 12t82 4q30 0 62 -9t64 -23l148 236q64 -46 102 -72t60 -40q22 -16 32 -22q4 -2 -12 -20t-44 -46t-66 -63t-78 -73l6 -6q26 -28 40 -68t17 -87t-5 -96t-26 -91l168 -142l-206 -192l-134 190q-60 -20 -113 -23t-91 -1q-18 2 -37 8 t-39 16l-122 -216q-66 46 -104 72t-60 40q-24 16 -32 22q-4 2 10 20t40 45t60 61t72 70q-28 34 -47 70t-23 70q-8 54 -5 112t31 110zM350 659q4 -45 19 -84t41 -67t68 -34q16 -2 43 9t54 35t48 62t25 92q10 108 -13 177t-51 85q-24 14 -59 21t-59 -3q-12 -6 -29 -24t-34 -47 t-31 -65t-20 -74t-2 -83z" />
<glyph unicode="&#xa5;" horiz-adv-x="1112" d="M-184 1256q86 0 145 1t95 1h68h90q44 0 106 1t144 3q-64 -28 -97 -51t-49 -39q-18 -20 -20 -36q4 -18 34 -50q26 -28 79 -72t153 -112q88 84 134 133t68 75q24 30 28 40q-2 8 -20 24q-16 14 -49 35t-91 55q78 4 135 6t93 2h70q30 0 80 -2q42 -2 111 -3t173 -3 q-84 -36 -135 -63t-81 -43q-36 -20 -54 -32q-18 -16 -62 -58q-38 -36 -106 -105t-178 -183l-10 -128h190l6 -100l-194 -16v-74l180 6l20 -122l-180 -2q0 -20 5 -37t11 -31q8 -16 16 -28q8 -16 30 -38q16 -22 46 -54t76 -78q-64 2 -118 4t-92 2h-80q-36 0 -85 -2t-94 -5 t-77 -5t-36 -2q-4 2 6 13t26 30t34 43t30 52q8 20 16 42q6 18 12 39t8 39l-206 -4l4 104l214 16l-6 70l-206 -4l-18 94l218 22q4 28 3 48t-3 32q-2 14 -6 20q-6 8 -36 41t-73 78t-93 96t-95 96t-79 77t-46 42q-16 10 -40 26q-22 12 -56 31t-86 43z" />
<glyph unicode="&#xa6;" horiz-adv-x="476" d="M122 1353v159h198q-2 -80 -3 -138t-1 -96v-76q-2 -32 0 -76q0 -38 2 -95t6 -135l-178 12q-6 50 -9 94t-5 78q-2 38 -4 74t-4 88q-2 44 -2 111zM132 18q4 78 8 133t6 91q2 42 4 70v74v102t-4 154l188 -8q6 -126 6 -202q0 -42 -2 -76t0 -86q2 -44 4 -108t10 -152z" />
<glyph unicode="&#xa7;" horiz-adv-x="922" d="M85 653q-5 31 1 63t21 65t31 67q14 24 44 46q26 18 71 36t117 28q-90 62 -139 118t-71 102q-26 52 -30 98q0 58 24 97t64 63t89 37t101 23q50 8 87 -1t67 -23t57 -26t57 -6q24 4 48 12q22 8 46 20t48 34q-10 -62 -17 -105t-11 -71q-6 -34 -6 -56q-2 -22 -6 -56 q-4 -28 -8 -71t-10 -101q-66 136 -113 206t-79 104q-36 36 -62 42q-26 -2 -53 -8t-51 -20t-42 -37t-24 -59q-10 -56 35 -106t111 -95t137 -82t117 -67q46 -28 71 -73t31 -93t-5 -94t-37 -78q-20 -24 -52 -42q-28 -16 -70 -28t-100 -8q86 -72 134 -129t70 -97q26 -48 32 -82 q2 -42 -18 -80t-58 -69t-90 -53t-112 -34t-103 -2t-77 27t-62 34t-58 19q-24 0 -48 -10q-22 -10 -47 -31t-51 -61q20 92 30 151t16 93q6 40 8 60q0 20 4 50q2 26 6 66t10 98q44 -110 75 -177t53 -107q24 -46 42 -68q20 -22 42 -29t47 -2t53 19t60 32q32 20 43 46t8 56 t-17 62t-30 66q-16 32 -75 64t-128 62t-132 59t-87 55t-29 57zM346 699q6 -27 30 -49t72 -30q50 16 78 35t44 35q18 20 24 38q4 18 0 40q-4 18 -15 41t-33 49q-44 -4 -74 -13t-52 -19q-24 -12 -40 -26q-20 -20 -30 -47t-4 -54z" />
<glyph unicode="&#xa8;" horiz-adv-x="1464" d="M431 1426q-1 30 11 58t38 47t66 21q36 2 65 -18t44 -50t12 -63t-29 -57q-44 -40 -102 -39t-88 47q-16 24 -17 54zM797 1424q-1 30 11 58t38 48t66 22q36 2 65 -19t44 -51t12 -63t-29 -57q-22 -20 -49 -29t-53 -9t-50 12t-38 34q-16 24 -17 54z" />
<glyph unicode="&#xa9;" horiz-adv-x="1152" d="M30 836q2 106 30 211t94 191t176 145t276 71q38 4 91 -14t110 -52t112 -81t99 -101t72 -113t30 -115q4 -124 -5 -210t-32 -149t-60 -109t-91 -90q-108 -86 -251 -115t-297 11q-78 20 -143 75t-112 128t-73 157t-26 160zM145 874q-1 -54 9 -106q20 -100 68 -161t136 -123 q42 -32 95 -46t107 -15t103 7t85 22q70 28 137 106t105 226q18 74 5 142t-44 126t-76 107t-91 87t-98 53t-101 16t-92 -8t-73 -19q-54 -20 -97 -52t-93 -90q-24 -30 -43 -73t-30 -94t-12 -105zM244 826q2 46 23 108t59 119t90 97t118 40q34 0 61 -9t50 -21t44 -23t43 -11h32 q14 0 28 -1t24 -3q-10 -18 -19 -31t-15 -23q-8 -10 -12 -20q-8 -10 -18 -28q-10 -16 -26 -42t-44 -68q0 60 -13 94t-29 52q-18 20 -40 26q-30 4 -63 -18t-60 -58t-46 -77t-23 -77q-4 -30 8 -69t36 -73t56 -56t70 -22q28 2 54 14q22 10 44 30t34 60l120 -36 q-62 -70 -120 -104t-104 -48q-52 -16 -100 -14q-60 6 -110 35t-84 71t-52 91t-16 95z" />
<glyph unicode="&#xaa;" horiz-adv-x="672" d="M30 1196q130 40 213 54t131 14q56 0 86 -16q32 -22 52 -60t31 -85t15 -101t6 -108t15 -90t27 -59t25 -33l11 -10q-2 -2 -14 -4q-10 -4 -31 -7t-59 -11q-18 20 -28 31t-14 15q-6 6 -6 4q-40 -64 -98 -88t-113 -27t-99 7t-56 16q-28 10 -46 38t-26 63t-6 71t14 64 q20 44 65 70t96 38t97 14t68 -2l20 -4t21 -6t23 -8q10 24 11 41t-3 27q-4 12 -12 22q-24 18 -78 27t-126 -15q-28 -10 -58 -18q-26 -8 -57 -18t-59 -20zM202 764q6 -12 32 -18t58 -6t63 8t45 22q20 20 27 43t5 44t-13 37t-25 22q-16 6 -55 2t-76 -21t-58 -49t-3 -84z" />
<glyph unicode="&#xab;" horiz-adv-x="860" d="M0 374q64 58 107 98t71 66q32 30 54 50q18 16 40 38q20 20 48 47t66 65l42 -172l-236 -184q92 -70 142 -105t72 -51q26 -18 30 -16l-4 -28q-4 -24 -11 -79t-19 -161q-42 58 -77 104t-63 78q-32 36 -56 66q-22 24 -52 52q-26 24 -65 58t-89 74zM352 374q62 58 106 98 t72 66q34 30 54 50q18 16 40 38q20 20 48 47t66 65l42 -172l-236 -184q92 -70 142 -105t72 -51q26 -18 30 -16l-4 -28q-4 -24 -11 -79t-19 -161q-42 58 -77 104t-63 78q-32 36 -56 66q-22 24 -52 52q-26 24 -65 58t-89 74z" />
<glyph unicode="&#xac;" horiz-adv-x="1332" d="M30 810q138 -4 238 -6t168 -2q78 -2 132 0q56 0 148 2q78 2 203 6t309 12q4 -24 8 -53t8 -55q4 -30 8 -58q2 -30 8 -58q4 -24 9 -51t11 -49l-226 -32q2 34 3 58t1 38v26v20q0 10 1 23t3 29q-108 0 -189 -1t-137 -1q-66 -2 -110 -2q-50 -2 -130 -8q-70 -6 -181 -16 t-273 -28z" />
<glyph unicode="&#xad;" horiz-adv-x="938" d="M30 734q78 -2 143 -2h113q56 0 102 2q48 0 122 4q64 2 161 6t237 10l-10 -204q-112 8 -187 11t-121 5q-54 2 -88 0t-96 -6q-52 -4 -141 -9t-225 -15z" />
<glyph unicode="&#xae;" horiz-adv-x="1164" d="M34 836q10 104 39 209t93 192t170 146t272 71q58 6 141 -30t161 -100t138 -154t74 -192q16 -122 9 -208t-33 -149t-68 -110t-96 -91q-106 -86 -250 -115t-298 11q-78 20 -146 64t-117 110t-74 153t-15 193zM149 874q-1 -54 9 -106q20 -100 67 -161t135 -123 q44 -32 97 -46t107 -16t103 7t83 23q68 28 137 106t105 226q18 74 6 142t-43 126t-76 107t-91 87t-98 53t-102 16t-93 -8t-71 -19q-54 -20 -97 -52t-95 -90q-24 -30 -43 -73t-29 -94t-11 -105zM310 1116q28 4 52 7l40 5q20 2 34 4q24 2 59 5t76 3t83 -6t80 -20 q76 -28 105 -68t31 -82q0 -32 -14 -60q-12 -24 -38 -49t-78 -41q16 -10 29 -19t23 -19t18 -22q20 -28 24 -41t10 -43q0 -8 2 -16t3 -19t3 -21q-4 -2 -30 -2h-26h-40h-124q18 12 30 23t20 21t12 20q4 18 2 36q-2 16 -8 32t-24 30q-48 -6 -70 -6h-22q-10 0 -20 -2t-23 -3 t-29 -5q-4 -22 -3 -39t5 -29q4 -14 8 -26q4 -14 12 -24q14 -24 38 -38h-82q-20 0 -36 2q-16 0 -34 2q-16 2 -34 2t-34 4q20 28 26 44q4 8 6 16q2 16 0 69t-7 112t-10 108t-7 59t-8 26q-4 12 -11 30t-19 40zM498 846q34 -4 59 -3t43 5q22 4 36 8q8 4 14 8t11 13t8 26t7 47 t-4 49t-22 31t-30 16t-28 2q-10 -2 -24 -2q-12 -2 -29 -2t-41 -4v-194z" />
<glyph unicode="&#xaf;" horiz-adv-x="1464" d="M484 1492q54 -2 98 -2h74q36 0 62 2q28 2 66 4q34 2 80 4t110 6l6 -142q-34 4 -72 7t-72 3h-78q-40 -2 -82 -4q-36 -2 -82 -4t-92 -6z" />
<glyph unicode="&#xb0;" horiz-adv-x="788" d="M43 1233q-11 51 13 111q24 62 55 103t73 68t97 41t127 20q64 6 119 -17t93 -66t56 -100t6 -117t-37 -109t-58 -84t-69 -55t-68 -22q-32 -4 -67 -6t-69 0t-65 9t-51 23q-22 16 -55 44t-61 67t-39 90zM196 1267q0 -31 11 -57t29 -42q70 -60 129 -58t95 28q34 26 55 74 t21 112t-46 104t-108 36q-22 -2 -38 -4t-31 -9t-31 -21t-36 -38q-26 -30 -38 -62t-12 -63z" />
<glyph unicode="&#xb1;" horiz-adv-x="1048" d="M30 782q54 -4 95 -6t69 -2h54h60h158q0 52 -1 83t-3 47q-2 18 -4 24q-2 16 -8 38q-4 20 -11 50t-17 70l232 8q-16 -38 -25 -70t-13 -54q-6 -26 -6 -48v-34q0 -18 -2 -45t-4 -67q72 2 123 4t85 2h64q24 0 48 2q22 2 47 5t49 11l8 -170q-44 4 -79 4t-61 2q-30 0 -54 2h-60 q-30 0 -73 -2t-101 -4q-6 -72 -4 -94q0 -16 4 -26q2 -20 8 -48q4 -24 11 -58t17 -80l-218 -2q8 46 13 80t9 58l6 48q2 16 4 38q4 36 0 92h-89t-67 -2q-32 -2 -56 -4t-54 -6q-26 -4 -62 -6t-78 -4zM72 202q76 -2 142 -2h114q56 0 100 2q48 2 122 4q64 2 161 5t237 9l-8 -202 q-112 6 -188 9t-122 5q-54 2 -88 2q-34 -2 -96 -6q-52 -4 -141 -9t-225 -15z" />
<glyph unicode="&#xb2;" horiz-adv-x="924" d="M82 1336q28 -16 59 -23t55 -9q28 -4 54 0q26 2 53 12t64 22t87 21t120 9q30 0 65 -8t67 -22t58 -30t42 -32q14 -16 20 -53t4 -79t-10 -83t-22 -67q-18 -22 -70 -58q-46 -30 -134 -78t-238 -114q90 0 150 3t98 7q44 4 70 8q24 6 48 18q22 10 47 28t49 46q4 -30 6 -53 t4 -39q2 -20 4 -34q0 -14 2 -30t3 -35t5 -41q-76 14 -138 22t-108 12q-52 4 -94 4t-94 -6q-46 -4 -110 -12t-142 -24q-6 12 -11 25t-9 25t-6 26q-2 12 -6 24q-4 10 -6 23t-2 23q122 56 198 101t120 77q52 36 76 66q26 36 43 81t12 83t-37 62t-102 20q-46 -2 -87 -22t-74 -49 t-59 -63t-44 -63t-28 -48t-10 -21t-2 17t-5 47t-6 58l-5 50l-6 42q-4 22 -8 55t-10 79z" />
<glyph unicode="&#xb3;" horiz-adv-x="902" d="M102 1380q28 -14 54 -20t48 -10q24 -4 50 -4q30 0 56 5t56 11t70 10t100 0q120 -8 188 -58t70 -108q-2 -46 -20 -84q-16 -34 -48 -65t-94 -45q76 -8 120 -28t68 -42q28 -26 38 -56q8 -42 -2 -84t-39 -78t-77 -64t-114 -40q-46 -10 -105 -4t-114 16t-99 19t-60 9 q-12 0 -32 -8q-16 -6 -40 -17t-52 -31q16 96 18 124q2 20 2 28v24q0 12 -1 33t-3 53q78 -66 146 -100t120 -50q60 -18 112 -16q64 4 91 39t22 77t-38 79t-89 45q-44 4 -84 0q-34 -4 -72 -15t-64 -39q-4 20 -4 33t-2 21t-2 14t-2 16q-4 20 -6 60q28 -6 52 -8t42 -2h40 q22 2 55 13t62 30t47 46t12 59q-14 66 -62 96t-98 26q-34 -2 -80 -22q-40 -16 -95 -50t-123 -92q4 28 4 51v39v32q-2 14 -6 34q-4 16 -7 40t-9 58z" />
<glyph unicode="&#xb4;" horiz-adv-x="1464" d="M576 1376l212 206l100 -106l-260 -176z" />
<glyph unicode="&#xb5;" horiz-adv-x="876" d="M30 670q32 -8 59 -10t47 -4q22 -2 40 0q20 0 46 2q22 0 57 1t85 1q-28 -10 -43 -22t-25 -22q-10 -12 -14 -26q-4 -18 -12 -72t-13 -117t-2 -119t21 -78t47 -43t62 -32t66 -9t59 24q24 22 43 84t30 131t11 131t-14 84q-10 18 -22 40q-20 36 -56 90q28 -6 54 -8t48 -4 q24 -2 46 -2h50q24 0 59 -1t77 -3q-18 -8 -28 -21t-16 -29q-8 -18 -8 -36q-2 -28 -2 -98q0 -62 1 -176t5 -308l-168 -18l-10 92q-12 -48 -41 -74t-59 -40q-36 -16 -78 -20q-58 -2 -96 18t-60 44t-31 43t-7 15t2 -26t2 -52t5 -61t9 -55q8 -28 20 -56q10 -24 25 -51t33 -49 q-56 16 -96 20q-22 2 -36 0q-16 -4 -36 -6q-16 -4 -37 -5t-43 -5q6 34 9 70t7 64q4 34 6 66q2 28 3 82t-1 121t-6 137t-8 130t-8 102t-6 52q-2 12 -10 28q-6 14 -16 35t-26 51z" />
<glyph unicode="&#xb6;" horiz-adv-x="1280" d="M42 1128q-6 70 20 120t68 83t93 54t93 33t110 15t142 1t145 -6t121 -4q48 0 107 3t112 8t90 8t43 3l12 -238q-24 4 -42 5t-32 3q-16 2 -28 2h-32q-32 0 -100 6q2 -166 2 -281v-187q0 -84 -2 -138t6 -138q6 -72 18 -186t40 -276h-222q-4 170 -5 298t-3 214q-2 100 -4 170 q-2 68 -4 150q-2 70 -2 165v203l-164 6q-4 -250 -3 -406t3 -246q2 -104 4 -152q4 -44 10 -102q10 -104 30 -286l-250 -20q20 176 30 270q6 54 10 94q4 42 4 110q0 58 -2 154t-8 236q-70 -18 -125 -16t-97 17t-73 39t-51 52q-50 66 -64 160z" />
<glyph unicode="&#xb7;" horiz-adv-x="410" d="M62 732q0 24 13 42t33 30t44 20t44 10q74 10 115 -24t37 -94q0 -30 -10 -48t-27 -27t-41 -13t-52 -10q-30 -6 -58 4t-50 27t-35 39t-13 44z" />
<glyph unicode="&#xb8;" horiz-adv-x="1464" d="M570 -176l40 242l178 -2l-34 -172q64 -10 93 -34t39 -52q12 -32 8 -70q-14 -38 -50 -72q-32 -28 -94 -56t-168 -44l4 92q58 12 91 28t49 30q18 16 22 34q0 18 -20 32q-16 12 -52 24t-106 20z" />
<glyph unicode="&#xb9;" horiz-adv-x="588" d="M40 616q40 18 63 34t35 28q14 14 18 28q2 8 6 47t8 92t7 112t5 112t2 89t-4 44q-6 10 -18 18q-10 8 -29 18t-47 22q52 10 87 19t55 15q22 8 36 10q12 6 36 14q22 8 56 20t88 32q-12 -42 -18 -78t-10 -64q-4 -32 -4 -60q0 -34 -5 -100t-9 -134t-4 -125t10 -71 q8 -14 20 -26q10 -10 25 -24t37 -26q-36 -6 -67 -9t-53 -7q-26 -4 -48 -6q-24 -2 -62 -6q-34 -4 -87 -8t-129 -10z" />
<glyph unicode="&#xba;" horiz-adv-x="694" d="M22 952q6 50 43 100t90 89t114 61t113 14t104 -29t94 -57t68 -87t26 -119t-27 -117t-72 -81t-101 -48t-112 -16q-58 0 -121 18t-114 54t-82 91t-23 127zM233 926q-3 -40 9 -74t43 -57t83 -23t86 25t50 62t15 80t-18 79t-51 58t-82 16q-38 -4 -67 -29t-47 -61t-21 -76z " />
<glyph unicode="&#xbb;" horiz-adv-x="860" d="M72 210q4 -2 30 16q22 16 72 51t142 105l-236 184l44 172q36 -38 65 -65t49 -47q22 -22 40 -38q20 -20 52 -50q28 -26 71 -66t107 -98q-50 -40 -88 -74t-64 -58q-32 -28 -54 -52q-26 -30 -56 -66q-28 -32 -63 -78t-77 -104q-14 106 -20 161t-10 79zM424 210q4 -2 30 16 q22 16 72 51t142 105l-236 184l42 172q38 -38 67 -65t49 -47q22 -22 40 -38q20 -20 52 -50q28 -26 71 -66t107 -98q-52 -40 -90 -74t-64 -58q-30 -28 -52 -52q-26 -30 -56 -66q-28 -32 -63 -78t-77 -104q-14 106 -20 161t-10 79z" />
<glyph unicode="&#xbc;" horiz-adv-x="1640" d="M40 616q40 18 63 34t35 28q14 14 18 28q2 8 6 47t8 92t7 112t5 112t2 89t-4 44q-6 10 -18 18q-10 8 -29 18t-47 22q52 10 87 19t55 15q22 8 36 10q12 6 36 14q22 8 56 20t88 32q-12 -42 -18 -78t-10 -64q-4 -32 -4 -60q0 -34 -5 -100t-9 -134t-4 -125t10 -71 q8 -14 20 -26q10 -10 25 -24t37 -26q-36 -6 -67 -9t-53 -7q-26 -4 -48 -6q-24 -2 -62 -6q-34 -4 -87 -8t-129 -10zM204 8q140 228 233 386t147 258q64 116 98 188q26 56 58 134q28 66 65 163t83 227h306q-76 -108 -150 -225t-132 -217q-68 -116 -128 -228 q-52 -102 -104 -212q-44 -96 -91 -215t-81 -243zM748 328l8 72q76 76 120 126t68 82q28 36 40 58q6 20 14 42q4 20 9 44t5 52q52 -2 85 -3t53 -1h34h40q24 0 65 -1t111 -1q-8 -8 -12 -19t-8 -21q-4 -12 -6 -26l-6 -54q-4 -32 -9 -87t-13 -145q46 0 77 6t53 14q24 8 40 20 q8 6 18 14q8 6 19 14t25 18q-2 -58 -6 -86q-2 -16 -4 -26q-2 -12 -4 -32q-2 -18 -5 -46t-7 -72q-16 22 -28 33t-22 19t-20 12q-10 2 -30 4q-16 2 -42 3t-66 3q0 -64 4 -103t8 -61q6 -26 14 -38t26 -24q28 -22 108 -64q-34 -4 -67 -7t-57 -5q-30 -2 -54 -2q-28 0 -68 -2 q-34 -2 -86 -3t-124 -5q26 18 41 34t25 26q10 12 14 24t10 40q4 24 10 66t14 112zM970 432l212 2q4 28 5 54t3 44q2 22 2 38v40v46t2 60z" />
<glyph unicode="&#xbd;" horiz-adv-x="1842" d="M40 626q40 18 63 34t35 28q14 14 18 28q2 8 6 47t8 92t7 112t5 112t2 89t-4 44q-6 10 -18 18q-10 8 -29 18t-47 22q52 10 87 19t55 15q22 8 36 10q12 6 36 14q22 8 56 20t88 32q-12 -42 -18 -78t-10 -64q-4 -32 -4 -60q0 -34 -5 -100t-9 -134t-4 -125t10 -71 q8 -14 20 -26q10 -10 25 -24t37 -26q-36 -6 -67 -9t-53 -7q-26 -4 -48 -6q-24 -2 -62 -6q-34 -4 -87 -8t-129 -10zM220 62q140 228 232 385t148 257q66 116 100 188q26 56 58 134q28 66 65 164t83 228h304q-76 -108 -149 -226t-131 -218q-68 -116 -130 -228 q-52 -102 -104 -212q-44 -96 -90 -215t-80 -243zM980 772q28 -16 59 -21t55 -9q28 -4 54 -2t53 13t64 23t87 21t120 9q30 0 65 -9t67 -22t58 -30t40 -33t21 -52t5 -78t-11 -84t-23 -68q-18 -22 -70 -58q-46 -30 -133 -77t-239 -115q90 0 151 3t99 7q44 4 70 10q24 6 48 18 q22 10 47 27t49 45q4 -30 5 -53t3 -39q2 -20 4 -32q2 -14 4 -30t3 -35t5 -41q-76 14 -138 21t-108 11q-52 4 -94 4q-42 -2 -94 -6q-46 -4 -110 -11t-144 -23q-6 12 -10 25t-8 23q-4 12 -8 26t-6 26q-2 10 -4 23t-2 23q120 54 197 99t121 77q52 36 76 68q26 36 43 80t12 82 t-37 63t-102 21t-126 -45t-95 -90t-60 -89t-21 -42q-2 -2 -4 17t-5 46t-6 57l-5 50q0 18 -4 42q-4 22 -8 55t-10 79z" />
<glyph unicode="&#xbe;" horiz-adv-x="1896" d="M102 1380q28 -14 54 -20t48 -10q24 -4 50 -4q30 0 56 5t56 11t70 10t100 0q120 -8 188 -58t70 -108q-2 -46 -20 -84q-16 -34 -48 -65t-94 -45q76 -8 120 -28t68 -42q28 -26 38 -56q8 -42 -2 -84t-39 -78t-77 -64t-114 -40q-46 -10 -105 -4t-114 16t-99 19t-60 9 q-12 0 -32 -8q-16 -6 -40 -17t-52 -31q16 96 18 124q2 20 2 28v24q0 12 -1 33t-3 53q78 -66 146 -100t120 -50q60 -18 112 -16q64 4 91 39t22 77t-38 79t-89 45q-44 4 -84 0q-34 -4 -72 -15t-64 -39q-4 20 -4 33t-2 21t-2 14t-2 16q-4 20 -6 60q28 -6 52 -8t42 -2h40 q22 2 55 13t62 30t47 46t12 59q-14 66 -62 96t-98 26q-34 -2 -80 -22q-40 -16 -95 -50t-123 -92q4 28 4 51v39v32q-2 14 -6 34q-4 16 -7 40t-9 58zM486 36q140 228 231 385t147 257q64 116 100 188q26 56 58 134q28 66 65 164t83 228h306q-76 -108 -150 -226t-132 -218 q-68 -116 -128 -228q-52 -102 -104 -212q-44 -96 -91 -215t-81 -243zM1002 276l8 72q76 76 121 126t69 82q28 36 40 58q6 18 14 40q4 18 9 44t5 54q52 -2 85 -3t53 -1h34h40q24 0 65 -1t111 -1q-8 -8 -13 -20t-9 -22q-4 -12 -6 -26l-6 -54q-4 -32 -9 -86t-11 -144q44 0 75 6 t53 14q24 8 40 20q8 6 18 14q10 6 21 13t25 17q-4 -30 -5 -51t-3 -35q-2 -16 -2 -26q-2 -10 -4 -30q-2 -16 -5 -45t-7 -73q-16 22 -29 33t-23 19q-12 8 -20 12q-10 2 -28 4q-16 2 -42 2t-66 2q0 -64 4 -103t8 -61q6 -26 14 -38q8 -10 26 -22q16 -10 42 -26t66 -38 q-34 -4 -67 -7t-57 -5q-30 -2 -54 -2q-28 0 -68 -2q-34 -2 -87 -3t-125 -5q26 18 42 34l26 26q10 12 14 22q4 12 10 40q4 24 10 67t14 113zM1226 380l210 2q4 28 6 54t4 44q2 22 2 38v40v46t2 60z" />
<glyph unicode="&#xbf;" horiz-adv-x="1040" d="M20 475q-4 55 12 101q18 36 70 72q46 32 131 71t235 79q-4 36 -11 67t-15 53q-8 26 -20 46q-12 18 -22 40q-10 18 -21 38t-21 40l392 48q-20 -22 -31 -47t-15 -47q-8 -26 -8 -52q-2 -28 2 -68q4 -34 11 -87t23 -125q-96 -6 -157 -22t-97 -34q-42 -22 -66 -46 q-18 -22 -32 -69t-19 -105t1 -119t28 -109t60 -78t100 -24q92 8 137 33t63 55t17 59t-3 45q-4 12 -24 28q-16 14 -49 30t-91 38l72 12t64 10q34 6 64 12q32 4 68 8q30 4 69 7t83 5q-4 -16 -8 -40t-8 -46q-6 -26 -10 -52q-8 -36 -11 -61t-6 -43t-10 -32t-21 -28 q-24 -22 -61 -49t-90 -48t-124 -32t-165 -5t-156 19t-103 34t-68 49t-51 64t-48 87t-40 107t-20 111zM412 1320q2 60 38 74t94 24q28 6 56 -4t50 -27t35 -40t13 -45t-13 -40t-33 -31t-44 -21t-44 -10q-74 -10 -115 24t-37 96z" />
<glyph unicode="&#xc0;" d="M-204 44q52 24 88 49t60 47q28 24 48 46q14 20 56 93t95 173t112 214t107 215t78 175t30 96q-4 26 -20 58q-14 28 -43 64t-83 80q100 -6 169 -9l115 -5q52 -2 88 0t98 10q52 6 139 19t217 35q-46 -46 -71 -83t-39 -63q-16 -32 -22 -54q-4 -20 8 -100t34 -189t48 -232 t52 -230t47 -182t31 -89q30 -42 38 -55t28 -23q8 -4 26 -12q16 -8 43 -20t69 -28q-78 -4 -134 -5t-92 -3q-42 -2 -72 -4q-30 0 -72 -4q-36 -4 -93 -8t-133 -8q40 28 65 51t39 39q16 20 22 36q4 18 6 54q2 32 0 85t-10 139l-526 -54q-20 -34 -30 -59t-14 -43q-6 -22 -4 -36 q4 -16 14 -38q10 -20 29 -47t57 -63q-50 2 -102 2t-96 -2q-52 -2 -102 -4t-114 -6q-54 -4 -127 -9t-157 -13zM528 528l416 36q-12 70 -22 121t-16 85q-8 40 -12 70q-6 28 -14 72q-8 38 -19 95t-27 137q-114 -228 -177 -353t-91 -183q-34 -68 -38 -80zM572 1728l142 78 l142 -274l-94 -56z" />
<glyph unicode="&#xc1;" d="M-204 44q52 24 88 49t60 47q28 24 48 46q14 20 56 93t95 173t112 214t107 215t78 175t30 96q-4 26 -20 58q-14 28 -43 64t-83 80q100 -6 169 -9l115 -5q52 -2 88 0t98 10q52 6 139 19t217 35q-46 -46 -71 -83t-39 -63q-16 -32 -22 -54q-4 -20 8 -100t34 -189t48 -232 t52 -230t47 -182t31 -89q30 -42 38 -55t28 -23q8 -4 26 -12q16 -8 43 -20t69 -28q-78 -4 -134 -5t-92 -3q-42 -2 -72 -4q-30 0 -72 -4q-36 -4 -93 -8t-133 -8q40 28 65 51t39 39q16 20 22 36q4 18 6 54q2 32 0 85t-10 139l-526 -54q-20 -34 -30 -59t-14 -43q-6 -22 -4 -36 q4 -16 14 -38q10 -20 29 -47t57 -63q-50 2 -102 2t-96 -2q-52 -2 -102 -4t-114 -6q-54 -4 -127 -9t-157 -13zM528 528l416 36q-12 70 -22 121t-16 85q-8 40 -12 70q-6 28 -14 72q-8 38 -19 95t-27 137q-114 -228 -177 -353t-91 -183q-34 -68 -38 -80zM658 1540l212 206 l100 -106l-260 -176z" />
<glyph unicode="&#xc2;" d="M-204 44q52 24 88 49t60 47q28 24 48 46q14 20 56 93t95 173t112 214t107 215t78 175t30 96q-4 26 -20 58q-14 28 -43 64t-83 80q100 -6 169 -9l115 -5q52 -2 88 0t98 10q52 6 139 19t217 35q-46 -46 -71 -83t-39 -63q-16 -32 -22 -54q-4 -20 8 -100t34 -189t48 -232 t52 -230t47 -182t31 -89q30 -42 38 -55t28 -23q8 -4 26 -12q16 -8 43 -20t69 -28q-78 -4 -134 -5t-92 -3q-42 -2 -72 -4q-30 0 -72 -4q-36 -4 -93 -8t-133 -8q40 28 65 51t39 39q16 20 22 36q4 18 6 54q2 32 0 85t-10 139l-526 -54q-20 -34 -30 -59t-14 -43q-6 -22 -4 -36 q4 -16 14 -38q10 -20 29 -47t57 -63q-50 2 -102 2t-96 -2q-52 -2 -102 -4t-114 -6q-54 -4 -127 -9t-157 -13zM346 1566q54 34 89 57t57 39q24 18 38 28q12 10 34 30q18 16 48 44t74 72q70 -68 110 -98q22 -18 40 -30t46 -34q24 -18 63 -47t97 -69l-242 -10l-114 164 l-116 -150zM528 528l416 36q-12 70 -22 121t-16 85q-8 40 -12 70q-6 28 -14 72q-8 38 -19 95t-27 137q-114 -228 -177 -353t-91 -183q-34 -68 -38 -80z" />
<glyph unicode="&#xc3;" d="M-204 44q52 24 88 49t60 47q28 24 48 46q14 20 56 93t95 173t112 214t107 215t78 175t30 96q-4 26 -20 58q-14 28 -43 64t-83 80q100 -6 169 -9l115 -5q52 -2 88 0t98 10q52 6 139 19t217 35q-46 -46 -71 -83t-39 -63q-16 -32 -22 -54q-4 -20 8 -100t34 -189t48 -232 t52 -230t47 -182t31 -89q30 -42 38 -55t28 -23q8 -4 26 -12q16 -8 43 -20t69 -28q-78 -4 -134 -5t-92 -3q-42 -2 -72 -4q-30 0 -72 -4q-36 -4 -93 -8t-133 -8q40 28 65 51t39 39q16 20 22 36q4 18 6 54q2 32 0 85t-10 139l-526 -54q-20 -34 -30 -59t-14 -43q-6 -22 -4 -36 q4 -16 14 -38q10 -20 29 -47t57 -63q-50 2 -102 2t-96 -2q-52 -2 -102 -4t-114 -6q-54 -4 -127 -9t-157 -13zM322 1682q36 52 73 81t69 41q36 14 70 16q42 -2 73 -22t60 -43t59 -42t72 -17q30 2 64 14q28 10 62 31t64 61l80 -164q-24 -40 -59 -60t-69 -30q-38 -10 -80 -10 q-54 2 -89 23t-62 45t-53 43t-62 17q-28 -6 -56 -20q-24 -12 -52 -37t-50 -67zM528 528l416 36q-12 70 -22 121t-16 85q-8 40 -12 70q-6 28 -14 72q-8 38 -19 95t-27 137q-114 -228 -177 -353t-91 -183q-34 -68 -38 -80z" />
<glyph unicode="&#xc4;" d="M-204 44q52 24 88 49t60 47q28 24 48 46q14 20 56 93t95 173t112 214t107 215t78 175t30 96q-4 26 -20 58q-14 28 -43 64t-83 80q100 -6 169 -9l115 -5q52 -2 88 0t98 10q52 6 139 19t217 35q-46 -46 -71 -83t-39 -63q-16 -32 -22 -54q-4 -20 8 -100t34 -189t48 -232 t52 -230t47 -182t31 -89q30 -42 38 -55t28 -23q8 -4 26 -12q16 -8 43 -20t69 -28q-78 -4 -134 -5t-92 -3q-42 -2 -72 -4q-30 0 -72 -4q-36 -4 -93 -8t-133 -8q40 28 65 51t39 39q16 20 22 36q4 18 6 54q2 32 0 85t-10 139l-526 -54q-20 -34 -30 -59t-14 -43q-6 -22 -4 -36 q4 -16 14 -38q10 -20 29 -47t57 -63q-50 2 -102 2t-96 -2q-52 -2 -102 -4t-114 -6q-54 -4 -127 -9t-157 -13zM413 1672q-1 30 11 58t38 47t66 21q36 2 65 -18t44 -50t12 -63t-29 -57q-44 -40 -102 -39t-88 47q-16 24 -17 54zM528 528l416 36q-12 70 -22 121t-16 85 q-8 40 -12 70q-6 28 -14 72q-8 38 -19 95t-27 137q-114 -228 -177 -353t-91 -183q-34 -68 -38 -80zM779 1670q-1 30 11 58t38 48t66 22q36 2 65 -19t44 -51t12 -63t-29 -57q-22 -20 -49 -29t-53 -9t-50 12t-38 34q-16 24 -17 54z" />
<glyph unicode="&#xc5;" d="M-204 44q52 24 88 49t60 47q28 24 48 46q14 20 56 93t95 173t112 214t107 215t78 175t30 96q-4 26 -20 58q-14 28 -43 64t-83 80q110 -6 184 -9t120 -5q-48 22 -81 63t-25 99q2 32 26 64t58 57t72 39t72 8q32 -6 66 -19t60 -36t43 -55t17 -76q0 -42 -16 -72t-44 -52 q52 8 118 18t156 26q-46 -46 -71 -83t-39 -63q-16 -32 -22 -54q-4 -20 8 -100t34 -189t48 -232t52 -230t47 -182t31 -89q30 -42 38 -55t28 -23q8 -4 26 -12q16 -8 43 -20t69 -28q-78 -4 -134 -5t-92 -3q-42 -2 -72 -4q-30 0 -72 -4q-36 -4 -93 -8t-133 -8q40 28 65 51t39 39 q16 20 22 36q4 18 6 54q2 32 0 85t-10 139l-526 -54q-20 -34 -30 -59t-14 -43q-6 -22 -4 -36q4 -16 14 -38q10 -20 29 -47t57 -63q-50 2 -102 2t-96 -2q-52 -2 -102 -4t-114 -6q-54 -4 -127 -9t-157 -13zM528 528l416 36q-12 70 -22 121t-16 85q-8 40 -12 70q-6 28 -14 72 q-8 38 -19 95t-27 137q-114 -228 -177 -353t-91 -183q-34 -68 -38 -80zM657 1485q-3 -37 16 -67t69 -30t73 34t23 73t-25 70t-71 25q-36 -4 -59 -36t-26 -69z" />
<glyph unicode="&#xc6;" horiz-adv-x="1832" d="M-204 4q38 28 76 60t68 60q36 34 68 68q20 22 55 77t77 131t89 167t93 184t88 182t75 163t53 125t22 69q0 28 -12 56q-10 24 -36 52t-76 54q126 -10 250 -12t226 0q118 2 226 6q60 4 146 14q74 10 186 28t266 48q-14 -64 -22 -116t-12 -88q-6 -42 -6 -76q-2 -34 -6 -78 q-4 -38 -8 -94t-14 -128q-44 86 -81 138t-65 80q-34 34 -60 48q-28 8 -76 16q-40 6 -103 8t-153 -4l-44 -434q28 -4 55 -2t49 6q26 4 52 10q24 6 50 24q22 16 51 41t59 67q-18 -80 -30 -135t-20 -91q-8 -42 -12 -70q-2 -26 -8 -60q-4 -28 -11 -68t-15 -90q-20 40 -38 67 t-34 45q-18 22 -34 34q-16 10 -36 16q-16 4 -36 4t-42 -10l-20 -332q84 -14 153 -10t119 14q58 10 102 28q44 22 96 60q46 34 106 90t130 140q-22 -70 -36 -120t-22 -84q-10 -38 -14 -66q-6 -28 -14 -64q-6 -32 -15 -78t-21 -106q-122 4 -210 3t-146 -1q-68 -2 -114 -2 q-48 -2 -118 -6q-62 -4 -156 -8t-226 -10q10 40 21 77t19 65q8 32 16 58q8 28 16 72q8 38 18 95t24 139l-296 -14q-58 -126 -89 -203t-45 -119q-18 -50 -18 -70q0 -22 15 -44t34 -40t36 -29t21 -11t-33 -2t-91 -4t-111 -5t-91 -3h-76q-40 0 -102 -1t-152 -1zM624 796l198 16 l30 368l-62 -2z" />
<glyph unicode="&#xc7;" horiz-adv-x="1214" d="M-40 616q4 68 28 159t65 187t99 188t128 165t153 118t173 45q70 0 127 -23t106 -51t93 -51t90 -23q36 2 82 10q40 8 93 25t119 51q-66 -64 -107 -107t-63 -71q-26 -32 -38 -50l-36 -66q-22 -40 -60 -107t-96 -175q0 138 -27 214t-59 116q-38 46 -86 58q-44 6 -88 -15 t-87 -61t-82 -95t-70 -115t-51 -121t-26 -113q-6 -46 -2 -107t18 -124t36 -123t55 -107t75 -76t96 -27q60 4 118 36q50 26 102 81t90 157l296 -54q-82 -102 -163 -169t-155 -109t-138 -63t-112 -29l-24 -122q64 -10 93 -34t39 -52q12 -32 6 -70q-14 -38 -50 -72 q-32 -28 -93 -56t-167 -44l4 92q58 12 91 28t49 30q18 16 22 34q0 18 -20 32q-16 12 -53 24t-107 20l32 194q-114 26 -211 89t-167 149t-108 185t-32 195z" />
<glyph unicode="&#xc8;" horiz-adv-x="1224" d="M-82 1366q140 -4 233 -5t151 -1h106h596q4 -40 7 -77t3 -65q0 -34 -2 -62t-6 -60q-4 -28 -8 -60t-14 -66q-28 108 -75 164t-95 82q-56 30 -118 32q-82 -4 -128 -14t-72 -28t-39 -41t-27 -51q-12 -24 -22 -74q-10 -42 -19 -114t-19 -186q54 16 87 30t53 24q22 12 32 22 q8 12 24 44q12 28 33 76t51 132q4 -92 4 -153t2 -99q0 -44 2 -70v-76q0 -42 1 -113t5 -179q-24 74 -43 117t-33 65q-16 26 -28 36q-14 4 -38 8q-22 2 -55 2t-83 -10q-6 -110 -1 -177t15 -103q10 -42 24 -60q18 -18 72 -29t123 -8t141 23t128 66q42 38 90 96q40 50 89 126 t97 184q-8 -90 -11 -149t-7 -95q-4 -42 -6 -64q0 -24 -6 -68q-4 -38 -13 -103t-23 -165q-94 -2 -178 -3t-148 -3q-76 -2 -140 -4q-66 0 -146 -6q-70 -4 -165 -12t-209 -22q10 136 15 257t7 213q2 108 0 200q10 230 -8 372t-42 182q-12 14 -34 34q-18 16 -50 38t-80 50z M346 1728l142 78l142 -274l-94 -56z" />
<glyph unicode="&#xc9;" horiz-adv-x="1224" d="M-82 1366q140 -4 233 -5t151 -1h106h596q4 -40 7 -77t3 -65q0 -34 -2 -62t-6 -60q-4 -28 -8 -60t-14 -66q-28 108 -75 164t-95 82q-56 30 -118 32q-82 -4 -128 -14t-72 -28t-39 -41t-27 -51q-12 -24 -22 -74q-10 -42 -19 -114t-19 -186q54 16 87 30t53 24q22 12 32 22 q8 12 24 44q12 28 33 76t51 132q4 -92 4 -153t2 -99q0 -44 2 -70v-76q0 -42 1 -113t5 -179q-24 74 -43 117t-33 65q-16 26 -28 36q-14 4 -38 8q-22 2 -55 2t-83 -10q-6 -110 -1 -177t15 -103q10 -42 24 -60q18 -18 72 -29t123 -8t141 23t128 66q42 38 90 96q40 50 89 126 t97 184q-8 -90 -11 -149t-7 -95q-4 -42 -6 -64q0 -24 -6 -68q-4 -38 -13 -103t-23 -165q-94 -2 -178 -3t-148 -3q-76 -2 -140 -4q-66 0 -146 -6q-70 -4 -165 -12t-209 -22q10 136 15 257t7 213q2 108 0 200q10 230 -8 372t-42 182q-12 14 -34 34q-18 16 -50 38t-80 50z M394 1560l212 206l100 -106l-260 -176z" />
<glyph unicode="&#xca;" horiz-adv-x="1224" d="M-82 1366q140 -4 233 -5t151 -1h106h596q4 -40 7 -77t3 -65q0 -34 -2 -62t-6 -60q-4 -28 -8 -60t-14 -66q-28 108 -75 164t-95 82q-56 30 -118 32q-82 -4 -128 -14t-72 -28t-39 -41t-27 -51q-12 -24 -22 -74q-10 -42 -19 -114t-19 -186q54 16 87 30t53 24q22 12 32 22 q8 12 24 44q12 28 33 76t51 132q4 -92 4 -153t2 -99q0 -44 2 -70v-76q0 -42 1 -113t5 -179q-24 74 -43 117t-33 65q-16 26 -28 36q-14 4 -38 8q-22 2 -55 2t-83 -10q-6 -110 -1 -177t15 -103q10 -42 24 -60q18 -18 72 -29t123 -8t141 23t128 66q42 38 90 96q40 50 89 126 t97 184q-8 -90 -11 -149t-7 -95q-4 -42 -6 -64q0 -24 -6 -68q-4 -38 -13 -103t-23 -165q-94 -2 -178 -3t-148 -3q-76 -2 -140 -4q-66 0 -146 -6q-70 -4 -165 -12t-209 -22q10 136 15 257t7 213q2 108 0 200q10 230 -8 372t-42 182q-12 14 -34 34q-18 16 -50 38t-80 50z M182 1546q54 34 89 57t57 39q24 18 38 28q12 10 34 30q18 16 48 44t74 72q70 -68 110 -98q22 -18 40 -30t46 -34q24 -18 63 -47t97 -69l-242 -10l-114 164l-116 -150z" />
<glyph unicode="&#xcb;" horiz-adv-x="1224" d="M-82 1366q140 -4 233 -5t151 -1h106h596q4 -40 7 -77t3 -65q0 -34 -2 -62t-6 -60q-4 -28 -8 -60t-14 -66q-28 108 -75 164t-95 82q-56 30 -118 32q-82 -4 -128 -14t-72 -28t-39 -41t-27 -51q-12 -24 -22 -74q-10 -42 -19 -114t-19 -186q54 16 87 30t53 24q22 12 32 22 q8 12 24 44q12 28 33 76t51 132q4 -92 4 -153t2 -99q0 -44 2 -70v-76q0 -42 1 -113t5 -179q-24 74 -43 117t-33 65q-16 26 -28 36q-14 4 -38 8q-22 2 -55 2t-83 -10q-6 -110 -1 -177t15 -103q10 -42 24 -60q18 -18 72 -29t123 -8t141 23t128 66q42 38 90 96q40 50 89 126 t97 184q-8 -90 -11 -149t-7 -95q-4 -42 -6 -64q0 -24 -6 -68q-4 -38 -13 -103t-23 -165q-94 -2 -178 -3t-148 -3q-76 -2 -140 -4q-66 0 -146 -6q-70 -4 -165 -12t-209 -22q10 136 15 257t7 213q2 108 0 200q10 230 -8 372t-42 182q-12 14 -34 34q-18 16 -50 38t-80 50z M229 1630q-1 30 11 58t38 47t66 21q36 2 65 -18t44 -50t12 -63t-29 -57q-44 -40 -102 -39t-88 47q-16 24 -17 54zM595 1628q-1 30 11 58t38 48t66 22q36 2 65 -19t44 -51t12 -63t-29 -57q-22 -20 -49 -29t-53 -9t-50 12t-38 34q-16 24 -17 54z" />
<glyph unicode="&#xcc;" horiz-adv-x="644" d="M20 1378q68 -8 115 -11t77 -7q36 -4 56 -4q22 -2 66 2q38 4 103 10t167 18q-46 -40 -73 -77t-41 -65q-18 -34 -22 -64q-8 -48 -13 -131t-9 -181t-4 -202t3 -197t12 -165t23 -104q20 -36 42 -72q20 -30 48 -62t64 -52q-118 6 -188 6h-72q-32 0 -82 -4q-42 -4 -106 -8 t-154 -12q46 50 72 96t42 80q18 40 24 76q8 52 13 129t7 166t1 182t-5 179t-11 156t-17 112q-6 26 -24 58q-16 28 -43 65t-71 83zM120 1770l142 78l142 -274l-94 -56z" />
<glyph unicode="&#xcd;" horiz-adv-x="644" d="M20 1378q68 -8 115 -11t77 -7q36 -4 56 -4q22 -2 66 2q38 4 103 10t167 18q-46 -40 -73 -77t-41 -65q-18 -34 -22 -64q-8 -48 -13 -131t-9 -181t-4 -202t3 -197t12 -165t23 -104q20 -36 42 -72q20 -30 48 -62t64 -52q-118 6 -188 6h-72q-32 0 -82 -4q-42 -4 -106 -8 t-154 -12q46 50 72 96t42 80q18 40 24 76q8 52 13 129t7 166t1 182t-5 179t-11 156t-17 112q-6 26 -24 58q-16 28 -43 65t-71 83zM250 1602l212 206l100 -106l-260 -176z" />
<glyph unicode="&#xce;" horiz-adv-x="644" d="M-24 1566q54 34 89 57t57 39q24 18 38 28q12 10 34 30q18 16 48 44t74 72q70 -68 110 -98q22 -18 40 -30t46 -34q24 -18 63 -47t97 -69l-242 -10l-114 164l-116 -150zM20 1378q68 -8 115 -11t77 -7q36 -4 56 -4q22 -2 66 2q38 4 103 10t167 18q-46 -40 -73 -77t-41 -65 q-18 -34 -22 -64q-8 -48 -13 -131t-9 -181t-4 -202t3 -197t12 -165t23 -104q20 -36 42 -72q20 -30 48 -62t64 -52q-118 6 -188 6h-72q-32 0 -82 -4q-42 -4 -106 -8t-154 -12q46 50 72 96t42 80q18 40 24 76q8 52 13 129t7 166t1 182t-5 179t-11 156t-17 112q-6 26 -24 58 q-16 28 -43 65t-71 83z" />
<glyph unicode="&#xcf;" horiz-adv-x="644" d="M20 1378q68 -8 115 -11t77 -7q36 -4 56 -4q22 -2 66 2q38 4 103 10t167 18q-46 -40 -73 -77t-41 -65q-18 -34 -22 -64q-8 -48 -13 -131t-9 -181t-4 -202t3 -197t12 -165t23 -104q20 -36 42 -72q20 -30 48 -62t64 -52q-118 6 -188 6h-72q-32 0 -82 -4q-42 -4 -106 -8 t-154 -12q46 50 72 96t42 80q18 40 24 76q8 52 13 129t7 166t1 182t-5 179t-11 156t-17 112q-6 26 -24 58q-16 28 -43 65t-71 83zM23 1652q-1 30 11 58t38 47t66 21q36 2 65 -18t44 -50t12 -63t-29 -57q-44 -40 -102 -39t-88 47q-16 24 -17 54zM389 1650q-1 30 11 58t38 48 t66 22q36 2 65 -19t44 -51t12 -63t-29 -57q-22 -20 -49 -29t-53 -9t-50 12t-38 34q-16 24 -17 54z" />
<glyph unicode="&#xd0;" horiz-adv-x="1360" d="M20 -6q46 22 75 44t45 38q18 20 26 36q8 22 16 86q8 54 17 154t19 272l-154 10l-6 130l168 20q4 126 5 207t-3 127q-4 54 -10 80q-8 24 -30 52q-20 24 -55 58t-93 78q70 -10 122 -16t86 -10q40 -4 68 -6q32 -4 79 4t100 17t111 16t112 1q36 -4 92 -16t119 -38t127 -69 t117 -107t87 -152t38 -206q6 -176 -33 -319t-118 -246t-199 -161t-278 -64q-122 -10 -240 -18q-50 -4 -105 -6t-109 -3t-104 1t-92 6zM458 796l190 8v-140l-186 -14q-2 -178 13 -273t35 -141q22 -52 52 -60q38 -2 86 31t95 101t85 170t56 238t-9 241t-73 176t-94 108t-72 37 q-28 0 -50 -15t-62 -69q-16 -28 -30 -80q-12 -46 -22 -122t-14 -196z" />
<glyph unicode="&#xd1;" horiz-adv-x="1318" d="M-10 1418q90 -16 148 -22t94 -10q42 -4 66 -2h60q32 0 81 1t123 1q42 -98 77 -180t59 -140q28 -70 52 -126q28 -70 60 -154t59 -158t45 -122t18 -44q0 2 2 41t4 98t5 130t4 138t1 123t-4 84q-6 34 -24 78q-16 38 -44 91t-78 121q82 -2 134 -2h84q36 0 56 2q26 0 64 4 q34 4 85 7t127 9q-44 -40 -70 -76t-42 -64q-18 -32 -24 -60q-8 -36 -13 -117t-10 -181t-9 -208t-8 -198q0 -68 -4 -146q-4 -66 -8 -149t-10 -167l-178 -4q-78 138 -131 237t-87 163q-38 74 -64 124q-22 48 -58 110q-30 52 -75 128t-107 174q-6 -138 -5 -235t5 -161 q6 -74 14 -124q10 -48 28 -108q16 -52 39 -122t57 -158q-118 6 -176 6h-60q-28 0 -76 -6q-40 -4 -109 -12t-171 -22q48 58 77 107t45 83q20 40 28 70q6 32 8 111t1 180t-4 213t-7 208t-9 164t-7 84q-6 26 -24 56q-16 26 -42 59t-72 73zM260 1682q36 52 73 81t69 41 q36 14 70 16q42 -2 73 -22t60 -43t59 -42t72 -17q30 2 64 14q28 10 62 31t64 61l80 -164q-24 -40 -59 -60t-69 -30q-38 -10 -80 -10q-54 2 -89 23t-62 45t-53 43t-62 17q-28 -6 -56 -20q-24 -12 -52 -37t-50 -67z" />
<glyph unicode="&#xd2;" horiz-adv-x="1460" d="M45 823q9 97 38 194t82 188t135 160t193 108t257 35q108 -4 219 -39t205 -112t160 -198t82 -295q14 -142 -35 -281t-135 -255t-198 -197t-224 -107q-68 -16 -149 -3t-164 50t-162 95t-143 133t-107 163t-53 184q-10 80 -1 177zM392 698q-28 -214 41 -344t209 -158 q68 -14 131 29t115 125t90 192t56 230t3 217t-51 166t-87 107t-105 42q-94 6 -164 -49t-118 -143t-77 -198t-43 -216zM672 1852l142 78l142 -274l-94 -56z" />
<glyph unicode="&#xd3;" horiz-adv-x="1460" d="M45 823q9 97 38 194t82 188t135 160t193 108t257 35q108 -4 219 -39t205 -112t160 -198t82 -295q14 -142 -35 -281t-135 -255t-198 -197t-224 -107q-68 -16 -149 -3t-164 50t-162 95t-143 133t-107 163t-53 184q-10 80 -1 177zM392 698q-28 -214 41 -344t209 -158 q68 -14 131 29t115 125t90 192t56 230t3 217t-51 166t-87 107t-105 42q-94 6 -164 -49t-118 -143t-77 -198t-43 -216zM678 1704l212 206l100 -106l-260 -176z" />
<glyph unicode="&#xd4;" horiz-adv-x="1460" d="M45 823q9 97 38 194t82 188t135 160t193 108t257 35q108 -4 219 -39t205 -112t160 -198t82 -295q14 -142 -35 -281t-135 -255t-198 -197t-224 -107q-68 -16 -149 -3t-164 50t-162 95t-143 133t-107 163t-53 184q-10 80 -1 177zM392 698q-28 -214 41 -344t209 -158 q68 -14 131 29t115 125t90 192t56 230t3 217t-51 166t-87 107t-105 42q-94 6 -164 -49t-118 -143t-77 -198t-43 -216zM404 1648q54 34 89 57t57 39q24 18 38 28q12 10 34 30q18 16 48 44t74 72q70 -68 110 -98q22 -18 40 -30t46 -34q24 -18 63 -47t97 -69l-242 -10l-114 164 l-116 -150z" />
<glyph unicode="&#xd5;" horiz-adv-x="1460" d="M45 823q9 97 38 194t82 188t135 160t193 108t257 35q108 -4 219 -39t205 -112t160 -198t82 -295q14 -142 -35 -281t-135 -255t-198 -197t-224 -107q-68 -16 -149 -3t-164 50t-162 95t-143 133t-107 163t-53 184q-10 80 -1 177zM392 698q-28 -214 41 -344t209 -158 q68 -14 131 29t115 125t90 192t56 230t3 217t-51 166t-87 107t-105 42q-94 6 -164 -49t-118 -143t-77 -198t-43 -216zM400 1784q36 52 73 81t69 41q36 14 70 16q42 -2 73 -22t60 -43t59 -42t72 -17q30 2 64 14q28 10 62 31t64 61l80 -164q-24 -40 -59 -60t-69 -30 q-38 -10 -80 -10q-54 2 -89 23t-62 45t-53 43t-62 17q-28 -6 -56 -20q-24 -12 -52 -37t-50 -67z" />
<glyph unicode="&#xd6;" horiz-adv-x="1460" d="M45 823q9 97 38 194t82 188t135 160t193 108t257 35q108 -4 219 -39t205 -112t160 -198t82 -295q14 -142 -35 -281t-135 -255t-198 -197t-224 -107q-68 -16 -149 -3t-164 50t-162 95t-143 133t-107 163t-53 184q-10 80 -1 177zM392 698q-28 -214 41 -344t209 -158 q68 -14 131 29t115 125t90 192t56 230t3 217t-51 166t-87 107t-105 42q-94 6 -164 -49t-118 -143t-77 -198t-43 -216zM451 1754q-1 30 11 58t38 47t66 21q36 2 65 -18t44 -50t12 -63t-29 -57q-44 -40 -102 -39t-88 47q-16 24 -17 54zM817 1752q-1 30 11 58t38 48t66 22 q36 2 65 -19t44 -51t12 -63t-29 -57q-22 -20 -49 -29t-53 -9t-50 12t-38 34q-16 24 -17 54z" />
<glyph unicode="&#xd7;" horiz-adv-x="1008" d="M30 366q70 48 114 79t68 49q28 22 42 32q10 8 30 26q16 16 41 39t65 61q-34 30 -59 51t-41 35q-20 16 -32 28q-16 12 -44 34q-24 20 -65 51t-105 79l142 138q48 -50 80 -81t50 -49q22 -22 34 -30q18 -14 40 -36q20 -18 49 -43t65 -59l178 160q16 14 38 36q20 20 51 49 t77 75l124 -152q-76 -48 -106 -72q-22 -16 -34 -28q-14 -16 -42 -40q-24 -22 -64 -58t-102 -92q54 -50 91 -82t59 -52q26 -22 44 -36q18 -12 40 -34q20 -18 49 -45t69 -65q-50 -44 -80 -69t-46 -38t-23 -17t-9 -4q-10 4 -26 24q-10 14 -34 40q-22 24 -44 50t-38 42 q-14 14 -36 38q-20 20 -52 53t-80 79q-12 -10 -26 -19t-24 -19q-14 -10 -26 -20q-18 -16 -48 -48q-26 -28 -70 -77t-108 -125z" />
<glyph unicode="&#xd8;" horiz-adv-x="1514" d="M68 522q-12 128 4 268q28 182 93 296t144 181t165 97t156 46q56 10 124 8q58 -2 137 -17t169 -55q18 28 33 55t25 47l24 44q4 12 12 26q4 12 11 28t13 34l206 -160q-14 -8 -25 -19l-21 -21q-10 -12 -22 -26q-14 -18 -26 -38q-10 -16 -23 -36t-23 -42q2 0 38 -36t76 -107 t70 -178t24 -249q-4 -90 -29 -182t-78 -178t-135 -161t-198 -129q-114 -52 -220 -57t-189 10t-134 35t-53 18q-4 -6 -14 -20l-40 -56q-12 -16 -22 -36q-10 -16 -20 -37t-18 -43l-160 136l124 136q-52 38 -87 87t-58 105t-35 114t-18 112zM436 834q-2 -76 13 -167t55 -199 q50 70 84 121t56 85q24 38 42 64q18 28 50 80q28 46 73 122t115 196q-48 82 -99 109t-93 31q-50 2 -94 -20q-94 -68 -146 -178q-22 -48 -38 -108t-18 -136zM586 320q18 -52 43 -87t54 -55t59 -29t60 -11q68 -4 144 28q72 44 110 144q16 42 28 101t12 137t-13 177t-45 223 q-68 -82 -115 -141t-77 -99q-36 -46 -60 -76q-22 -32 -52 -78q-26 -40 -64 -98t-84 -136z" />
<glyph unicode="&#xd9;" horiz-adv-x="1270" d="M0 1406q60 -12 102 -18l70 -10q32 -4 54 -4t60 2q34 2 86 3t132 5q-46 -32 -74 -54t-42 -38q-18 -18 -22 -30q-4 -8 -8 -59t-7 -128t-1 -172t11 -193t27 -189t49 -159t76 -106t109 -28q84 12 136 82t79 170t34 215t2 216t-17 175t-22 92q-12 20 -32 46q-16 22 -42 51 t-60 63q62 -2 112 -3t84 -3q40 -2 72 -4t80 -6q40 -4 103 -8t151 -12q-34 -8 -55 -22t-33 -30q-14 -18 -20 -36q-6 -16 -9 -95t-8 -190t-15 -240t-31 -245t-54 -206t-85 -124q-76 -50 -160 -71t-170 -22t-169 14t-159 37q-78 24 -129 108t-80 199t-42 248t-16 257t0 225 t5 153q0 26 -8 50q-6 22 -21 47t-43 47zM490 1708l142 78l142 -274l-94 -56z" />
<glyph unicode="&#xda;" horiz-adv-x="1270" d="M0 1406q60 -12 102 -18l70 -10q32 -4 54 -4t60 2q34 2 86 3t132 5q-46 -32 -74 -54t-42 -38q-18 -18 -22 -30q-4 -8 -8 -59t-7 -128t-1 -172t11 -193t27 -189t49 -159t76 -106t109 -28q84 12 136 82t79 170t34 215t2 216t-17 175t-22 92q-12 20 -32 46q-16 22 -42 51 t-60 63q62 -2 112 -3t84 -3q40 -2 72 -4t80 -6q40 -4 103 -8t151 -12q-34 -8 -55 -22t-33 -30q-14 -18 -20 -36q-6 -16 -9 -95t-8 -190t-15 -240t-31 -245t-54 -206t-85 -124q-76 -50 -160 -71t-170 -22t-169 14t-159 37q-78 24 -129 108t-80 199t-42 248t-16 257t0 225 t5 153q0 26 -8 50q-6 22 -21 47t-43 47zM596 1540l212 206l100 -106l-260 -176z" />
<glyph unicode="&#xdb;" horiz-adv-x="1270" d="M0 1406q60 -12 102 -18l70 -10q32 -4 54 -4t60 2q34 2 86 3t132 5q-46 -32 -74 -54t-42 -38q-18 -18 -22 -30q-4 -8 -8 -59t-7 -128t-1 -172t11 -193t27 -189t49 -159t76 -106t109 -28q84 12 136 82t79 170t34 215t2 216t-17 175t-22 92q-12 20 -32 46q-16 22 -42 51 t-60 63q62 -2 112 -3t84 -3q40 -2 72 -4t80 -6q40 -4 103 -8t151 -12q-34 -8 -55 -22t-33 -30q-14 -18 -20 -36q-6 -16 -9 -95t-8 -190t-15 -240t-31 -245t-54 -206t-85 -124q-76 -50 -160 -71t-170 -22t-169 14t-159 37q-78 24 -129 108t-80 199t-42 248t-16 257t0 225 t5 153q0 26 -8 50q-6 22 -21 47t-43 47zM284 1546q54 34 89 57t57 39q24 18 38 28q12 10 34 30q18 16 48 44t74 72q70 -68 110 -98q22 -18 40 -30t46 -34q24 -18 63 -47t97 -69l-242 -10l-114 164l-116 -150z" />
<glyph unicode="&#xdc;" horiz-adv-x="1270" d="M0 1406q60 -12 102 -18l70 -10q32 -4 54 -4t60 2q34 2 86 3t132 5q-46 -32 -74 -54t-42 -38q-18 -18 -22 -30q-4 -8 -8 -59t-7 -128t-1 -172t11 -193t27 -189t49 -159t76 -106t109 -28q84 12 136 82t79 170t34 215t2 216t-17 175t-22 92q-12 20 -32 46q-16 22 -42 51 t-60 63q62 -2 112 -3t84 -3q40 -2 72 -4t80 -6q40 -4 103 -8t151 -12q-34 -8 -55 -22t-33 -30q-14 -18 -20 -36q-6 -16 -9 -95t-8 -190t-15 -240t-31 -245t-54 -206t-85 -124q-76 -50 -160 -71t-170 -22t-169 14t-159 37q-78 24 -129 108t-80 199t-42 248t-16 257t0 225 t5 153q0 26 -8 50q-6 22 -21 47t-43 47zM331 1630q-1 30 11 58t38 47t66 21q36 2 65 -18t44 -50t12 -63t-29 -57q-44 -40 -102 -39t-88 47q-16 24 -17 54zM697 1628q-1 30 11 58t38 48t66 22q36 2 65 -19t44 -51t12 -63t-29 -57q-22 -20 -49 -29t-53 -9t-50 12t-38 34 q-16 24 -17 54z" />
<glyph unicode="&#xdd;" horiz-adv-x="1094" d="M-286 1420q86 -8 152 -12t110 -8q52 -4 88 -6t88 -2q44 -2 110 -2h156q-58 -28 -89 -52t-47 -42q-20 -22 -24 -40q-2 -16 8 -54t28 -85t44 -99t55 -93t59 -67t58 -24t68 27t83 63t85 82t75 86t54 77t21 51q-2 20 -16 46q-12 22 -40 53t-78 71q164 -6 240 -6h74h84 q46 0 122 1t190 5q-78 -52 -135 -93t-97 -69q-46 -34 -76 -60q-34 -28 -94 -88q-52 -52 -138 -139t-216 -225q-18 -146 -23 -236t-5 -142q0 -60 8 -90q10 -24 34 -56q20 -28 57 -66t99 -84q-66 16 -123 24t-101 12q-52 6 -94 6q-44 0 -104 -4q-52 -4 -124 -10t-168 -18 q50 34 82 68t50 62q22 32 32 60q8 32 12 92q4 52 1 138t-13 218q-120 192 -196 303t-118 169q-50 66 -72 88q-20 16 -54 40q-28 22 -73 53t-109 77zM558 1560l212 206l100 -106l-260 -176z" />
<glyph unicode="&#xde;" horiz-adv-x="1192" d="M-72 1432q76 -18 137 -27t103 -13q50 -6 88 -4q18 0 44 3t56 6t62 7t60 8l-104 -216q-6 -16 -9 -33t-7 -29q-4 -16 -6 -28q54 8 116 18t125 18t122 12t105 0q58 -6 122 -27t120 -56t97 -85t51 -116q10 -64 -12 -137t-70 -142t-120 -127t-160 -94q-72 -28 -148 -40 t-143 -13t-122 4t-85 9q12 -36 28 -80q14 -38 34 -90t48 -114q-36 0 -70 -1t-62 -3q-32 -2 -60 -4q-32 -2 -72 -8q-34 -4 -85 -12t-115 -20q42 60 67 111t37 89q14 44 18 80q2 30 1 106t-3 176t-6 210t-10 207t-13 167t-13 92q-8 26 -28 56q-16 26 -45 61t-73 79zM328 568 q16 -18 45 -40t70 -35t94 -11t117 30q58 26 93 67t52 88t17 97t-11 95t-32 78t-47 49q-34 20 -90 13t-114 -24t-108 -38t-70 -29v-8q0 -4 1 -6t1 -6l-8 -260q-4 -10 -5 -20t-3 -20t-2 -20z" />
<glyph unicode="&#xdf;" horiz-adv-x="1478" d="M10 740q4 16 5 33t3 31q2 16 2 30v30q0 14 1 30t3 32l158 -4q-10 86 -8 155t6 119q6 58 16 102q14 54 38 100t66 78t104 49t150 17q152 -2 249 -41t153 -96t77 -121t21 -114q0 -52 -33 -111t-73 -113t-76 -93t-44 -51q-8 -10 -17 -30t-14 -43t-3 -46t18 -39 q10 -10 52 -27t101 -38t126 -45t127 -48t104 -48t58 -44q20 -30 40 -86t15 -117t-49 -119t-152 -92q-84 -28 -163 -16t-144 36t-113 47t-68 19q-22 -4 -49 -21t-53 -37t-43 -34t-17 -10t7 24t16 49t18 63t13 66q4 28 10 66q4 34 10 83t16 117q12 -52 30 -91t36 -65 q22 -30 44 -52q30 -28 70 -53t82 -41t81 -21t65 9q26 12 44 44t27 69t6 72t-19 57q-12 14 -55 36t-101 48t-124 55t-122 58t-94 55t-42 48q-4 32 -4 69t9 75t30 74t57 66q36 32 68 52t55 45t37 61t14 100q0 36 -44 79t-103 79t-117 58t-86 16q-42 -16 -78 -78 q-30 -52 -58 -157t-36 -291q34 -276 60 -443t42 -255q20 -106 30 -146q12 -32 28 -56q14 -22 34 -42t46 -26q-64 10 -110 15t-78 7q-36 2 -62 2q-24 -2 -58 -6q-58 -6 -160 -30q40 28 64 74t36 90q14 52 18 108q0 34 -4 108q-4 62 -12 171t-24 283q-22 -2 -38 -3t-26 -1h-22 q-10 0 -24 -2q-12 -2 -31 -6t-45 -10z" />
<glyph unicode="&#xe0;" horiz-adv-x="1100" d="M67 299q-13 57 1 127t50 118t86 78t112 46t128 22q52 2 104 -6q44 -8 92 -29t82 -63q-2 106 -7 169t-9 97q-8 40 -14 56q-10 14 -21 32t-27 33t-40 25t-56 8q-34 -2 -54 -18t-31 -37t-13 -45t2 -42q4 -12 12 -26q8 -12 22 -26t38 -24q-46 -6 -82 -9t-62 -7q-30 -4 -52 -6 t-52 -8q-26 -4 -64 -10t-88 -16q12 14 22 27t18 23q8 12 16 22q10 12 13 45t16 75t45 88t104 86q70 40 136 48t126 -6t113 -44t97 -66q30 -24 48 -69t28 -101t15 -117t7 -118t3 -104t7 -77q8 -44 28 -75t44 -52t48 -33t42 -18q12 -6 22 -8q20 -8 28 0q-12 -28 -22 -48 t-16 -34q-8 -16 -14 -26q-6 -12 -14 -22q-6 -10 -16 -22t-20 -26q-26 10 -49 24t-41 26q-22 14 -40 28t-34 32q-14 16 -29 34t-25 40q-12 -26 -57 -74t-117 -87t-167 -55t-209 22q-50 16 -94 47t-75 75t-44 101zM278 374q0 -42 21 -73t56 -51t76 -24t81 8q38 14 72 45t58 68 t34 74t2 61q-16 52 -72 73t-126 17q-36 -2 -72 -17t-64 -42t-47 -62t-19 -77zM346 1524l142 78l142 -274l-94 -56z" />
<glyph unicode="&#xe1;" horiz-adv-x="1100" d="M67 299q-13 57 1 127t50 118t86 78t112 46t128 22q52 2 104 -6q44 -8 92 -29t82 -63q-2 106 -7 169t-9 97q-8 40 -14 56q-10 14 -21 32t-27 33t-40 25t-56 8q-34 -2 -54 -18t-31 -37t-13 -45t2 -42q4 -12 12 -26q8 -12 22 -26t38 -24q-46 -6 -82 -9t-62 -7q-30 -4 -52 -6 t-52 -8q-26 -4 -64 -10t-88 -16q12 14 22 27t18 23q8 12 16 22q10 12 13 45t16 75t45 88t104 86q70 40 136 48t126 -6t113 -44t97 -66q30 -24 48 -69t28 -101t15 -117t7 -118t3 -104t7 -77q8 -44 28 -75t44 -52t48 -33t42 -18q12 -6 22 -8q20 -8 28 0q-12 -28 -22 -48 t-16 -34q-8 -16 -14 -26q-6 -12 -14 -22q-6 -10 -16 -22t-20 -26q-26 10 -49 24t-41 26q-22 14 -40 28t-34 32q-14 16 -29 34t-25 40q-12 -26 -57 -74t-117 -87t-167 -55t-209 22q-50 16 -94 47t-75 75t-44 101zM278 374q0 -42 21 -73t56 -51t76 -24t81 8q38 14 72 45t58 68 t34 74t2 61q-16 52 -72 73t-126 17q-36 -2 -72 -17t-64 -42t-47 -62t-19 -77zM394 1358l212 206l100 -106l-260 -176z" />
<glyph unicode="&#xe2;" horiz-adv-x="1100" d="M67 299q-13 57 1 127t50 118t86 78t112 46t128 22q52 2 104 -6q44 -8 92 -29t82 -63q-2 106 -7 169t-9 97q-8 40 -14 56q-10 14 -21 32t-27 33t-40 25t-56 8q-34 -2 -54 -18t-31 -37t-13 -45t2 -42q4 -12 12 -26q8 -12 22 -26t38 -24q-46 -6 -82 -9t-62 -7q-30 -4 -52 -6 t-52 -8q-26 -4 -64 -10t-88 -16q12 14 22 27t18 23q8 12 16 22q10 12 13 45t16 75t45 88t104 86q70 40 136 48t126 -6t113 -44t97 -66q30 -24 48 -69t28 -101t15 -117t7 -118t3 -104t7 -77q8 -44 28 -75t44 -52t48 -33t42 -18q12 -6 22 -8q20 -8 28 0q-12 -28 -22 -48 t-16 -34q-8 -16 -14 -26q-6 -12 -14 -22q-6 -10 -16 -22t-20 -26q-26 10 -49 24t-41 26q-22 14 -40 28t-34 32q-14 16 -29 34t-25 40q-12 -26 -57 -74t-117 -87t-167 -55t-209 22q-50 16 -94 47t-75 75t-44 101zM202 1320q54 34 89 57t57 39q24 18 38 28q12 10 34 30 q18 16 48 44t74 72q70 -68 110 -98q22 -18 40 -30t46 -34q24 -18 63 -47t97 -69l-242 -10l-114 164l-116 -150zM278 374q0 -42 21 -73t56 -51t76 -24t81 8q38 14 72 45t58 68t34 74t2 61q-16 52 -72 73t-126 17q-36 -2 -72 -17t-64 -42t-47 -62t-19 -77z" />
<glyph unicode="&#xe3;" horiz-adv-x="1100" d="M67 299q-13 57 1 127t50 118t86 78t112 46t128 22q52 2 104 -6q44 -8 92 -29t82 -63q-2 106 -7 169t-9 97q-8 40 -14 56q-10 14 -21 32t-27 33t-40 25t-56 8q-34 -2 -54 -18t-31 -37t-13 -45t2 -42q4 -12 12 -26q8 -12 22 -26t38 -24q-46 -6 -82 -9t-62 -7q-30 -4 -52 -6 t-52 -8q-26 -4 -64 -10t-88 -16q12 14 22 27t18 23q8 12 16 22q10 12 13 45t16 75t45 88t104 86q70 40 136 48t126 -6t113 -44t97 -66q30 -24 48 -69t28 -101t15 -117t7 -118t3 -104t7 -77q8 -44 28 -75t44 -52t48 -33t42 -18q12 -6 22 -8q20 -8 28 0q-12 -28 -22 -48 t-16 -34q-8 -16 -14 -26q-6 -12 -14 -22q-6 -10 -16 -22t-20 -26q-26 10 -49 24t-41 26q-22 14 -40 28t-34 32q-14 16 -29 34t-25 40q-12 -26 -57 -74t-117 -87t-167 -55t-209 22q-50 16 -94 47t-75 75t-44 101zM178 1418q36 52 73 81t69 41q36 14 70 16q42 -2 73 -22 t60 -43t59 -42t72 -17q30 2 64 14q28 10 62 31t64 61l80 -164q-24 -40 -59 -60t-69 -30q-38 -10 -80 -10q-54 2 -89 23t-62 45t-53 43t-62 17q-28 -6 -56 -20q-24 -12 -52 -37t-50 -67zM278 374q0 -42 21 -73t56 -51t76 -24t81 8q38 14 72 45t58 68t34 74t2 61 q-16 52 -72 73t-126 17q-36 -2 -72 -17t-64 -42t-47 -62t-19 -77z" />
<glyph unicode="&#xe4;" horiz-adv-x="1100" d="M67 299q-13 57 1 127t50 118t86 78t112 46t128 22q52 2 104 -6q44 -8 92 -29t82 -63q-2 106 -7 169t-9 97q-8 40 -14 56q-10 14 -21 32t-27 33t-40 25t-56 8q-34 -2 -54 -18t-31 -37t-13 -45t2 -42q4 -12 12 -26q8 -12 22 -26t38 -24q-46 -6 -82 -9t-62 -7q-30 -4 -52 -6 t-52 -8q-26 -4 -64 -10t-88 -16q12 14 22 27t18 23q8 12 16 22q10 12 13 45t16 75t45 88t104 86q70 40 136 48t126 -6t113 -44t97 -66q30 -24 48 -69t28 -101t15 -117t7 -118t3 -104t7 -77q8 -44 28 -75t44 -52t48 -33t42 -18q12 -6 22 -8q20 -8 28 0q-12 -28 -22 -48 t-16 -34q-8 -16 -14 -26q-6 -12 -14 -22q-6 -10 -16 -22t-20 -26q-26 10 -49 24t-41 26q-22 14 -40 28t-34 32q-14 16 -29 34t-25 40q-12 -26 -57 -74t-117 -87t-167 -55t-209 22q-50 16 -94 47t-75 75t-44 101zM249 1366q-1 30 11 58t38 47t66 21q36 2 65 -18t44 -50 t12 -63t-29 -57q-44 -40 -102 -39t-88 47q-16 24 -17 54zM278 374q0 -42 21 -73t56 -51t76 -24t81 8q38 14 72 45t58 68t34 74t2 61q-16 52 -72 73t-126 17q-36 -2 -72 -17t-64 -42t-47 -62t-19 -77zM615 1364q-1 30 11 58t38 48t66 22q36 2 65 -19t44 -51t12 -63t-29 -57 q-22 -20 -49 -29t-53 -9t-50 12t-38 34q-16 24 -17 54z" />
<glyph unicode="&#xe5;" horiz-adv-x="1100" d="M67 299q-13 57 1 127t50 118t86 78t112 46t128 22q52 2 104 -6q44 -8 92 -29t82 -63q-2 106 -7 169t-9 97q-8 40 -14 56q-10 14 -21 32t-27 33t-40 25t-56 8q-34 -2 -54 -18t-31 -37t-13 -45t2 -42q4 -12 12 -26q8 -12 22 -26t38 -24l-196 -22q-22 -2 -52 -8 q-26 -4 -64 -10t-88 -16q12 14 22 27t18 23q8 12 16 22q10 12 13 45t16 75t45 88t104 86q24 16 49 25t49 15q-58 18 -103 61t-37 113q4 32 28 64t58 57t72 39t72 8q32 -6 66 -19t60 -36t43 -55t17 -76q0 -60 -33 -98t-81 -56q60 -12 114 -43t98 -67q30 -24 48 -69t28 -101 t15 -117t7 -118t3 -104t7 -77q8 -44 28 -75t44 -52t48 -33t42 -18q12 -6 22 -8q20 -8 28 0q-12 -28 -22 -48t-16 -34q-8 -16 -14 -26q-6 -12 -14 -22q-6 -10 -16 -22t-20 -26q-26 10 -49 24t-41 26q-22 14 -40 28t-34 32q-14 16 -29 34t-25 40q-12 -26 -57 -74t-117 -87 t-167 -55t-209 22q-50 16 -94 47t-75 75t-44 101zM278 374q0 -42 21 -73t56 -51t76 -24t81 8q38 14 72 45t58 68t34 74t2 61q-16 52 -72 73t-126 17q-36 -2 -72 -17t-64 -42t-47 -62t-19 -77zM451 1301q-3 -37 16 -67t69 -30t74 34t23 73t-26 70t-71 25q-36 -4 -59 -36 t-26 -69z" />
<glyph unicode="&#xe6;" horiz-adv-x="1662" d="M57 298q-13 56 1 126q14 72 50 120t86 78t112 45t128 21q52 2 104 -6q44 -8 91 -28t81 -62q-2 106 -7 168t-9 96q-6 38 -12 56q-10 16 -21 34t-27 33t-40 24t-56 7q-34 -2 -54 -17t-31 -37t-13 -45t2 -41q4 -14 12 -28q8 -12 22 -25t38 -25q-46 -6 -82 -9t-62 -7 q-30 -4 -52 -6q-22 -4 -52 -8q-26 -4 -64 -9t-88 -15q12 12 22 25t18 23q8 12 16 22q10 14 13 47t16 75t45 88t104 86q48 22 114 30q56 6 134 -6t178 -58q40 34 96 54t108 30q60 12 122 18q136 -2 246 -58q46 -24 91 -64t80 -98t58 -138t25 -188q-124 -12 -219 -22t-166 -18 t-119 -13t-78 -9q-74 -8 -82 -14q0 -52 22 -102t49 -89t52 -63t31 -26q20 -2 72 6q46 8 131 25t235 57q-4 -48 0 -76q2 -16 4 -26q2 -14 6 -30q4 -14 7 -33t9 -41q-178 -40 -301 -43t-199 9q-90 14 -146 44q-18 14 -36 30q-16 14 -30 33t-22 43q-12 -26 -57 -74t-117 -87 t-167 -55t-209 22q-50 18 -94 49t-75 75t-44 100zM268 374q0 -42 21 -74t56 -51t76 -24t81 9q38 12 72 43t58 68t34 74t2 63q-16 50 -72 71t-128 17q-36 -2 -71 -17t-64 -41t-47 -61t-18 -77zM942 720l432 14q2 126 -33 194t-75 100q-50 36 -110 42q-62 -6 -110 -44 q-20 -16 -39 -42t-34 -63t-24 -86t-7 -115z" />
<glyph unicode="&#xe7;" horiz-adv-x="1088" d="M42 659q4 77 36 155t102 150q106 108 227 141t229 18t192 -63t118 -104t51 -85t26 -44t16 -22t21 -19q10 -10 24 -22q12 -10 28 -24t36 -30q-24 4 -59 6t-67 2q-36 0 -76 -2l-84 -4q-36 -2 -81 -5t-87 -7q16 8 29 22t23 28q10 16 18 34q10 30 -2 73t-43 79t-78 57t-103 9 q-60 -14 -107 -42t-78 -77t-44 -120t-7 -169q8 -122 40 -194t78 -108t101 -43t109 -1q38 8 70 34q26 22 48 64t20 116l244 10q-42 -118 -102 -187t-116 -107q-66 -44 -132 -60q-10 -2 -22 -3t-22 -3l-28 -138q64 -10 93 -34t39 -52q12 -32 8 -70q-14 -38 -50 -72 q-32 -28 -94 -56t-168 -44l4 92q58 12 91 28t49 30q18 16 22 34q0 18 -20 32q-16 12 -52 24t-106 20l34 210q-66 14 -119 41t-101 61q-26 18 -58 60t-60 101t-46 131t-14 149z" />
<glyph unicode="&#xe8;" horiz-adv-x="1132" d="M52 612q-2 64 38 134t113 128t177 95t228 37q72 0 133 -17t112 -45t89 -63t64 -71q26 -38 44 -80q16 -36 26 -82t6 -94q-152 -4 -245 -6t-145 -2h-90h-68q-36 0 -94 -2t-142 -6q10 -80 51 -123t87 -65q52 -24 114 -28q56 0 104 12q40 10 77 33t49 69q40 -8 68 -13t48 -9 q22 -6 38 -8q16 -4 38 -8q20 -4 49 -9t69 -13q-30 4 -61 -6t-59 -22q-32 -14 -60 -34q-18 -12 -41 -36t-65 -46t-111 -37t-177 -11q-130 4 -218 47t-142 106t-78 137t-26 138zM370 682q64 -4 107 -6t71 -4q30 -2 48 -2h50q50 0 186 6q-6 88 -37 134t-65 68q-40 24 -88 28 q-130 -2 -193 -54t-79 -170zM428 1382l142 78l142 -274l-94 -56z" />
<glyph unicode="&#xe9;" horiz-adv-x="1132" d="M52 612q-2 64 38 134t113 128t177 95t228 37q72 0 133 -17t112 -45t89 -63t64 -71q26 -38 44 -80q16 -36 26 -82t6 -94q-152 -4 -245 -6t-145 -2h-90h-68q-36 0 -94 -2t-142 -6q10 -80 51 -123t87 -65q52 -24 114 -28q56 0 104 12q40 10 77 33t49 69q40 -8 68 -13t48 -9 q22 -6 38 -8q16 -4 38 -8q20 -4 49 -9t69 -13q-30 4 -61 -6t-59 -22q-32 -14 -60 -34q-18 -12 -41 -36t-65 -46t-111 -37t-177 -11q-130 4 -218 47t-142 106t-78 137t-26 138zM370 682q64 -4 107 -6t71 -4q30 -2 48 -2h50q50 0 186 6q-6 88 -37 134t-65 68q-40 24 -88 28 q-130 -2 -193 -54t-79 -170zM456 1174l212 206l100 -106l-260 -176z" />
<glyph unicode="&#xea;" horiz-adv-x="1132" d="M52 612q-2 64 38 134t113 128t177 95t228 37q72 0 133 -17t112 -45t89 -63t64 -71q26 -38 44 -80q16 -36 26 -82t6 -94q-152 -4 -245 -6t-145 -2h-90h-68q-36 0 -94 -2t-142 -6q10 -80 51 -123t87 -65q52 -24 114 -28q56 0 104 12q40 10 77 33t49 69q40 -8 68 -13t48 -9 q22 -6 38 -8q16 -4 38 -8q20 -4 49 -9t69 -13q-30 4 -61 -6t-59 -22q-32 -14 -60 -34q-18 -12 -41 -36t-65 -46t-111 -37t-177 -11q-130 4 -218 47t-142 106t-78 137t-26 138zM264 1158q54 34 89 57t57 39q24 18 38 28q12 10 34 30q18 16 48 44t74 72q70 -68 110 -98 q22 -18 40 -30t46 -34q24 -18 63 -47t97 -69l-242 -10l-114 164l-116 -150zM370 682q64 -4 107 -6t71 -4q30 -2 48 -2h50q50 0 186 6q-6 88 -37 134t-65 68q-40 24 -88 28q-130 -2 -193 -54t-79 -170z" />
<glyph unicode="&#xeb;" horiz-adv-x="1132" d="M52 612q-2 64 38 134t113 128t177 95t228 37q72 0 133 -17t112 -45t89 -63t64 -71q26 -38 44 -80q16 -36 26 -82t6 -94q-152 -4 -245 -6t-145 -2h-90h-68q-36 0 -94 -2t-142 -6q10 -80 51 -123t87 -65q52 -24 114 -28q56 0 104 12q40 10 77 33t49 69q40 -8 68 -13t48 -9 q22 -6 38 -8q16 -4 38 -8q20 -4 49 -9t69 -13q-30 4 -61 -6t-59 -22q-32 -14 -60 -34q-18 -12 -41 -36t-65 -46t-111 -37t-177 -11q-130 4 -218 47t-142 106t-78 137t-26 138zM311 1244q-1 30 11 58t38 47t66 21q36 2 65 -18t44 -50t12 -63t-29 -57q-44 -40 -102 -39t-88 47 q-16 24 -17 54zM370 682q64 -4 107 -6t71 -4q30 -2 48 -2h50q50 0 186 6q-6 88 -37 134t-65 68q-40 24 -88 28q-130 -2 -193 -54t-79 -170zM677 1242q-1 30 11 58t38 48t66 22q36 2 65 -19t44 -51t12 -63t-29 -57q-22 -20 -49 -29t-53 -9t-50 12t-38 34q-16 24 -17 54z" />
<glyph unicode="&#xec;" horiz-adv-x="490" d="M30 894l368 -4q-32 -122 -47 -208t-19 -144q-8 -66 -4 -112q6 -42 20 -90q12 -40 36 -92t64 -104q-24 8 -52 12t-52 6q-28 2 -56 0t-62 -6q-28 -4 -68 -10t-84 -16q30 90 47 156t25 110q8 52 10 84v91v99t-2 85t-8 47l-20 20q-12 10 -35 29t-61 47zM40 1322l142 78 l142 -274l-94 -56z" />
<glyph unicode="&#xed;" horiz-adv-x="490" d="M30 894l368 -4q-32 -122 -47 -208t-19 -144q-8 -66 -4 -112q6 -42 20 -90q12 -40 36 -92t64 -104q-24 8 -52 12t-52 6q-28 2 -56 0t-62 -6q-28 -4 -68 -10t-84 -16q30 90 47 156t25 110q8 52 10 84v91v99t-2 85t-8 47l-20 20q-12 10 -35 29t-61 47zM168 1132l212 206 l100 -106l-260 -176z" />
<glyph unicode="&#xee;" horiz-adv-x="490" d="M-106 1098q54 34 89 57t57 39q24 18 38 28q12 10 34 30q18 16 48 44t74 72q70 -68 110 -98q22 -18 40 -30t46 -34q24 -18 63 -47t97 -69l-242 -10l-114 164l-116 -150zM30 894l368 -4q-32 -122 -47 -208t-19 -144q-8 -66 -4 -112q6 -42 20 -90q12 -40 36 -92t64 -104 q-24 8 -52 12t-52 6q-28 2 -56 0t-62 -6q-28 -4 -68 -10t-84 -16q30 90 47 156t25 110q8 52 10 84v91v99t-2 85t-8 47l-20 20q-12 10 -35 29t-61 47z" />
<glyph unicode="&#xef;" horiz-adv-x="490" d="M-59 1182q-1 30 11 58t38 47t66 21q36 2 65 -18t44 -50t12 -63t-29 -57q-44 -40 -102 -39t-88 47q-16 24 -17 54zM30 894l368 -4q-32 -122 -47 -208t-19 -144q-8 -66 -4 -112q6 -42 20 -90q12 -40 36 -92t64 -104q-24 8 -52 12t-52 6q-28 2 -56 0t-62 -6q-28 -4 -68 -10 t-84 -16q30 90 47 156t25 110q8 52 10 84v91v99t-2 85t-8 47l-20 20q-12 10 -35 29t-61 47zM307 1180q-1 30 11 58t38 48t66 22q36 2 65 -19t44 -51t12 -63t-29 -57q-22 -20 -49 -29t-53 -9t-50 12t-38 34q-16 24 -17 54z" />
<glyph unicode="&#xf0;" horiz-adv-x="1112" d="M66 554q8 90 59 166t156 126t285 50q36 0 74 -9t76 -25q-18 58 -45 131t-65 155q-34 -12 -83 -30t-109 -42l-54 190q56 14 97 24t73 18q-24 44 -50 87t-54 85l16 240q72 -76 143 -166t135 -192q64 20 180 62l44 -164q-40 -16 -73 -27t-61 -21q102 -186 163 -383t57 -389 q0 -56 -12 -112t-35 -106t-58 -89t-79 -63q-56 -28 -110 -44t-104 -24t-94 -8t-76 2q-60 4 -125 42t-122 94t-97 123t-48 127q-12 82 -4 172zM311 376q5 -62 25 -117t57 -94t95 -45q24 -4 61 11t74 49t66 87t35 129q6 74 1 136t-19 108t-32 77t-38 43q-34 18 -82 29t-82 -5 q-16 -8 -40 -34t-48 -65t-43 -89t-27 -104t-3 -116z" />
<glyph unicode="&#xf1;" horiz-adv-x="1200" d="M0 902q46 10 79 17t55 13l42 14q16 6 38 12q18 4 44 10t60 14l-6 -182q64 76 130 114t124 54q66 20 130 20q80 -4 149 -26t120 -51t83 -61t38 -56q24 -78 12 -143t-31 -126t-32 -121t9 -130l16 -36q8 -16 20 -32t28 -26q-22 2 -44 3t-40 3q-22 2 -40 4q-20 2 -54 2 q-58 0 -180 -6q18 42 29 71t19 47q8 22 12 34q24 58 29 132t-11 150q-6 26 -20 62t-37 70t-54 58t-71 28t-89 -20t-105 -88q-42 -54 -66 -132q-22 -66 -30 -165t24 -231q-28 4 -52 5t-40 3q-20 2 -36 4q-18 0 -40 2q-20 0 -50 1t-70 3q14 66 21 117t11 85q4 40 4 68 q-2 34 -3 81t-4 94t-7 84t-10 53q-8 16 -22 34q-28 34 -82 66zM218 1254q36 52 73 81t69 41q36 14 70 16q42 -2 73 -22t60 -43t59 -42t72 -17q30 2 64 14q28 10 62 31t64 61l80 -164q-24 -40 -59 -60t-69 -30q-38 -10 -80 -10q-54 2 -89 23t-62 45t-53 43t-62 17 q-28 -6 -56 -20q-24 -12 -52 -37t-50 -67z" />
<glyph unicode="&#xf2;" horiz-adv-x="1090" d="M66 554q8 90 59 166t156 126t285 50q52 0 108 -19t108 -48t95 -62t71 -63q50 -54 69 -145t7 -186t-56 -179t-122 -124q-56 -28 -110 -44t-104 -24t-94 -8t-76 2q-60 4 -125 42t-122 94t-97 123t-48 127q-12 82 -4 172zM323 376q5 -62 25 -117t57 -94t95 -45q22 -4 60 11 t75 49t66 87t35 129q6 74 1 136t-19 109t-32 77t-38 42q-34 18 -82 29t-82 -5q-16 -8 -40 -34t-48 -65t-43 -89t-27 -104t-3 -116zM448 1260l142 78l142 -274l-94 -56z" />
<glyph unicode="&#xf3;" horiz-adv-x="1090" d="M66 554q8 90 59 166t156 126t285 50q52 0 108 -19t108 -48t95 -62t71 -63q50 -54 69 -145t7 -186t-56 -179t-122 -124q-56 -28 -110 -44t-104 -24t-94 -8t-76 2q-60 4 -125 42t-122 94t-97 123t-48 127q-12 82 -4 172zM323 376q5 -62 25 -117t57 -94t95 -45q22 -4 60 11 t75 49t66 87t35 129q6 74 1 136t-19 109t-32 77t-38 42q-34 18 -82 29t-82 -5q-16 -8 -40 -34t-48 -65t-43 -89t-27 -104t-3 -116zM456 1112l212 206l100 -106l-260 -176z" />
<glyph unicode="&#xf4;" horiz-adv-x="1090" d="M66 554q8 90 59 166t156 126t285 50q52 0 108 -19t108 -48t95 -62t71 -63q50 -54 69 -145t7 -186t-56 -179t-122 -124q-56 -28 -110 -44t-104 -24t-94 -8t-76 2q-60 4 -125 42t-122 94t-97 123t-48 127q-12 82 -4 172zM202 1056q54 34 89 57t57 39q24 18 38 28 q12 10 34 30q18 16 48 44t74 72q70 -68 110 -98q22 -18 40 -30t46 -34q24 -18 63 -47t97 -69l-242 -10l-114 164l-116 -150zM323 376q5 -62 25 -117t57 -94t95 -45q22 -4 60 11t75 49t66 87t35 129q6 74 1 136t-19 109t-32 77t-38 42q-34 18 -82 29t-82 -5q-16 -8 -40 -34 t-48 -65t-43 -89t-27 -104t-3 -116z" />
<glyph unicode="&#xf5;" horiz-adv-x="1090" d="M66 554q8 90 59 166t156 126t285 50q52 0 108 -19t108 -48t95 -62t71 -63q50 -54 69 -145t7 -186t-56 -179t-122 -124q-56 -28 -110 -44t-104 -24t-94 -8t-76 2q-60 4 -125 42t-122 94t-97 123t-48 127q-12 82 -4 172zM218 1172q36 52 73 81t69 41q36 14 70 16 q42 -2 73 -22t60 -43t59 -42t72 -17q30 2 64 14q28 10 62 31t64 61l80 -164q-24 -40 -59 -60t-69 -30q-38 -10 -80 -10q-54 2 -89 23t-62 45t-53 43t-62 17q-28 -6 -56 -20q-24 -12 -52 -37t-50 -67zM323 376q5 -62 25 -117t57 -94t95 -45q22 -4 60 11t75 49t66 87t35 129 q6 74 1 136t-19 109t-32 77t-38 42q-34 18 -82 29t-82 -5q-16 -8 -40 -34t-48 -65t-43 -89t-27 -104t-3 -116z" />
<glyph unicode="&#xf6;" horiz-adv-x="1090" d="M66 554q8 90 59 166t156 126t285 50q52 0 108 -19t108 -48t95 -62t71 -63q50 -54 69 -145t7 -186t-56 -179t-122 -124q-56 -28 -110 -44t-104 -24t-94 -8t-76 2q-60 4 -125 42t-122 94t-97 123t-48 127q-12 82 -4 172zM269 1120q-1 30 11 58t38 47t66 21q36 2 65 -18 t44 -50t12 -63t-29 -57q-44 -40 -102 -39t-88 47q-16 24 -17 54zM323 376q5 -62 25 -117t57 -94t95 -45q22 -4 60 11t75 49t66 87t35 129q6 74 1 136t-19 109t-32 77t-38 42q-34 18 -82 29t-82 -5q-16 -8 -40 -34t-48 -65t-43 -89t-27 -104t-3 -116zM635 1118q-1 30 11 58 t38 48t66 22q36 2 65 -19t44 -51t12 -63t-29 -57q-22 -20 -49 -29t-53 -9t-50 12t-38 34q-16 24 -17 54z" />
<glyph unicode="&#xf7;" horiz-adv-x="1110" d="M30 740q140 -4 244 -5t174 1q80 0 138 4q54 2 126 8q62 4 148 12t194 20l24 -198q-126 12 -232 17t-182 7q-92 2 -164 0q-72 -4 -150 -8q-66 -4 -147 -9t-157 -15zM360 943q-8 23 0 47q16 48 56 75t98 31q36 2 71 -9t61 -31t39 -46t5 -54q-8 -30 -33 -52t-56 -35t-64 -17 t-59 0t-50 17t-42 32t-26 42zM362 340q-8 22 0 46q16 46 59 74t101 30q36 2 72 -9t63 -30t40 -44t5 -53q-8 -30 -33 -51t-57 -35t-67 -18t-61 0t-52 17t-44 32t-26 41z" />
<glyph unicode="&#xf8;" horiz-adv-x="1084" d="M40 110q24 14 46 28l18 12q10 4 18 12q8 4 16 11t16 11q-50 64 -65 134t-13 130q2 70 22 138q28 88 77 157t112 116t136 71t151 24q62 0 104 -10t69 -23t44 -26t29 -19q38 36 61 60t37 40q16 18 24 28q6 8 12 18q10 16 20 40l38 -78q6 -8 18 -20q10 -10 28 -27t48 -41 q-18 -6 -30 -12q-8 -4 -14 -6q-8 -4 -24 -14t-41 -29t-65 -51q34 -70 46 -130t16 -106q4 -52 -4 -98q-12 -56 -38 -130t-82 -145t-146 -128t-228 -79q-46 -6 -92 4q-40 8 -85 33t-81 77q-8 -10 -15 -19t-13 -17q-8 -8 -16 -18q-6 -8 -14 -16q-6 -8 -13 -16t-13 -18zM316 358 q42 40 76 73t56 55q26 26 46 48q18 18 48 52q26 28 66 73t102 113q0 40 -14 60t-30 30q-20 10 -44 10q-68 -8 -130 -55t-106 -157q-16 -42 -30 -92q-12 -42 -24 -97t-16 -113zM344 208q14 -56 39 -83t47 -37q26 -12 56 -12q40 4 73 34t60 71t48 87t33 84q10 32 18 70 q8 34 13 81t7 107q-54 -48 -94 -86t-68 -64q-32 -32 -56 -54q-22 -22 -50 -52q-24 -26 -56 -63t-70 -83z" />
<glyph unicode="&#xf9;" horiz-adv-x="1088" d="M40 920q52 -10 91 -15t67 -9q32 -4 56 -6t56 -4q54 -2 152 0q-58 4 -91 -29t-49 -75q-20 -50 -22 -116q-4 -88 5 -159t34 -120t67 -72t108 -13t101 47t51 92t19 125t5 146q0 76 -1 109t-3 43t-6 9t-10 9q-4 8 -12 16q-6 8 -16 19t-22 23q52 -2 93 -3t69 -3q32 -2 56 -4 q22 -2 58 -6q30 -4 78 -8t114 -12q-46 -10 -74 -30t-44 -40q-18 -22 -26 -48q-6 -34 0 -104q4 -62 20 -170t50 -284l-158 -94l-32 266q-58 -98 -123 -151t-121 -77q-66 -28 -128 -32q-82 0 -141 11t-101 29t-67 41t-37 47q-28 50 -30 129t6 158t18 145t6 90q-4 18 -12 40 q-8 18 -20 41t-34 49zM326 1300l142 78l142 -274l-94 -56z" />
<glyph unicode="&#xfa;" horiz-adv-x="1088" d="M40 920q52 -10 91 -15t67 -9q32 -4 56 -6t56 -4q54 -2 152 0q-58 4 -91 -29t-49 -75q-20 -50 -22 -116q-4 -88 5 -159t34 -120t67 -72t108 -13t101 47t51 92t19 125t5 146q0 76 -1 109t-3 43t-6 9t-10 9q-4 8 -12 16q-6 8 -16 19t-22 23q52 -2 93 -3t69 -3q32 -2 56 -4 q22 -2 58 -6q30 -4 78 -8t114 -12q-46 -10 -74 -30t-44 -40q-18 -22 -26 -48q-6 -34 0 -104q4 -62 20 -170t50 -284l-158 -94l-32 266q-58 -98 -123 -151t-121 -77q-66 -28 -128 -32q-82 0 -141 11t-101 29t-67 41t-37 47q-28 50 -30 129t6 158t18 145t6 90q-4 18 -12 40 q-8 18 -20 41t-34 49zM394 1112l212 206l100 -106l-260 -176z" />
<glyph unicode="&#xfb;" horiz-adv-x="1088" d="M40 920q52 -10 91 -15t67 -9q32 -4 56 -6t56 -4q54 -2 152 0q-58 4 -91 -29t-49 -75q-20 -50 -22 -116q-4 -88 5 -159t34 -120t67 -72t108 -13t101 47t51 92t19 125t5 146q0 76 -1 109t-3 43t-6 9t-10 9q-4 8 -12 16q-6 8 -16 19t-22 23q52 -2 93 -3t69 -3q32 -2 56 -4 q22 -2 58 -6q30 -4 78 -8t114 -12q-46 -10 -74 -30t-44 -40q-18 -22 -26 -48q-6 -34 0 -104q4 -62 20 -170t50 -284l-158 -94l-32 266q-58 -98 -123 -151t-121 -77q-66 -28 -128 -32q-82 0 -141 11t-101 29t-67 41t-37 47q-28 50 -30 129t6 158t18 145t6 90q-4 18 -12 40 q-8 18 -20 41t-34 49zM182 1118q54 34 89 57t57 39q24 18 38 28q12 10 34 30q18 16 48 44t74 72q70 -68 110 -98q22 -18 40 -30t46 -34q24 -18 63 -47t97 -69l-242 -10l-114 164l-116 -150z" />
<glyph unicode="&#xfc;" horiz-adv-x="1088" d="M40 920q52 -10 91 -15t67 -9q32 -4 56 -6t56 -4q54 -2 152 0q-58 4 -91 -29t-49 -75q-20 -50 -22 -116q-4 -88 5 -159t34 -120t67 -72t108 -13t101 47t51 92t19 125t5 146q0 76 -1 109t-3 43t-6 9t-10 9q-4 8 -12 16q-6 8 -16 19t-22 23q52 -2 93 -3t69 -3q32 -2 56 -4 q22 -2 58 -6q30 -4 78 -8t114 -12q-46 -10 -74 -30t-44 -40q-18 -22 -26 -48q-6 -34 0 -104q4 -62 20 -170t50 -284l-158 -94l-32 266q-58 -98 -123 -151t-121 -77q-66 -28 -128 -32q-82 0 -141 11t-101 29t-67 41t-37 47q-28 50 -30 129t6 158t18 145t6 90q-4 18 -12 40 q-8 18 -20 41t-34 49zM229 1162q-1 30 11 58t38 47t66 21q36 2 65 -18t44 -50t12 -63t-29 -57q-44 -40 -102 -39t-88 47q-16 24 -17 54zM595 1160q-1 30 11 58t38 48t66 22q36 2 65 -19t44 -51t12 -63t-29 -57q-22 -20 -49 -29t-53 -9t-50 12t-38 34q-16 24 -17 54z" />
<glyph unicode="&#xfd;" horiz-adv-x="1166" d="M-72 1022q40 -6 71 -9t55 -5q26 -2 50 -2q22 0 56 2q28 2 73 5t107 9q-4 -8 -16 -49t-24 -100t-21 -130t-8 -140t17 -130t52 -99q76 -78 135 -94t103 4t72 60t40 74q30 92 36 194q4 88 -14 196t-86 220q52 -4 90 -6t66 -4q32 -2 56 -4q22 -2 52 0q26 0 63 3t83 7 q8 -196 14 -349t9 -270t3 -202v-143q-2 -138 -12 -182q-16 -62 -57 -124t-103 -111t-143 -76t-177 -19q-94 8 -149 25t-86 39t-44 46t-19 49t-12 47t-24 38q-22 18 -46 36q-22 16 -47 32t-49 26l426 24q-18 -24 -26 -44t-10 -34q-2 -18 2 -30q8 -24 29 -53t55 -46t81 -11 t107 50q50 38 84 122q28 72 44 202t-6 342q-36 -124 -98 -190t-124 -96q-72 -36 -150 -38q-104 4 -178 27t-122 63t-75 95t-39 123t-12 137t1 129t1 109t-10 79q-12 30 -32 60q-16 26 -45 57t-69 59zM434 1256l212 206l100 -106l-260 -176z" />
<glyph unicode="&#xfe;" horiz-adv-x="1362" d="M52 -326q22 26 34 59t20 61q8 34 14 68q2 30 7 109t11 182t11 216t10 211t7 167t2 83q0 72 -8 168q-6 84 -19 204t-37 278q108 -6 154 -6h44q18 0 44 2q22 2 54 2t74 2q-16 -22 -28 -38t-20 -26q-8 -12 -14 -22q-8 -18 -16 -88q-8 -60 -20 -182t-26 -338q108 68 200 102 t160 48q80 16 142 14q80 -8 150 -36t126 -69t97 -89t65 -96q16 -32 21 -92t-13 -128t-63 -133t-125 -103q-144 -64 -284 -72q-60 -4 -123 4t-126 34t-121 75t-106 127q-16 -102 -23 -177t-9 -125q-2 -58 2 -98t16 -86q10 -40 28 -93t50 -111q-20 10 -47 15t-53 7 q-30 2 -60 0q-28 -2 -62 -6q-28 -4 -65 -9t-75 -15zM470 466q8 -44 41 -83t94 -68t153 -43t140 4t72 57t32 92t20 111q12 56 -5 115t-46 107t-64 79t-61 31q-62 0 -122 -32t-110 -80t-87 -103t-51 -99t-6 -88z" />
<glyph unicode="&#xff;" horiz-adv-x="1166" d="M-72 1022q40 -6 71 -9t55 -5q26 -2 50 -2q22 0 56 2q28 2 73 5t107 9q-4 -8 -16 -49t-24 -100t-21 -130t-8 -140t17 -130t52 -99q76 -78 135 -94t103 4t72 60t40 74q30 92 36 194q4 88 -14 196t-86 220q52 -4 90 -6t66 -4q32 -2 56 -4q22 -2 52 0q26 0 63 3t83 7 q8 -196 14 -349t9 -270t3 -202v-143q-2 -138 -12 -182q-16 -62 -57 -124t-103 -111t-143 -76t-177 -19q-94 8 -149 25t-86 39t-44 46t-19 49t-12 47t-24 38q-22 18 -46 36q-22 16 -47 32t-49 26l426 24q-18 -24 -26 -44t-10 -34q-2 -18 2 -30q8 -24 29 -53t55 -46t81 -11 t107 50q50 38 84 122q28 72 44 202t-6 342q-36 -124 -98 -190t-124 -96q-72 -36 -150 -38q-104 4 -178 27t-122 63t-75 95t-39 123t-12 137t1 129t1 109t-10 79q-12 30 -32 60q-16 26 -45 57t-69 59zM207 1306q-1 30 11 58t38 47t66 21q36 2 65 -18t44 -50t12 -63t-29 -57 q-44 -40 -102 -39t-88 47q-16 24 -17 54zM573 1304q-1 30 11 58t38 48t66 22q36 2 65 -19t44 -51t12 -63t-29 -57q-22 -20 -49 -29t-53 -9t-50 12t-38 34q-16 24 -17 54z" />
<glyph unicode="&#x2c6;" horiz-adv-x="1464" d="M384 1300q54 34 89 57t57 39q24 18 38 28q12 10 34 30q18 16 48 44t74 72q70 -68 110 -98q22 -18 40 -30t46 -34q24 -18 63 -47t97 -69l-242 -10l-114 164l-116 -150z" />
<glyph unicode="&#x2dc;" horiz-adv-x="1464" d="M360 1436q36 52 73 81t69 41q36 14 70 16q42 -2 73 -22t60 -43t59 -42t72 -17q30 2 64 14q28 10 62 31t64 61l80 -164q-24 -40 -59 -60t-69 -30q-38 -10 -80 -10q-54 2 -89 23t-62 45t-53 43t-62 17q-28 -6 -56 -20q-24 -12 -52 -37t-50 -67z" />
<glyph unicode="&#x2000;" horiz-adv-x="965" />
<glyph unicode="&#x2001;" horiz-adv-x="1930" />
<glyph unicode="&#x2002;" horiz-adv-x="965" />
<glyph unicode="&#x2003;" horiz-adv-x="1930" />
<glyph unicode="&#x2004;" horiz-adv-x="643" />
<glyph unicode="&#x2005;" horiz-adv-x="482" />
<glyph unicode="&#x2006;" horiz-adv-x="321" />
<glyph unicode="&#x2007;" horiz-adv-x="321" />
<glyph unicode="&#x2008;" horiz-adv-x="241" />
<glyph unicode="&#x2009;" horiz-adv-x="386" />
<glyph unicode="&#x200a;" horiz-adv-x="107" />
<glyph unicode="&#x2010;" horiz-adv-x="938" d="M30 734q78 -2 143 -2h113q56 0 102 2q48 0 122 4q64 2 161 6t237 10l-10 -204q-112 8 -187 11t-121 5q-54 2 -88 0t-96 -6q-52 -4 -141 -9t-225 -15z" />
<glyph unicode="&#x2011;" horiz-adv-x="938" d="M30 734q78 -2 143 -2h113q56 0 102 2q48 0 122 4q64 2 161 6t237 10l-10 -204q-112 8 -187 11t-121 5q-54 2 -88 0t-96 -6q-52 -4 -141 -9t-225 -15z" />
<glyph unicode="&#x2012;" horiz-adv-x="938" d="M30 734q78 -2 143 -2h113q56 0 102 2q48 0 122 4q64 2 161 6t237 10l-10 -204q-112 8 -187 11t-121 5q-54 2 -88 0t-96 -6q-52 -4 -141 -9t-225 -15z" />
<glyph unicode="&#x2013;" horiz-adv-x="1084" d="M30 734q91 -2 167 -2h132q65 0 119 2q56 0 142 4q74 2 187.5 6t276.5 10l-12 -204q-130 8 -217.5 11t-141.5 5q-63 2 -103 0q-39 -2 -111 -6q-61 -4 -165 -9t-262 -15z" />
<glyph unicode="&#x2014;" horiz-adv-x="2108" d="M30 734q182 -2 333.5 -2h263.5q131 0 238 2q112 0 285 4q149 2 375 6t553 10l-23 -204q-262 8 -436.5 11t-282.5 5q-126 2 -205 0t-224 -6q-121 -4 -328.5 -9t-525.5 -15z" />
<glyph unicode="&#x202f;" horiz-adv-x="386" />
<glyph unicode="&#x205f;" horiz-adv-x="482" />
<glyph unicode="&#x25fc;" horiz-adv-x="1150" d="M0 0v1150h1150v-1150h-1150z" />
</font>
</defs>
</svg>
